{"glyphs":{"0":{"ha":878,"x_min":65,"x_max":814,"o":"m 440 -19 q 245 32 329 -19 q 113 188 160 83 q 65 450 65 292 q 113 713 65 609 q 245 868 160 817 q 440 919 329 919 q 634 868 550 919 q 766 713 719 817 q 814 450 814 609 q 766 188 814 292 q 634 32 719 83 q 440 -19 550 -19 m 440 131 q 591 213 538 131 q 644 450 644 295 q 591 688 644 605 q 440 771 538 771 q 289 688 342 771 q 235 450 235 605 q 289 213 235 295 q 440 131 342 131 z "},"1":{"ha":495,"x_min":58,"x_max":365,"o":"m 242 907 l 365 907 l 365 0 l 201 0 l 201 711 q 129 685 165 694 q 58 676 94 676 l 58 833 q 150 855 106 838 q 242 907 194 872 z "},"2":{"ha":840,"x_min":83,"x_max":768,"o":"m 83 0 l 83 154 q 106 283 83 230 q 175 372 129 335 q 289 435 220 408 l 474 506 q 563 565 534 530 q 592 653 592 601 q 554 741 592 705 q 446 776 516 776 q 333 743 378 776 q 281 644 288 709 l 99 644 q 147 798 101 737 q 269 889 192 859 q 443 919 347 919 q 608 885 534 919 q 725 789 681 851 q 768 646 768 728 q 743 524 768 576 q 666 431 717 471 q 536 361 615 392 l 350 289 q 272 243 296 268 q 247 176 247 217 l 247 150 l 763 150 l 763 0 l 83 0 z "},"3":{"ha":864,"x_min":63,"x_max":793,"o":"m 435 -19 q 297 0 363 -19 q 177 58 230 19 q 93 152 124 96 q 63 283 63 209 l 235 283 q 263 202 238 236 q 333 149 289 167 q 435 131 377 131 q 567 169 519 131 q 615 268 615 208 q 596 335 615 307 q 536 378 576 363 q 433 393 496 393 l 314 393 l 314 522 l 415 522 q 540 556 494 522 q 585 649 585 590 q 546 736 585 701 q 429 771 507 771 q 316 745 366 771 q 253 656 267 719 l 81 656 q 136 806 90 748 q 256 892 183 865 q 422 919 330 919 q 597 888 520 919 q 717 799 673 856 q 761 668 761 742 q 724 548 761 599 q 613 472 686 497 q 744 390 694 444 q 793 253 793 335 q 748 111 793 173 q 623 15 703 50 q 435 -19 542 -19 z "},"4":{"ha":826,"x_min":31,"x_max":807,"o":"m 492 911 l 650 911 l 650 340 l 807 340 l 807 200 l 650 200 l 650 0 l 488 0 l 488 200 l 31 200 l 31 324 l 492 911 m 496 668 l 225 324 l 496 324 l 496 668 z "},"5":{"ha":808,"x_min":79,"x_max":753,"o":"m 413 -19 q 241 14 315 -19 q 124 113 167 48 q 79 269 81 177 l 246 269 q 294 165 246 200 q 413 131 342 131 q 536 180 488 131 q 585 300 585 228 q 399 439 585 439 l 124 439 l 165 901 l 706 901 l 706 751 l 297 751 l 329 799 l 303 531 l 289 546 q 368 557 322 553 q 447 561 414 561 q 670 493 587 561 q 753 300 753 426 q 710 138 753 210 q 592 23 668 65 q 413 -19 515 -19 z "},"6":{"ha":843,"x_min":65,"x_max":775,"o":"m 447 -19 q 248 40 334 -19 q 114 201 162 99 q 65 435 65 303 q 114 698 65 590 q 250 863 163 806 q 456 919 338 919 q 614 886 545 919 q 722 794 683 853 q 765 654 762 734 l 590 654 q 551 740 583 708 q 461 771 520 771 q 292 677 354 771 q 229 421 229 583 q 230 376 229 400 q 235 329 231 351 q 284 463 246 415 q 375 532 322 512 q 488 553 428 553 q 637 516 572 553 q 738 415 701 479 q 775 267 775 350 q 734 117 775 181 q 618 16 692 52 q 447 -19 544 -19 m 447 131 q 559 170 513 131 q 606 274 606 209 q 559 380 606 341 q 447 418 513 418 q 369 400 404 418 q 313 349 334 382 q 292 274 292 317 q 337 170 292 209 q 447 131 383 131 z "},"7":{"ha":691,"x_min":33,"x_max":667,"o":"m 61 0 l 474 743 l 33 743 l 33 901 l 667 901 l 667 744 l 282 0 l 61 0 z "},"8":{"ha":898,"x_min":68,"x_max":831,"o":"m 449 -19 q 247 15 333 -19 q 115 109 162 49 q 68 243 68 168 q 102 352 68 307 q 195 422 136 397 q 328 446 254 446 q 382 441 357 446 q 440 428 407 436 l 440 388 q 335 370 381 388 q 264 324 290 353 q 238 260 238 294 q 266 191 238 219 q 342 146 294 162 q 449 131 390 131 q 609 159 557 131 q 661 231 661 187 q 636 290 661 265 q 565 332 610 315 l 308 431 q 214 481 262 449 q 132 560 165 513 q 99 674 99 608 q 140 804 99 749 q 259 889 181 859 q 449 919 338 919 q 626 886 547 919 q 752 794 706 853 q 799 661 799 736 q 770 565 799 609 q 688 493 742 520 q 557 465 633 465 q 508 470 531 465 q 457 483 486 474 l 457 531 q 542 545 503 531 q 605 587 581 560 q 629 650 629 614 q 606 714 629 687 q 543 756 583 741 q 449 771 502 771 q 357 757 398 771 q 292 720 316 744 q 268 667 268 697 q 292 611 268 633 q 360 571 315 589 l 625 468 q 777 380 724 430 q 831 239 831 329 q 786 106 831 164 q 656 14 741 47 q 449 -19 570 -19 z "},"9":{"ha":847,"x_min":74,"x_max":782,"o":"m 413 -19 q 245 17 319 -19 q 127 118 171 53 q 83 267 83 182 l 254 267 q 300 167 257 204 q 407 131 342 131 q 529 174 483 131 q 597 296 576 217 q 618 479 618 374 q 617 520 618 500 q 613 561 616 540 q 563 438 599 485 q 473 370 526 391 q 360 349 421 349 q 211 385 276 349 q 110 486 147 422 q 74 633 74 550 q 115 784 74 719 q 230 884 156 849 q 399 919 303 919 q 549 887 479 919 q 671 794 619 854 q 752 651 723 734 q 782 465 782 567 q 741 208 782 317 q 618 40 700 99 q 413 -19 536 -19 m 400 483 q 478 501 442 483 q 535 551 514 519 q 557 625 557 583 q 510 731 557 692 q 399 769 463 769 q 289 731 334 769 q 243 625 243 692 q 289 521 243 558 q 400 483 335 483 z "},"\r":{"ha":833,"x_min":0,"x_max":0,"o":""}," ":{"ha":351,"x_min":0,"x_max":0,"o":""}," ":{"ha":351,"x_min":0,"x_max":0,"o":""},",":{"ha":351,"x_min":33,"x_max":313,"o":"m 154 -189 l 33 -128 q 115 -75 79 -105 q 161 -7 150 -45 q 95 25 123 1 q 68 89 68 49 q 100 159 68 131 q 181 188 132 188 q 277 144 242 188 q 313 42 313 101 q 270 -89 313 -25 q 154 -189 228 -152 z "},".":{"ha":299,"x_min":33,"x_max":264,"o":"m 33 96 q 65 175 33 143 q 147 207 97 207 q 231 175 197 207 q 264 96 264 143 q 231 18 264 49 q 147 -12 197 -12 q 65 19 97 -12 q 33 96 33 50 z "},";":{"ha":428,"x_min":75,"x_max":354,"o":"m 196 -189 l 75 -128 q 156 -75 121 -105 q 203 -7 192 -45 q 137 25 165 1 q 110 89 110 49 q 142 159 110 131 q 222 188 174 188 q 319 144 284 188 q 354 42 354 101 q 312 -89 354 -25 q 196 -189 269 -152 m 118 533 q 150 613 118 581 q 232 644 182 644 q 315 613 282 644 q 349 533 349 581 q 315 456 349 487 q 232 425 282 425 q 150 456 182 425 q 118 533 118 488 z "},":":{"ha":374,"x_min":71,"x_max":301,"o":"m 71 119 q 103 199 71 167 q 185 231 135 231 q 268 199 235 231 q 301 119 301 167 q 268 42 301 73 q 185 11 235 11 q 103 42 135 11 q 71 119 71 74 m 71 533 q 103 613 71 581 q 185 644 135 644 q 268 613 235 644 q 301 533 301 581 q 268 456 301 487 q 185 425 235 425 q 103 456 135 425 q 71 533 71 488 z "},"-":{"ha":519,"x_min":64,"x_max":454,"o":"m 64 347 l 64 490 l 454 490 l 454 347 l 64 347 z "},"–":{"ha":729,"x_min":76,"x_max":653,"o":"m 76 347 l 76 490 l 653 490 l 653 347 l 76 347 z "},"—":{"ha":1067,"x_min":76,"x_max":992,"o":"m 76 347 l 76 490 l 992 490 l 992 347 l 76 347 z "},"!":{"ha":407,"x_min":94,"x_max":325,"o":"m 138 304 l 119 921 l 297 921 l 278 304 l 138 304 m 209 -12 q 126 18 158 -12 q 94 97 94 49 q 126 175 94 143 q 209 207 158 207 q 292 175 258 207 q 325 97 325 143 q 292 18 325 49 q 209 -12 258 -12 z "},"a":{"ha":813,"x_min":76,"x_max":701,"o":"m 558 0 l 538 164 l 538 435 q 509 540 538 506 q 411 574 480 574 q 342 562 372 574 q 298 528 313 550 q 282 475 282 506 l 103 475 q 140 600 103 551 q 245 670 176 648 q 411 693 315 693 q 564 665 499 693 q 665 578 629 637 q 701 429 701 520 l 701 0 l 558 0 m 338 -19 q 193 11 251 -19 q 106 90 135 41 q 76 197 76 140 q 110 305 76 261 q 206 370 144 348 q 351 392 267 392 q 455 383 406 392 q 553 361 504 375 l 553 265 q 469 285 515 278 q 385 292 424 292 q 289 270 326 292 q 251 197 251 249 q 282 133 251 160 q 379 106 313 106 q 465 128 430 106 q 519 183 501 150 q 538 250 538 217 l 576 250 q 549 116 576 177 q 469 17 522 54 q 338 -19 416 -19 z "},"b":{"ha":853,"x_min":129,"x_max":782,"o":"m 474 -19 q 358 16 410 -19 q 274 122 306 51 q 243 299 243 192 l 293 299 q 316 210 293 248 q 375 150 339 172 q 450 129 411 129 q 535 156 498 129 q 595 229 573 182 q 617 340 617 276 q 595 448 617 402 q 536 520 574 494 q 449 546 498 546 q 372 526 408 546 q 315 469 337 506 q 293 379 293 432 l 243 379 q 273 551 243 481 q 357 657 302 622 q 486 693 411 693 q 635 650 568 693 q 742 527 702 606 q 782 340 782 447 q 741 151 782 232 q 629 25 699 70 q 474 -19 559 -19 m 129 0 l 129 953 l 293 953 l 293 167 l 236 0 l 129 0 z "},"c":{"ha":735,"x_min":65,"x_max":668,"o":"m 385 -19 q 227 25 300 -19 q 110 149 155 69 q 65 338 65 229 q 110 532 65 452 q 227 652 155 611 q 385 693 300 693 q 501 672 451 693 q 587 615 551 651 q 642 535 622 579 q 668 447 663 492 l 503 443 q 461 517 492 488 q 383 546 431 546 q 309 524 344 546 q 252 456 274 502 q 231 338 231 410 q 251 222 231 268 q 306 152 272 176 q 383 129 341 129 q 474 159 446 129 q 503 240 503 190 l 668 240 q 635 110 668 169 q 540 16 603 51 q 385 -19 476 -19 z "},"d":{"ha":853,"x_min":71,"x_max":724,"o":"m 378 -19 q 223 25 293 -19 q 112 151 153 70 q 71 340 71 232 q 111 527 71 447 q 218 650 151 606 q 367 693 285 693 q 497 657 442 693 q 581 551 551 622 q 610 379 610 481 l 558 379 q 537 469 558 432 q 480 526 515 506 q 404 546 445 546 q 317 520 355 546 q 258 448 279 494 q 236 340 236 402 q 258 229 236 276 q 317 156 279 182 q 403 129 355 129 q 477 150 442 129 q 536 210 513 172 q 558 299 558 248 l 610 299 q 578 122 610 192 q 494 16 547 51 q 378 -19 441 -19 m 589 0 l 558 167 l 558 953 l 724 953 l 724 0 l 589 0 z "},"e":{"ha":736,"x_min":65,"x_max":675,"o":"m 381 -19 q 223 25 294 -19 q 108 150 151 69 q 65 338 65 230 q 108 528 65 449 q 222 651 151 608 q 381 693 294 693 q 520 661 461 693 q 614 573 578 628 q 663 449 650 518 q 664 306 675 379 l 196 306 l 196 394 l 548 394 l 516 374 q 513 440 518 406 q 493 501 508 473 q 452 545 478 528 q 383 563 425 563 q 299 538 333 563 q 246 469 264 513 q 228 372 228 426 l 228 307 q 245 206 228 250 q 295 138 262 163 q 381 113 329 113 q 461 135 428 113 q 503 201 494 157 l 668 201 q 619 86 658 136 q 519 9 581 37 q 381 -19 458 -19 z "},"f":{"ha":510,"x_min":68,"x_max":514,"o":"m 168 0 l 168 756 q 197 874 168 828 q 272 942 225 920 q 374 964 319 964 q 444 959 408 964 q 514 947 480 954 l 482 821 q 446 831 465 827 q 410 835 427 835 q 373 827 390 835 q 344 802 356 820 q 333 753 333 784 l 333 0 l 168 0 m 68 565 l 68 674 l 457 674 l 457 565 l 68 565 z "},"g":{"ha":808,"x_min":21,"x_max":781,"o":"m 389 -349 q 191 -317 273 -349 q 65 -233 108 -285 q 21 -121 21 -181 q 73 -10 21 -49 q 204 29 125 29 l 324 -15 q 219 -41 256 -15 q 182 -112 182 -67 q 237 -189 182 -160 q 389 -218 292 -218 q 510 -197 459 -218 q 590 -143 562 -176 q 618 -72 618 -110 q 601 -31 618 -47 q 550 -15 585 -15 l 324 -15 q 200 7 256 -15 q 111 66 144 28 q 78 149 78 103 q 101 222 78 191 q 166 269 125 253 q 257 286 206 286 l 299 232 q 260 224 278 232 q 230 201 242 216 q 218 163 218 185 q 242 117 218 135 q 324 100 265 100 l 550 100 q 719 60 658 100 q 781 -61 781 21 q 733 -200 781 -134 q 597 -307 685 -265 q 389 -349 509 -349 m 397 208 q 251 239 317 208 q 145 323 185 269 q 106 450 106 377 q 145 579 106 524 q 251 664 185 634 q 397 693 317 693 q 541 664 475 693 q 647 579 607 634 q 688 450 688 524 q 647 323 688 377 q 541 239 607 269 q 397 208 475 208 m 399 322 q 494 359 463 322 q 526 450 526 396 q 494 544 526 508 q 397 579 462 579 q 301 544 335 579 q 268 450 268 508 q 302 359 268 396 q 399 322 335 322 m 636 585 l 561 628 q 589 734 561 688 q 664 804 617 779 q 768 829 711 829 l 760 672 q 668 651 699 672 q 636 585 636 630 z "},"h":{"ha":865,"x_min":129,"x_max":756,"o":"m 592 0 l 592 394 q 556 508 592 469 q 461 546 519 546 q 374 519 412 546 q 315 437 336 492 q 293 301 293 383 l 239 301 q 272 520 239 433 q 364 650 304 607 q 504 693 424 693 q 643 656 588 693 q 727 551 699 619 q 756 394 756 484 l 756 0 l 592 0 m 129 0 l 129 953 l 293 953 l 293 0 l 129 0 z "},"i":{"ha":456,"x_min":124,"x_max":326,"o":"m 225 797 q 150 823 177 797 q 124 893 124 848 q 150 963 124 937 q 225 989 177 989 q 299 963 272 989 q 326 893 326 937 q 299 823 326 848 q 225 797 272 797 m 143 0 l 143 676 l 307 676 l 307 0 l 143 0 z "},"j":{"ha":465,"x_min":-106,"x_max":335,"o":"m 233 797 q 159 823 187 797 q 132 893 132 848 q 159 963 132 937 q 233 989 187 989 q 308 963 281 989 q 335 893 335 937 q 308 823 335 848 q 233 797 281 797 m 89 -349 q -11 -337 35 -349 q -106 -306 -58 -325 l -103 -164 q -28 -193 -67 -181 q 49 -206 11 -206 q 126 -176 99 -206 q 153 -78 153 -147 l 153 676 l 317 676 l 317 -81 q 257 -287 317 -225 q 89 -349 197 -349 z "},"k":{"ha":822,"x_min":129,"x_max":799,"o":"m 129 0 l 129 953 l 293 953 l 293 0 l 129 0 m 271 418 l 560 674 l 782 674 l 271 249 l 271 418 m 599 0 l 297 429 l 453 467 l 799 0 l 599 0 z "},"l":{"ha":423,"x_min":129,"x_max":293,"o":"m 129 0 l 129 953 l 293 953 l 293 0 l 129 0 z "},"m":{"ha":1318,"x_min":129,"x_max":1210,"o":"m 1044 0 l 1044 394 q 1008 508 1044 469 q 914 546 972 546 q 798 486 840 546 q 756 306 756 426 l 688 306 q 707 486 688 412 q 764 605 727 560 q 849 672 800 651 q 958 693 899 693 q 1097 656 1041 693 q 1181 551 1153 619 q 1210 394 1210 484 l 1210 0 l 1044 0 m 129 0 l 129 674 l 272 674 l 290 558 q 378 659 324 626 q 504 693 433 693 q 643 656 588 693 q 727 551 699 619 q 756 394 756 484 l 756 0 l 592 0 l 592 394 q 556 508 592 469 q 461 546 519 546 q 374 519 412 546 q 315 437 336 492 q 293 301 293 383 l 293 0 l 129 0 z "},"n":{"ha":865,"x_min":129,"x_max":756,"o":"m 592 0 l 592 394 q 556 508 592 469 q 461 546 519 546 q 374 519 412 546 q 315 437 336 492 q 293 301 293 383 l 239 301 q 272 520 239 433 q 364 650 304 607 q 504 693 424 693 q 643 656 588 693 q 727 551 699 619 q 756 394 756 484 l 756 0 l 592 0 m 129 0 l 129 674 l 272 674 l 293 540 l 293 0 l 129 0 z "},"o":{"ha":786,"x_min":65,"x_max":721,"o":"m 394 -19 q 227 20 302 -19 q 109 139 153 60 q 65 336 65 217 q 109 536 65 457 q 227 654 153 615 q 394 693 302 693 q 559 654 485 693 q 677 536 633 615 q 721 336 721 457 q 677 139 721 217 q 559 20 633 60 q 394 -19 485 -19 m 389 124 q 475 148 438 124 q 535 219 513 172 q 557 336 557 266 q 515 497 557 443 q 400 551 473 551 q 313 527 351 551 q 252 456 274 503 q 231 336 231 408 q 273 177 231 231 q 389 124 316 124 z "},"p":{"ha":847,"x_min":129,"x_max":782,"o":"m 467 -19 q 340 13 392 -19 q 261 109 288 44 q 233 272 233 174 l 293 272 q 314 195 293 227 q 369 146 335 163 q 443 129 403 129 q 524 152 484 129 q 590 220 564 174 q 617 338 617 267 q 594 449 617 402 q 534 521 572 496 q 446 546 495 546 q 369 527 404 546 q 314 473 335 508 q 293 386 293 437 l 233 386 q 266 560 233 492 q 353 660 299 628 q 474 693 408 693 q 624 651 553 693 q 738 529 694 608 q 782 338 782 449 q 738 145 782 225 q 621 23 693 65 q 467 -19 549 -19 m 129 -329 l 129 674 l 264 674 l 293 507 l 293 -329 l 129 -329 z "},"q":{"ha":847,"x_min":65,"x_max":810,"o":"m 381 -19 q 226 23 298 -19 q 110 145 154 65 q 65 338 65 225 q 109 529 65 449 q 223 651 153 608 q 372 693 293 693 q 492 660 438 693 q 581 560 547 628 q 614 386 614 492 l 553 386 q 532 473 553 437 q 477 527 512 508 q 401 546 443 546 q 314 521 352 546 q 253 449 275 496 q 231 338 231 402 q 257 220 231 267 q 323 152 283 174 q 404 129 363 129 q 476 146 442 129 q 532 195 510 163 q 553 272 553 227 l 585 272 q 565 120 585 186 q 500 18 544 55 q 381 -19 455 -19 m 763 -349 q 601 -260 649 -320 q 553 -92 553 -199 l 553 507 l 611 674 l 717 674 l 717 -104 q 725 -168 717 -145 q 754 -205 733 -192 q 810 -229 774 -218 l 763 -349 z "},"r":{"ha":545,"x_min":129,"x_max":536,"o":"m 129 0 l 129 676 l 293 676 l 293 0 l 129 0 m 253 296 q 283 515 253 428 q 363 644 313 602 q 475 686 413 686 q 507 684 492 686 q 536 678 522 682 l 533 514 q 494 521 515 518 q 457 524 474 524 q 366 498 403 524 q 311 421 330 472 q 293 296 293 370 l 253 296 z "},"s":{"ha":733,"x_min":68,"x_max":664,"o":"m 381 -19 q 214 7 283 -19 q 106 84 144 34 q 68 206 69 135 l 219 206 q 259 133 222 156 q 361 110 297 110 q 424 120 397 110 q 467 149 451 131 q 482 189 482 167 q 461 234 482 217 q 396 264 441 250 l 249 317 q 127 392 169 345 q 85 503 85 438 q 162 641 85 588 q 369 693 240 693 q 569 636 499 693 q 642 493 640 580 l 488 493 q 456 546 484 526 q 369 565 427 565 q 288 544 317 565 q 258 494 258 523 q 340 422 258 447 l 500 363 q 621 294 578 336 q 664 189 664 253 q 628 88 664 135 q 528 10 592 40 q 381 -19 465 -19 z "},"t":{"ha":548,"x_min":44,"x_max":510,"o":"m 357 -19 q 248 3 297 -19 q 168 71 198 25 q 139 188 139 117 l 139 853 l 303 853 l 303 193 q 382 110 303 110 q 431 115 406 110 q 486 132 455 121 l 510 17 q 434 -9 471 1 q 357 -19 397 -19 m 44 565 l 44 674 l 486 674 l 486 565 l 44 565 z "},"u":{"ha":871,"x_min":115,"x_max":742,"o":"m 578 676 l 742 676 l 742 0 l 578 0 l 578 676 m 115 676 l 279 676 l 279 263 q 312 164 279 197 q 401 131 344 131 q 490 156 450 131 q 554 231 530 181 q 578 354 578 281 l 622 354 q 590 149 622 231 q 502 28 558 68 q 372 -12 446 -12 q 242 13 300 -12 q 149 96 183 39 q 115 246 115 153 l 115 676 z "},"v":{"ha":721,"x_min":17,"x_max":704,"o":"m 17 674 l 206 674 l 367 140 l 354 140 l 515 674 l 704 674 l 453 0 l 268 0 l 17 674 z "},"w":{"ha":1053,"x_min":17,"x_max":1033,"o":"m 17 674 l 188 674 l 333 163 l 317 163 l 454 638 l 603 638 l 740 161 l 724 161 l 869 674 l 1033 674 l 811 0 l 650 0 l 513 447 l 538 447 l 403 0 l 240 0 l 17 674 z "},"x":{"ha":769,"x_min":22,"x_max":746,"o":"m 22 0 l 285 336 l 22 676 l 224 676 l 389 460 l 546 676 l 746 676 l 485 336 l 746 0 l 546 0 l 378 217 l 224 0 l 22 0 z "},"y":{"ha":699,"x_min":0,"x_max":683,"o":"m 26 674 l 213 674 l 392 143 l 363 143 l 517 674 l 683 674 l 425 -122 q 327 -295 385 -242 q 186 -349 269 -349 q 93 -338 138 -349 q 0 -304 47 -327 l 0 -160 q 74 -194 38 -183 q 146 -206 110 -206 q 203 -188 178 -206 q 246 -139 228 -170 q 276 -65 264 -107 l 297 0 l 26 674 z "},"z":{"ha":688,"x_min":79,"x_max":610,"o":"m 79 0 l 79 133 l 429 542 l 79 542 l 79 674 l 610 674 l 610 542 l 271 133 l 610 133 l 610 0 l 79 0 z "},"A":{"ha":869,"x_min":31,"x_max":838,"o":"m 31 0 l 338 901 l 543 901 l 838 0 l 665 0 l 603 194 l 268 194 l 204 0 l 31 0 m 310 318 l 564 318 l 438 706 l 310 318 z "},"B":{"ha":900,"x_min":129,"x_max":818,"o":"m 129 0 l 129 901 l 493 901 q 666 869 597 901 q 769 783 735 837 q 803 663 803 728 q 760 532 803 586 q 640 456 717 478 q 731 417 691 445 q 795 347 772 390 q 818 250 818 305 q 803 163 818 207 q 752 82 788 119 q 652 23 715 45 q 494 0 590 0 l 129 0 m 293 143 l 490 143 q 605 175 569 143 q 642 260 642 206 q 604 345 642 313 q 490 378 567 378 l 293 378 l 293 143 m 293 760 l 293 521 l 486 521 q 597 553 559 521 q 635 642 635 585 q 598 727 635 695 q 488 760 560 760 l 293 760 z "},"C":{"ha":880,"x_min":65,"x_max":817,"o":"m 457 -19 q 250 37 338 -19 q 114 199 163 94 q 65 453 65 305 q 116 709 65 606 q 255 866 166 813 q 457 919 343 919 q 703 843 615 919 q 817 644 792 767 l 642 613 q 573 727 620 683 q 457 771 526 771 q 348 736 397 771 q 270 630 299 701 q 242 453 242 559 q 267 281 242 353 q 340 169 292 208 q 457 131 388 131 q 593 177 545 131 q 642 297 642 224 l 817 297 q 773 126 817 197 q 649 18 730 56 q 457 -19 569 -19 z "},"D":{"ha":953,"x_min":129,"x_max":881,"o":"m 129 901 l 421 901 q 662 846 558 901 q 823 690 765 791 q 881 450 881 588 q 823 212 881 313 q 662 56 765 111 q 421 0 558 0 l 129 0 l 129 901 m 293 753 l 293 147 l 421 147 q 572 187 508 147 q 670 295 635 226 q 704 450 704 363 q 670 606 704 538 q 572 714 635 674 q 421 753 508 753 l 293 753 z "},"E":{"ha":815,"x_min":128,"x_max":707,"o":"m 128 0 l 128 901 l 707 901 l 707 760 l 292 760 l 292 522 l 682 522 l 682 381 l 292 381 l 292 143 l 707 143 l 707 0 l 128 0 z "},"F":{"ha":759,"x_min":129,"x_max":697,"o":"m 129 0 l 129 901 l 697 901 l 697 760 l 293 760 l 293 522 l 663 522 l 663 382 l 293 382 l 293 0 l 129 0 z "},"G":{"ha":940,"x_min":65,"x_max":838,"o":"m 458 -19 q 259 39 348 -19 q 118 202 170 97 q 65 446 65 306 q 98 644 65 556 q 188 793 130 731 q 323 887 245 855 q 492 919 401 919 q 704 865 618 919 q 838 692 790 810 l 669 653 q 588 741 634 710 q 483 771 542 771 q 362 732 417 771 q 274 619 307 692 q 242 446 242 547 q 270 281 242 351 q 351 170 299 210 q 472 131 403 131 q 577 157 531 131 q 650 231 623 183 q 676 349 676 280 l 713 349 q 686 153 713 236 q 603 26 659 71 q 458 -19 547 -19 m 700 0 l 676 199 l 676 354 l 474 358 l 474 463 l 833 463 l 833 0 l 700 0 z "},"H":{"ha":980,"x_min":129,"x_max":850,"o":"m 129 901 l 293 901 l 293 525 l 686 525 l 686 901 l 850 901 l 850 0 l 686 0 l 686 382 l 293 382 l 293 0 l 129 0 l 129 901 z "},"I":{"ha":423,"x_min":129,"x_max":293,"o":"m 129 0 l 129 901 l 293 901 l 293 0 l 129 0 z "},"J":{"ha":616,"x_min":22,"x_max":508,"o":"m 22 38 l 22 201 q 131 155 78 169 q 229 140 184 140 q 316 175 289 140 q 343 281 343 210 l 343 901 l 508 901 l 508 281 q 474 106 508 172 q 381 10 440 40 q 243 -19 321 -19 q 126 -3 182 -19 q 22 38 71 13 z "},"K":{"ha":908,"x_min":129,"x_max":900,"o":"m 650 901 l 875 901 l 281 293 l 281 517 l 650 901 m 450 529 l 900 0 l 689 0 l 336 422 l 450 529 m 129 901 l 294 901 l 294 0 l 129 0 l 129 901 z "},"L":{"ha":686,"x_min":129,"x_max":664,"o":"m 293 901 l 293 143 l 664 143 l 664 0 l 129 0 l 129 901 l 293 901 z "},"M":{"ha":1215,"x_min":129,"x_max":1085,"o":"m 129 901 l 364 901 l 618 350 l 604 350 l 858 901 l 1085 901 l 1085 0 l 919 0 l 919 713 l 944 713 l 664 99 l 557 99 l 278 710 l 293 710 l 293 0 l 129 0 l 129 901 z "},"N":{"ha":996,"x_min":126,"x_max":867,"o":"m 126 901 l 306 901 l 715 258 l 703 258 l 703 901 l 867 901 l 867 0 l 700 0 l 264 682 l 290 682 l 290 0 l 126 0 l 126 901 z "},"O":{"ha":948,"x_min":65,"x_max":883,"o":"m 474 -19 q 261 33 353 -19 q 117 191 169 86 q 65 451 65 296 q 117 714 65 610 q 261 868 169 817 q 474 919 353 919 q 687 867 594 919 q 831 710 779 815 q 883 451 883 606 q 831 189 883 294 q 687 32 779 84 q 474 -19 594 -19 m 474 129 q 649 213 584 129 q 714 453 714 296 q 649 688 714 604 q 474 772 584 772 q 300 688 365 772 q 235 451 235 603 q 300 212 235 295 q 474 129 365 129 z "},"P":{"ha":806,"x_min":125,"x_max":765,"o":"m 125 0 l 125 901 l 443 901 q 680 826 595 901 q 765 614 765 751 q 680 403 765 478 q 443 328 595 328 l 290 328 l 290 0 l 125 0 m 290 471 l 443 471 q 558 511 519 471 q 597 614 597 551 q 558 719 597 678 q 443 760 519 760 l 290 760 l 290 471 z "},"Q":{"ha":953,"x_min":65,"x_max":883,"o":"m 474 -19 q 261 33 353 -19 q 117 191 169 86 q 65 451 65 296 q 117 714 65 610 q 261 868 169 817 q 474 919 353 919 q 687 867 594 919 q 831 710 779 815 q 883 451 883 606 q 831 189 883 294 q 687 32 779 84 q 474 -19 594 -19 m 750 -250 q 623 -213 681 -250 q 521 -110 565 -176 l 428 31 l 558 92 l 639 -33 q 685 -74 659 -62 q 738 -87 710 -86 q 805 -79 772 -87 q 872 -56 837 -70 l 872 -225 q 810 -244 840 -238 q 750 -250 781 -250 m 474 129 q 649 213 584 129 q 714 453 714 296 q 649 688 714 604 q 474 772 584 772 q 300 688 365 772 q 235 451 235 603 q 300 212 235 295 q 474 129 365 129 z "},"R":{"ha":894,"x_min":129,"x_max":831,"o":"m 129 0 l 129 901 l 463 901 q 711 826 624 901 q 797 625 797 750 q 711 427 797 502 q 463 351 624 351 l 293 351 l 293 0 l 129 0 m 617 0 l 378 422 l 553 422 l 831 0 l 617 0 m 293 461 l 446 461 q 583 502 536 461 q 629 610 629 544 q 587 718 629 677 q 463 760 544 760 l 293 760 l 293 461 z "},"S":{"ha":885,"x_min":90,"x_max":794,"o":"m 443 -19 q 270 13 349 -19 q 143 113 192 46 q 90 282 94 179 l 251 282 q 277 197 251 230 q 346 147 303 163 q 442 131 390 131 q 531 144 492 131 q 593 182 570 157 q 615 240 615 206 q 588 311 615 285 q 500 358 560 337 l 322 429 q 163 524 218 470 q 107 674 107 578 q 194 851 107 783 q 436 919 281 919 q 670 849 588 919 q 764 653 753 778 l 603 653 q 554 739 594 706 q 436 771 515 771 q 326 742 367 771 q 286 669 286 713 q 311 610 286 632 q 390 568 337 588 l 588 492 q 741 394 688 453 q 794 246 794 335 q 753 105 794 165 q 634 13 713 46 q 443 -19 556 -19 z "},"T":{"ha":738,"x_min":8,"x_max":731,"o":"m 8 760 l 8 901 l 731 901 l 731 760 l 415 760 l 451 797 l 451 0 l 288 0 l 288 797 l 324 760 l 8 760 z "},"U":{"ha":958,"x_min":115,"x_max":846,"o":"m 115 901 l 279 901 l 279 340 q 336 180 279 229 q 481 131 392 131 q 626 180 569 131 q 682 340 682 229 l 682 901 l 846 901 l 846 340 q 802 146 846 226 q 677 23 758 65 q 481 -19 595 -19 q 284 23 366 -19 q 159 146 203 65 q 115 340 115 226 l 115 901 z "},"V":{"ha":837,"x_min":25,"x_max":813,"o":"m 410 179 l 640 901 l 813 901 l 503 0 l 331 0 l 25 901 l 199 901 l 426 179 l 410 179 z "},"W":{"ha":1315,"x_min":14,"x_max":1300,"o":"m 14 901 l 197 901 l 415 144 l 374 144 l 589 842 l 700 842 l 924 156 l 886 156 l 1115 901 l 1300 901 l 990 0 l 818 0 l 642 532 l 657 532 l 481 0 l 308 0 l 14 901 z "},"X":{"ha":949,"x_min":46,"x_max":901,"o":"m 47 0 l 365 449 l 46 901 l 247 901 l 475 576 l 672 901 l 871 901 l 567 451 l 901 0 l 696 0 l 458 321 l 246 0 l 47 0 z "},"Y":{"ha":815,"x_min":10,"x_max":804,"o":"m 10 901 l 204 901 l 419 514 l 388 514 l 611 901 l 804 901 l 483 372 l 483 0 l 319 0 l 319 372 l 10 901 z "},"Z":{"ha":873,"x_min":101,"x_max":783,"o":"m 101 0 l 101 142 l 625 810 l 625 750 l 101 751 l 101 901 l 783 901 l 783 761 l 292 131 l 288 151 l 783 150 l 783 0 l 101 0 z "},"'":{"ha":249,"x_min":43,"x_max":207,"o":"m 43 940 l 207 940 l 185 610 l 64 610 l 43 940 z "},"ʼ":{"ha":328,"x_min":50,"x_max":329,"o":"m 171 533 l 50 594 q 131 647 96 617 q 178 715 167 677 q 112 747 140 723 q 85 811 85 772 q 117 881 85 853 q 197 910 149 910 q 294 867 259 910 q 329 765 329 824 q 287 634 329 697 q 171 533 244 570 z "},"‘":{"ha":376,"x_min":50,"x_max":329,"o":"m 182 526 q 113 547 142 526 q 66 602 83 568 q 50 676 50 636 q 96 806 50 744 q 215 906 142 868 l 329 842 q 249 790 283 820 q 200 721 214 760 q 267 691 240 715 q 294 628 294 667 q 263 556 294 586 q 182 526 231 526 z "},"’":{"ha":376,"x_min":40,"x_max":318,"o":"m 154 526 l 40 590 q 122 642 86 613 q 169 711 157 672 q 102 742 128 717 q 75 806 75 767 q 108 877 75 849 q 189 906 141 906 q 259 885 230 906 q 303 830 288 864 q 318 756 318 796 q 273 626 318 687 q 154 526 227 565 z "},"(":{"ha":555,"x_min":101,"x_max":510,"o":"m 392 1047 l 510 961 q 377 794 430 878 q 297 624 324 711 q 271 442 271 537 q 331 175 271 300 q 510 -75 390 49 l 392 -164 q 172 121 242 -31 q 101 442 101 273 q 172 764 101 612 q 392 1047 242 916 z "},")":{"ha":555,"x_min":44,"x_max":454,"o":"m 164 -164 l 44 -75 q 225 175 165 49 q 285 442 285 300 q 258 624 285 537 q 178 794 231 711 q 44 961 124 878 l 164 1047 q 383 764 312 916 q 454 442 454 612 q 423 224 454 329 q 327 22 392 119 q 164 -164 263 -76 z "},"+":{"ha":755,"x_min":25,"x_max":731,"o":"m 296 682 l 460 682 l 460 413 l 731 413 l 731 269 l 460 269 l 460 0 l 296 0 l 296 269 l 25 269 l 25 413 l 296 413 l 296 682 z "},"−":{"ha":755,"x_min":25,"x_max":731,"o":"m 25 414 l 731 414 l 731 271 l 25 271 l 25 414 z "},"=":{"ha":703,"x_min":110,"x_max":593,"o":"m 110 275 l 593 275 l 593 133 l 110 133 l 110 275 m 110 567 l 593 567 l 593 425 l 110 425 l 110 567 z "},"$":{"ha":957,"x_min":90,"x_max":867,"o":"m 492 -19 q 339 -1 412 -19 q 211 53 267 17 q 123 147 155 90 q 90 282 90 204 l 251 282 q 281 194 251 228 q 365 146 310 161 q 500 131 421 131 q 603 146 563 131 q 663 187 644 161 q 682 244 682 213 q 656 313 682 284 q 581 360 630 342 l 482 397 l 482 539 l 660 476 q 815 385 764 440 q 867 240 867 329 q 827 116 867 175 q 704 18 787 56 q 492 -19 621 -19 m 421 -140 l 421 1024 l 538 1024 l 538 -140 l 421 -140 m 453 394 l 351 429 q 172 524 235 469 q 108 674 108 578 q 202 851 108 783 q 474 919 295 919 q 726 848 640 919 q 833 653 813 776 l 671 653 q 610 743 660 706 q 471 779 560 779 q 333 748 379 779 q 286 668 286 717 q 309 609 286 632 q 379 569 331 587 l 453 539 l 453 394 z "},"?":{"ha":718,"x_min":33,"x_max":674,"o":"m 243 269 l 243 325 q 257 424 243 385 q 302 490 272 463 q 382 542 332 517 q 450 583 426 564 q 484 622 474 602 q 493 669 493 642 q 458 742 493 713 q 361 771 422 771 q 249 739 288 771 q 204 653 210 706 l 33 653 q 123 847 41 774 q 354 919 204 919 q 524 886 453 919 q 635 796 596 853 q 674 668 674 739 q 637 546 674 596 q 524 457 601 496 q 453 414 478 434 q 417 370 428 394 q 407 310 407 346 l 407 269 l 243 269 m 329 -19 q 247 12 278 -19 q 215 88 215 43 q 247 167 215 135 q 328 199 278 199 q 413 167 379 199 q 446 89 446 135 q 413 12 446 43 q 329 -19 379 -19 z "},"£":{"ha":835,"x_min":31,"x_max":785,"o":"m 75 100 l 75 147 q 147 177 126 147 q 168 268 168 207 l 168 617 q 203 784 168 717 q 302 885 239 851 q 451 919 366 919 q 634 858 566 919 q 718 676 701 797 l 557 676 q 523 747 551 722 q 451 771 494 771 q 365 733 397 771 q 332 617 332 696 l 332 279 q 276 144 332 188 q 75 100 221 100 m 31 0 l 31 147 l 471 147 q 570 174 540 147 q 607 256 600 201 l 785 256 q 711 67 782 135 q 472 0 641 0 l 31 0 m 53 390 l 53 500 l 569 500 l 569 390 l 53 390 z "},"`":{"ha":500,"x_min":65,"x_max":435,"o":"m 356 776 l 65 1010 l 174 1099 l 434 840 l 356 776 z "},"´":{"ha":500,"x_min":65,"x_max":435,"o":"m 144 776 l 65 840 l 325 1099 l 435 1010 l 144 776 z "},"à":{"ha":813,"x_min":76,"x_max":701,"o":"m 558 0 l 538 164 l 538 435 q 509 540 538 506 q 411 574 480 574 q 342 562 372 574 q 298 528 313 550 q 282 475 282 506 l 103 475 q 140 600 103 551 q 245 670 176 648 q 411 693 315 693 q 564 665 499 693 q 665 578 629 637 q 701 429 701 520 l 701 0 l 558 0 m 338 -19 q 193 11 251 -19 q 106 90 135 41 q 76 197 76 140 q 110 305 76 261 q 206 370 144 348 q 351 392 267 392 q 455 383 406 392 q 553 361 504 375 l 553 265 q 469 285 515 278 q 385 292 424 292 q 289 270 326 292 q 251 197 251 249 q 282 133 251 160 q 379 106 313 106 q 465 128 430 106 q 519 183 501 150 q 538 250 538 217 l 576 250 q 549 116 576 177 q 469 17 522 54 q 338 -19 416 -19 m 510 776 l 220 1010 l 329 1099 l 589 840 l 510 776 z "},"è":{"ha":736,"x_min":65,"x_max":675,"o":"m 381 -19 q 223 25 294 -19 q 108 150 151 69 q 65 338 65 230 q 108 528 65 449 q 222 651 151 608 q 381 693 294 693 q 520 661 461 693 q 614 573 578 628 q 663 449 650 518 q 664 306 675 379 l 196 306 l 196 394 l 548 394 l 516 374 q 513 440 518 406 q 493 501 508 473 q 452 545 478 528 q 383 563 425 563 q 299 538 333 563 q 246 469 264 513 q 228 372 228 426 l 228 307 q 245 206 228 250 q 295 138 262 163 q 381 113 329 113 q 461 135 428 113 q 503 201 494 157 l 668 201 q 619 86 658 136 q 519 9 581 37 q 381 -19 458 -19 m 473 776 l 183 1010 l 292 1099 l 551 840 l 473 776 z "},"ò":{"ha":786,"x_min":65,"x_max":721,"o":"m 394 -19 q 227 20 302 -19 q 109 139 153 60 q 65 336 65 217 q 109 536 65 457 q 227 654 153 615 q 394 693 302 693 q 559 654 485 693 q 677 536 633 615 q 721 336 721 457 q 677 139 721 217 q 559 20 633 60 q 394 -19 485 -19 m 389 124 q 475 148 438 124 q 535 219 513 172 q 557 336 557 266 q 515 497 557 443 q 400 551 473 551 q 313 527 351 551 q 252 456 274 503 q 231 336 231 408 q 273 177 231 231 q 389 124 316 124 m 498 776 l 208 1010 l 317 1099 l 576 840 l 498 776 z "},"À":{"ha":869,"x_min":31,"x_max":838,"o":"m 31 0 l 338 901 l 543 901 l 838 0 l 665 0 l 603 194 l 268 194 l 204 0 l 31 0 m 310 318 l 564 318 l 438 706 l 310 318 m 548 1002 l 258 1236 l 367 1325 l 626 1066 l 548 1002 z "},"È":{"ha":815,"x_min":128,"x_max":707,"o":"m 128 0 l 128 901 l 707 901 l 707 760 l 292 760 l 292 522 l 682 522 l 682 381 l 292 381 l 292 143 l 707 143 l 707 0 l 128 0 m 512 1002 l 222 1236 l 331 1325 l 590 1066 l 512 1002 z "},"ù":{"ha":871,"x_min":115,"x_max":742,"o":"m 578 676 l 742 676 l 742 0 l 578 0 l 578 676 m 115 676 l 279 676 l 279 263 q 312 164 279 197 q 401 131 344 131 q 490 156 450 131 q 554 231 530 181 q 578 354 578 281 l 622 354 q 590 149 622 231 q 502 28 558 68 q 372 -12 446 -12 q 242 13 300 -12 q 149 96 183 39 q 115 246 115 153 l 115 676 m 551 776 l 261 1010 l 370 1099 l 630 840 l 551 776 z "},"á":{"ha":813,"x_min":76,"x_max":701,"o":"m 558 0 l 538 164 l 538 435 q 509 540 538 506 q 411 574 480 574 q 342 562 372 574 q 298 528 313 550 q 282 475 282 506 l 103 475 q 140 600 103 551 q 245 670 176 648 q 411 693 315 693 q 564 665 499 693 q 665 578 629 637 q 701 429 701 520 l 701 0 l 558 0 m 338 -19 q 193 11 251 -19 q 106 90 135 41 q 76 197 76 140 q 110 305 76 261 q 206 370 144 348 q 351 392 267 392 q 455 383 406 392 q 553 361 504 375 l 553 265 q 469 285 515 278 q 385 292 424 292 q 289 270 326 292 q 251 197 251 249 q 282 133 251 160 q 379 106 313 106 q 465 128 430 106 q 519 183 501 150 q 538 250 538 217 l 576 250 q 549 116 576 177 q 469 17 522 54 q 338 -19 416 -19 m 361 774 l 283 838 l 542 1097 l 652 1008 l 361 774 z "},"é":{"ha":736,"x_min":65,"x_max":675,"o":"m 381 -19 q 223 25 294 -19 q 108 150 151 69 q 65 338 65 230 q 108 528 65 449 q 222 651 151 608 q 381 693 294 693 q 520 661 461 693 q 614 573 578 628 q 663 449 650 518 q 664 306 675 379 l 196 306 l 196 394 l 548 394 l 516 374 q 513 440 518 406 q 493 501 508 473 q 452 545 478 528 q 383 563 425 563 q 299 538 333 563 q 246 469 264 513 q 228 372 228 426 l 228 307 q 245 206 228 250 q 295 138 262 163 q 381 113 329 113 q 461 135 428 113 q 503 201 494 157 l 668 201 q 619 86 658 136 q 519 9 581 37 q 381 -19 458 -19 m 324 774 l 245 838 l 505 1097 l 615 1008 l 324 774 z "},"ó":{"ha":786,"x_min":65,"x_max":721,"o":"m 394 -19 q 227 20 302 -19 q 109 139 153 60 q 65 336 65 217 q 109 536 65 457 q 227 654 153 615 q 394 693 302 693 q 559 654 485 693 q 677 536 633 615 q 721 336 721 457 q 677 139 721 217 q 559 20 633 60 q 394 -19 485 -19 m 389 124 q 475 148 438 124 q 535 219 513 172 q 557 336 557 266 q 515 497 557 443 q 400 551 473 551 q 313 527 351 551 q 252 456 274 503 q 231 336 231 408 q 273 177 231 231 q 389 124 316 124 m 349 774 l 270 838 l 530 1097 l 640 1008 l 349 774 z "},"ú":{"ha":871,"x_min":115,"x_max":742,"o":"m 578 676 l 742 676 l 742 0 l 578 0 l 578 676 m 115 676 l 279 676 l 279 263 q 312 164 279 197 q 401 131 344 131 q 490 156 450 131 q 554 231 530 181 q 578 354 578 281 l 622 354 q 590 149 622 231 q 502 28 558 68 q 372 -12 446 -12 q 242 13 300 -12 q 149 96 183 39 q 115 246 115 153 l 115 676 m 401 774 l 323 838 l 583 1097 l 692 1008 l 401 774 z "},"Á":{"ha":869,"x_min":31,"x_max":838,"o":"m 31 0 l 338 901 l 543 901 l 838 0 l 665 0 l 603 194 l 268 194 l 204 0 l 31 0 m 310 318 l 564 318 l 438 706 l 310 318 m 398 1000 l 319 1064 l 579 1323 l 689 1234 l 398 1000 z "},"É":{"ha":815,"x_min":128,"x_max":707,"o":"m 128 0 l 128 901 l 707 901 l 707 760 l 292 760 l 292 522 l 682 522 l 682 381 l 292 381 l 292 143 l 707 143 l 707 0 l 128 0 m 363 1000 l 284 1064 l 544 1323 l 653 1234 l 363 1000 z "},"Ì":{"ha":423,"x_min":26,"x_max":394,"o":"m 129 0 l 129 901 l 293 901 l 293 0 l 129 0 m 316 1002 l 26 1236 l 135 1325 l 394 1066 l 316 1002 z "},"Í":{"ha":423,"x_min":88,"x_max":457,"o":"m 129 0 l 129 901 l 293 901 l 293 0 l 129 0 m 167 1000 l 88 1064 l 348 1323 l 458 1234 l 167 1000 z "},"Ò":{"ha":948,"x_min":65,"x_max":883,"o":"m 474 -19 q 261 33 353 -19 q 117 191 169 86 q 65 451 65 296 q 117 714 65 610 q 261 868 169 817 q 474 919 353 919 q 687 867 594 919 q 831 710 779 815 q 883 451 883 606 q 831 189 883 294 q 687 32 779 84 q 474 -19 594 -19 m 474 129 q 649 213 584 129 q 714 453 714 296 q 649 688 714 604 q 474 772 584 772 q 300 688 365 772 q 235 451 235 603 q 300 212 235 295 q 474 129 365 129 m 581 1002 l 291 1236 l 400 1325 l 660 1066 l 581 1002 z "},"Ó":{"ha":948,"x_min":65,"x_max":883,"o":"m 474 -19 q 261 33 353 -19 q 117 191 169 86 q 65 451 65 296 q 117 714 65 610 q 261 868 169 817 q 474 919 353 919 q 687 867 594 919 q 831 710 779 815 q 883 451 883 606 q 831 189 883 294 q 687 32 779 84 q 474 -19 594 -19 m 474 129 q 649 213 584 129 q 714 453 714 296 q 649 688 714 604 q 474 772 584 772 q 300 688 365 772 q 235 451 235 603 q 300 212 235 295 q 474 129 365 129 m 432 1000 l 353 1064 l 613 1323 l 723 1234 l 432 1000 z "},"Ù":{"ha":958,"x_min":115,"x_max":846,"o":"m 115 901 l 279 901 l 279 340 q 336 180 279 229 q 481 131 392 131 q 626 180 569 131 q 682 340 682 229 l 682 901 l 846 901 l 846 340 q 802 146 846 226 q 677 23 758 65 q 481 -19 595 -19 q 284 23 366 -19 q 159 146 203 65 q 115 340 115 226 l 115 901 m 584 1002 l 294 1236 l 403 1325 l 663 1066 l 584 1002 z "},"Ú":{"ha":958,"x_min":115,"x_max":846,"o":"m 115 901 l 279 901 l 279 340 q 336 180 279 229 q 481 131 392 131 q 626 180 569 131 q 682 340 682 229 l 682 901 l 846 901 l 846 340 q 802 146 846 226 q 677 23 758 65 q 481 -19 595 -19 q 284 23 366 -19 q 159 146 203 65 q 115 340 115 226 l 115 901 m 434 1000 l 356 1064 l 615 1323 l 725 1234 l 434 1000 z "},"ˆ":{"ha":626,"x_min":65,"x_max":560,"o":"m 162 770 l 65 847 l 313 1058 l 560 847 l 464 770 l 283 933 l 341 933 l 162 770 z "},"â":{"ha":813,"x_min":76,"x_max":701,"o":"m 558 0 l 538 164 l 538 435 q 509 540 538 506 q 411 574 480 574 q 342 562 372 574 q 298 528 313 550 q 282 475 282 506 l 103 475 q 140 600 103 551 q 245 670 176 648 q 411 693 315 693 q 564 665 499 693 q 665 578 629 637 q 701 429 701 520 l 701 0 l 558 0 m 338 -19 q 193 11 251 -19 q 106 90 135 41 q 76 197 76 140 q 110 305 76 261 q 206 370 144 348 q 351 392 267 392 q 455 383 406 392 q 553 361 504 375 l 553 265 q 469 285 515 278 q 385 292 424 292 q 289 270 326 292 q 251 197 251 249 q 282 133 251 160 q 379 106 313 106 q 465 128 430 106 q 519 183 501 150 q 538 250 538 217 l 576 250 q 549 116 576 177 q 469 17 522 54 q 338 -19 416 -19 m 255 765 l 158 841 l 406 1053 l 653 841 l 557 765 l 376 927 l 434 927 l 255 765 z "},"ê":{"ha":736,"x_min":65,"x_max":675,"o":"m 381 -19 q 223 25 294 -19 q 108 150 151 69 q 65 338 65 230 q 108 528 65 449 q 222 651 151 608 q 381 693 294 693 q 520 661 461 693 q 614 573 578 628 q 663 449 650 518 q 664 306 675 379 l 196 306 l 196 394 l 548 394 l 516 374 q 513 440 518 406 q 493 501 508 473 q 452 545 478 528 q 383 563 425 563 q 299 538 333 563 q 246 469 264 513 q 228 372 228 426 l 228 307 q 245 206 228 250 q 295 138 262 163 q 381 113 329 113 q 461 135 428 113 q 503 201 494 157 l 668 201 q 619 86 658 136 q 519 9 581 37 q 381 -19 458 -19 m 217 765 l 121 841 l 368 1053 l 616 841 l 519 765 l 339 927 l 397 927 l 217 765 z "},"ô":{"ha":786,"x_min":65,"x_max":721,"o":"m 394 -19 q 227 20 302 -19 q 109 139 153 60 q 65 336 65 217 q 109 536 65 457 q 227 654 153 615 q 394 693 302 693 q 559 654 485 693 q 677 536 633 615 q 721 336 721 457 q 677 139 721 217 q 559 20 633 60 q 394 -19 485 -19 m 389 124 q 475 148 438 124 q 535 219 513 172 q 557 336 557 266 q 515 497 557 443 q 400 551 473 551 q 313 527 351 551 q 252 456 274 503 q 231 336 231 408 q 273 177 231 231 q 389 124 316 124 m 242 765 l 146 841 l 393 1053 l 641 841 l 544 765 l 364 927 l 422 927 l 242 765 z "},"û":{"ha":871,"x_min":115,"x_max":742,"o":"m 578 676 l 742 676 l 742 0 l 578 0 l 578 676 m 115 676 l 279 676 l 279 263 q 312 164 279 197 q 401 131 344 131 q 490 156 450 131 q 554 231 530 181 q 578 354 578 281 l 622 354 q 590 149 622 231 q 502 28 558 68 q 372 -12 446 -12 q 242 13 300 -12 q 149 96 183 39 q 115 246 115 153 l 115 676 m 295 765 l 199 841 l 446 1053 l 694 841 l 597 765 l 417 927 l 474 927 l 295 765 z "},"Â":{"ha":869,"x_min":31,"x_max":838,"o":"m 31 0 l 338 901 l 543 901 l 838 0 l 665 0 l 603 194 l 268 194 l 204 0 l 31 0 m 310 318 l 564 318 l 438 706 l 310 318 m 292 991 l 195 1067 l 442 1279 l 690 1067 l 594 991 l 413 1153 l 471 1153 l 292 991 z "},"Ê":{"ha":815,"x_min":128,"x_max":707,"o":"m 128 0 l 128 901 l 707 901 l 707 760 l 292 760 l 292 522 l 682 522 l 682 381 l 292 381 l 292 143 l 707 143 l 707 0 l 128 0 m 256 991 l 160 1067 l 407 1279 l 655 1067 l 558 991 l 378 1153 l 435 1153 l 256 991 z "},"Î":{"ha":423,"x_min":-36,"x_max":459,"o":"m 129 0 l 129 901 l 293 901 l 293 0 l 129 0 m 60 991 l -36 1067 l 211 1279 l 459 1067 l 363 991 l 182 1153 l 240 1153 l 60 991 z "},"Ô":{"ha":948,"x_min":65,"x_max":883,"o":"m 474 -19 q 261 33 353 -19 q 117 191 169 86 q 65 451 65 296 q 117 714 65 610 q 261 868 169 817 q 474 919 353 919 q 687 867 594 919 q 831 710 779 815 q 883 451 883 606 q 831 189 883 294 q 687 32 779 84 q 474 -19 594 -19 m 474 129 q 649 213 584 129 q 714 453 714 296 q 649 688 714 604 q 474 772 584 772 q 300 688 365 772 q 235 451 235 603 q 300 212 235 295 q 474 129 365 129 m 326 991 l 229 1067 l 476 1279 l 724 1067 l 628 991 l 447 1153 l 505 1153 l 326 991 z "},"Û":{"ha":958,"x_min":115,"x_max":846,"o":"m 115 901 l 279 901 l 279 340 q 336 180 279 229 q 481 131 392 131 q 626 180 569 131 q 682 340 682 229 l 682 901 l 846 901 l 846 340 q 802 146 846 226 q 677 23 758 65 q 481 -19 595 -19 q 284 23 366 -19 q 159 146 203 65 q 115 340 115 226 l 115 901 m 328 991 l 231 1067 l 478 1279 l 726 1067 l 630 991 l 449 1153 l 507 1153 l 328 991 z "},"˜":{"ha":611,"x_min":65,"x_max":546,"o":"m 131 783 l 65 823 q 121 954 82 907 q 214 1001 160 1001 q 256 993 234 1001 q 315 966 278 985 q 368 940 351 948 q 403 933 386 933 q 442 949 423 933 q 476 1001 462 965 l 546 955 q 514 866 536 905 q 464 806 492 828 q 407 783 435 783 q 357 793 382 783 q 293 822 333 803 q 244 847 260 840 q 214 853 228 853 q 171 839 192 853 q 131 783 151 824 z "},"&":{"ha":1340,"x_min":128,"x_max":1265,"o":"m 1050 -19 q 924 10 983 -19 q 800 100 866 40 l 360 499 q 288 590 316 538 q 260 697 260 641 q 295 808 260 758 q 399 887 331 858 q 564 917 467 917 q 724 888 658 917 q 826 809 790 858 q 861 700 861 760 q 831 588 861 638 q 739 499 800 538 q 586 429 678 460 l 500 510 q 602 559 563 534 q 661 614 642 585 q 681 679 681 643 q 648 748 681 721 q 564 775 616 775 q 472 745 503 775 q 440 674 440 716 q 456 613 440 642 q 506 554 472 585 l 932 169 q 980 136 958 148 q 1033 125 1001 125 q 1091 149 1067 125 q 1117 228 1115 174 l 1265 228 q 1209 48 1263 115 q 1050 -19 1156 -19 m 500 -19 q 356 1 423 -19 q 237 60 288 22 q 157 148 185 97 q 128 257 128 198 q 215 419 128 364 q 457 488 302 475 l 510 399 q 356 356 403 390 q 308 267 308 322 q 331 198 308 228 q 397 148 354 167 q 501 129 440 129 q 645 160 579 129 q 767 246 711 191 q 869 376 823 301 q 950 539 915 451 l 1060 478 q 967 275 1022 367 q 841 118 912 184 q 684 16 770 52 q 500 -19 599 -19 z "},"@":{"ha":1426,"x_min":93,"x_max":1356,"o":"m 790 -301 q 504 -256 632 -301 q 284 -130 376 -211 q 142 61 192 -49 q 93 302 93 172 q 144 549 93 436 q 288 744 196 661 q 503 874 379 828 q 770 919 626 919 q 1012 880 904 919 q 1197 770 1120 841 q 1315 605 1274 699 q 1356 403 1356 511 q 1327 236 1356 309 q 1250 113 1299 163 q 1142 36 1202 63 q 1019 10 1082 10 q 913 34 956 10 q 858 101 871 59 l 850 124 q 786 43 826 76 q 678 10 746 10 q 560 43 614 10 q 474 135 506 76 q 442 272 442 194 q 468 403 442 342 q 541 511 494 465 q 648 584 588 558 q 776 611 708 611 q 923 556 869 611 q 976 390 976 501 l 976 208 q 989 154 976 170 q 1025 138 1001 138 q 1096 166 1057 138 q 1163 253 1135 194 q 1190 400 1190 311 q 1142 592 1190 508 q 1002 724 1094 676 q 777 772 910 772 q 567 735 662 772 q 402 631 472 698 q 296 475 333 565 q 258 281 258 386 q 320 49 258 150 q 501 -110 382 -53 q 790 -168 619 -168 l 790 -301 m 706 142 q 786 170 755 142 q 846 250 818 198 l 846 389 q 830 458 846 432 q 772 485 814 485 q 688 458 731 485 q 617 384 646 432 q 589 274 589 337 q 623 174 589 207 q 706 142 656 142 z "},"¨":{"ha":593,"x_min":65,"x_max":528,"o":"m 429 793 q 360 819 389 793 q 332 885 332 846 q 360 952 332 925 q 429 978 389 978 q 500 952 472 978 q 528 885 528 925 q 500 819 528 846 q 429 793 472 793 m 163 793 q 93 819 120 793 q 65 884 65 846 q 93 951 65 925 q 163 977 120 977 q 233 951 206 977 q 261 884 261 925 q 233 819 261 846 q 163 793 206 793 z "},"ä":{"ha":813,"x_min":76,"x_max":701,"o":"m 558 0 l 538 164 l 538 435 q 509 540 538 506 q 411 574 480 574 q 342 562 372 574 q 298 528 313 550 q 282 475 282 506 l 103 475 q 140 600 103 551 q 245 670 176 648 q 411 693 315 693 q 564 665 499 693 q 665 578 629 637 q 701 429 701 520 l 701 0 l 558 0 m 338 -19 q 193 11 251 -19 q 106 90 135 41 q 76 197 76 140 q 110 305 76 261 q 206 370 144 348 q 351 392 267 392 q 455 383 406 392 q 553 361 504 375 l 553 265 q 469 285 515 278 q 385 292 424 292 q 289 270 326 292 q 251 197 251 249 q 282 133 251 160 q 379 106 313 106 q 465 128 430 106 q 519 183 501 150 q 538 250 538 217 l 576 250 q 549 116 576 177 q 469 17 522 54 q 338 -19 416 -19 m 538 793 q 469 819 498 793 q 441 885 441 846 q 469 952 441 925 q 538 978 498 978 q 609 952 581 978 q 637 885 637 925 q 609 819 637 846 q 538 793 581 793 m 272 793 q 202 819 229 793 q 174 884 174 846 q 202 951 174 925 q 272 977 229 977 q 342 951 315 977 q 370 884 370 925 q 342 819 370 846 q 272 793 315 793 z "},"ë":{"ha":736,"x_min":65,"x_max":675,"o":"m 381 -19 q 223 25 294 -19 q 108 150 151 69 q 65 338 65 230 q 108 528 65 449 q 222 651 151 608 q 381 693 294 693 q 520 661 461 693 q 614 573 578 628 q 663 449 650 518 q 664 306 675 379 l 196 306 l 196 394 l 548 394 l 516 374 q 513 440 518 406 q 493 501 508 473 q 452 545 478 528 q 383 563 425 563 q 299 538 333 563 q 246 469 264 513 q 228 372 228 426 l 228 307 q 245 206 228 250 q 295 138 262 163 q 381 113 329 113 q 461 135 428 113 q 503 201 494 157 l 668 201 q 619 86 658 136 q 519 9 581 37 q 381 -19 458 -19 m 501 793 q 432 819 460 793 q 403 885 403 846 q 432 952 403 925 q 501 978 460 978 q 572 952 544 978 q 599 885 599 925 q 572 819 599 846 q 501 793 544 793 m 234 793 q 164 819 192 793 q 137 884 137 846 q 164 951 137 925 q 234 977 192 977 q 305 951 277 977 q 333 884 333 925 q 305 819 333 846 q 234 793 277 793 z "},"ö":{"ha":786,"x_min":65,"x_max":721,"o":"m 394 -19 q 227 20 302 -19 q 109 139 153 60 q 65 336 65 217 q 109 536 65 457 q 227 654 153 615 q 394 693 302 693 q 559 654 485 693 q 677 536 633 615 q 721 336 721 457 q 677 139 721 217 q 559 20 633 60 q 394 -19 485 -19 m 389 124 q 475 148 438 124 q 535 219 513 172 q 557 336 557 266 q 515 497 557 443 q 400 551 473 551 q 313 527 351 551 q 252 456 274 503 q 231 336 231 408 q 273 177 231 231 q 389 124 316 124 m 526 793 q 457 819 485 793 q 428 885 428 846 q 457 952 428 925 q 526 978 485 978 q 597 952 569 978 q 624 885 624 925 q 597 819 624 846 q 526 793 569 793 m 259 793 q 189 819 217 793 q 162 884 162 846 q 189 951 162 925 q 259 977 217 977 q 330 951 302 977 q 358 884 358 925 q 330 819 358 846 q 259 793 302 793 z "},"ü":{"ha":871,"x_min":115,"x_max":742,"o":"m 578 676 l 742 676 l 742 0 l 578 0 l 578 676 m 115 676 l 279 676 l 279 263 q 312 164 279 197 q 401 131 344 131 q 490 156 450 131 q 554 231 530 181 q 578 354 578 281 l 622 354 q 590 149 622 231 q 502 28 558 68 q 372 -12 446 -12 q 242 13 300 -12 q 149 96 183 39 q 115 246 115 153 l 115 676 m 579 793 q 510 819 539 793 q 482 885 482 846 q 510 952 482 925 q 579 978 539 978 q 650 952 622 978 q 678 885 678 925 q 650 819 678 846 q 579 793 622 793 m 313 793 q 243 819 270 793 q 215 884 215 846 q 243 951 215 925 q 313 977 270 977 q 383 951 356 977 q 411 884 411 925 q 383 819 411 846 q 313 793 356 793 z "},"Ä":{"ha":869,"x_min":31,"x_max":838,"o":"m 31 0 l 338 901 l 543 901 l 838 0 l 665 0 l 603 194 l 268 194 l 204 0 l 31 0 m 310 318 l 564 318 l 438 706 l 310 318 m 576 1019 q 507 1046 535 1019 q 478 1112 478 1072 q 507 1178 478 1151 q 576 1205 535 1205 q 647 1178 619 1205 q 674 1112 674 1151 q 647 1046 674 1072 q 576 1019 619 1019 m 309 1019 q 239 1046 267 1019 q 212 1110 212 1072 q 239 1177 212 1151 q 309 1203 267 1203 q 380 1177 352 1203 q 408 1110 408 1151 q 380 1046 408 1072 q 309 1019 352 1019 z "},"Ë":{"ha":815,"x_min":128,"x_max":707,"o":"m 128 0 l 128 901 l 707 901 l 707 760 l 292 760 l 292 522 l 682 522 l 682 381 l 292 381 l 292 143 l 707 143 l 707 0 l 128 0 m 540 1019 q 471 1046 499 1019 q 442 1112 442 1072 q 471 1178 442 1151 q 540 1205 499 1205 q 610 1178 583 1205 q 638 1112 638 1151 q 610 1046 638 1072 q 540 1019 583 1019 m 273 1019 q 203 1046 231 1019 q 176 1110 176 1072 q 203 1177 176 1151 q 273 1203 231 1203 q 344 1177 316 1203 q 372 1110 372 1151 q 344 1046 372 1072 q 273 1019 316 1019 z "},"Ï":{"ha":423,"x_min":-20,"x_max":442,"o":"m 129 0 l 129 901 l 293 901 l 293 0 l 129 0 m 344 1019 q 275 1046 303 1019 q 247 1112 247 1072 q 275 1178 247 1151 q 344 1205 303 1205 q 415 1178 387 1205 q 442 1112 442 1151 q 415 1046 442 1072 q 344 1019 387 1019 m 77 1019 q 7 1046 35 1019 q -20 1110 -20 1072 q 7 1177 -20 1151 q 77 1203 35 1203 q 148 1177 120 1203 q 176 1110 176 1151 q 148 1046 176 1072 q 77 1019 120 1019 z "},"Ö":{"ha":948,"x_min":65,"x_max":883,"o":"m 474 -19 q 261 33 353 -19 q 117 191 169 86 q 65 451 65 296 q 117 714 65 610 q 261 868 169 817 q 474 919 353 919 q 687 867 594 919 q 831 710 779 815 q 883 451 883 606 q 831 189 883 294 q 687 32 779 84 q 474 -19 594 -19 m 474 129 q 649 213 584 129 q 714 453 714 296 q 649 688 714 604 q 474 772 584 772 q 300 688 365 772 q 235 451 235 603 q 300 212 235 295 q 474 129 365 129 m 609 1019 q 540 1046 569 1019 q 512 1112 512 1072 q 540 1178 512 1151 q 609 1205 569 1205 q 680 1178 652 1205 q 708 1112 708 1151 q 680 1046 708 1072 q 609 1019 652 1019 m 342 1019 q 273 1046 300 1019 q 245 1110 245 1072 q 273 1177 245 1151 q 342 1203 300 1203 q 413 1177 385 1203 q 441 1110 441 1151 q 413 1046 441 1072 q 342 1019 385 1019 z "},"Ü":{"ha":958,"x_min":115,"x_max":846,"o":"m 115 901 l 279 901 l 279 340 q 336 180 279 229 q 481 131 392 131 q 626 180 569 131 q 682 340 682 229 l 682 901 l 846 901 l 846 340 q 802 146 846 226 q 677 23 758 65 q 481 -19 595 -19 q 284 23 366 -19 q 159 146 203 65 q 115 340 115 226 l 115 901 m 612 1019 q 543 1046 572 1019 q 515 1112 515 1072 q 543 1178 515 1151 q 612 1205 572 1205 q 683 1178 655 1205 q 710 1112 710 1151 q 683 1046 710 1072 q 612 1019 655 1019 m 345 1019 q 275 1046 303 1019 q 248 1110 248 1072 q 275 1177 248 1151 q 345 1203 303 1203 q 416 1177 388 1203 q 444 1110 444 1151 q 416 1046 444 1072 q 345 1019 388 1019 z "},"ì":{"ha":456,"x_min":39,"x_max":408,"o":"m 143 0 l 143 676 l 307 676 l 307 0 l 143 0 m 329 776 l 39 1010 l 148 1099 l 408 840 l 329 776 z "},"í":{"ha":456,"x_min":101,"x_max":470,"o":"m 143 0 l 143 676 l 307 676 l 307 0 l 143 0 m 180 774 l 101 838 l 361 1097 l 471 1008 l 180 774 z "},"î":{"ha":456,"x_min":-23,"x_max":472,"o":"m 143 0 l 143 676 l 307 676 l 307 0 l 143 0 m 74 765 l -23 841 l 224 1053 l 472 841 l 376 765 l 195 927 l 253 927 l 74 765 z "},"ï":{"ha":456,"x_min":-6,"x_max":456,"o":"m 143 0 l 143 676 l 307 676 l 307 0 l 143 0 m 357 793 q 288 819 317 793 q 260 885 260 846 q 288 952 260 925 q 357 978 317 978 q 428 952 400 978 q 456 885 456 925 q 428 819 456 846 q 357 793 400 793 m 90 793 q 20 819 48 793 q -7 884 -7 846 q 20 951 -7 925 q 90 977 48 977 q 161 951 133 977 q 189 884 189 925 q 161 819 189 846 q 90 793 133 793 z "},"<":{"ha":697,"x_min":63,"x_max":635,"o":"m 526 857 l 635 732 l 181 413 l 181 482 l 635 164 l 526 39 l 63 374 l 63 521 l 526 857 z "},">":{"ha":697,"x_min":63,"x_max":635,"o":"m 171 39 l 63 164 l 515 482 l 515 413 l 63 732 l 171 857 l 635 521 l 635 374 l 171 39 z "},"\"":{"ha":531,"x_min":44,"x_max":488,"o":"m 344 622 l 324 953 l 488 953 l 465 622 l 344 622 m 65 622 l 44 953 l 208 953 l 186 622 l 65 622 z "},"#":{"ha":942,"x_min":79,"x_max":879,"o":"m 188 46 l 207 228 l 79 228 l 89 335 l 218 335 l 242 554 l 113 554 l 124 661 l 253 661 l 272 842 l 426 842 l 407 661 l 596 661 l 615 842 l 768 842 l 750 661 l 879 661 l 868 554 l 738 554 l 715 335 l 846 335 l 835 228 l 704 228 l 685 46 l 531 46 l 550 228 l 361 228 l 342 46 l 188 46 m 372 335 l 561 335 l 585 554 l 396 554 l 372 335 z "},"*":{"ha":568,"x_min":69,"x_max":506,"o":"m 104 621 l 224 733 l 69 785 l 111 882 l 249 813 l 232 978 l 343 978 l 326 813 l 464 885 l 506 786 l 354 735 l 474 621 l 392 550 l 289 690 l 183 550 l 104 621 z "},"/":{"ha":655,"x_min":74,"x_max":599,"o":"m 74 -111 l 431 1035 l 599 1035 l 239 -111 l 74 -111 z "},"%":{"ha":1062,"x_min":85,"x_max":990,"o":"m 147 0 l 758 901 l 924 901 l 314 0 l 147 0 m 799 -15 q 706 8 749 -15 q 636 78 663 31 q 610 196 610 125 q 636 314 610 267 q 706 384 663 360 q 799 407 749 407 q 894 384 850 407 q 964 314 938 360 q 990 196 990 267 q 964 78 990 125 q 894 8 938 31 q 799 -15 850 -15 m 799 90 q 848 114 829 90 q 867 196 867 138 q 848 278 867 253 q 799 303 829 303 q 750 278 769 303 q 732 196 732 253 q 750 114 732 138 q 799 90 769 90 m 274 499 q 181 522 224 499 q 111 592 138 545 q 85 710 85 639 q 111 826 85 780 q 181 896 138 873 q 274 919 224 919 q 369 896 325 919 q 439 826 413 873 q 465 710 465 780 q 439 592 465 639 q 369 522 413 545 q 274 499 325 499 m 274 603 q 323 627 303 603 q 342 710 342 651 q 323 791 342 767 q 274 815 303 815 q 225 791 244 815 q 207 710 207 767 q 225 627 207 651 q 274 603 244 603 z "},"\\":{"ha":655,"x_min":57,"x_max":582,"o":"m 57 1035 l 414 -111 l 582 -111 l 222 1035 l 57 1035 z "},"|":{"ha":423,"x_min":129,"x_max":293,"o":"m 129 -169 l 129 1069 l 293 1069 l 293 -169 l 129 -169 z "},"[":{"ha":489,"x_min":129,"x_max":472,"o":"m 129 -196 l 129 1097 l 472 1097 l 472 949 l 293 949 l 293 -47 l 472 -47 l 472 -196 l 129 -196 z "},"]":{"ha":466,"x_min":-6,"x_max":338,"o":"m 338 -196 l 338 1097 l -6 1097 l -6 949 l 174 949 l 174 -47 l -6 -47 l -6 -196 l 338 -196 z "},"^":{"ha":732,"x_min":28,"x_max":710,"o":"m 28 303 l 303 838 l 435 838 l 710 303 l 529 303 l 338 713 l 400 713 l 208 303 l 28 303 z "},"_":{"ha":1067,"x_min":76,"x_max":992,"o":"m 76 0 l 76 143 l 992 143 l 992 0 l 76 0 z "},"{":{"ha":543,"x_min":99,"x_max":538,"o":"m 538 -217 q 332 -172 411 -217 q 216 -48 253 -126 q 179 133 179 31 l 179 260 q 170 339 179 317 q 133 361 160 361 l 99 361 l 99 526 l 133 526 q 170 548 160 526 q 179 628 179 569 l 179 756 q 216 936 179 858 q 332 1058 253 1014 q 538 1103 411 1103 l 538 956 q 389 906 435 956 q 342 753 342 857 l 342 619 q 316 510 342 553 q 250 447 290 467 l 250 440 q 316 377 290 420 q 342 268 342 335 l 342 135 q 389 -19 342 31 q 538 -68 435 -68 l 538 -217 z "},"}":{"ha":543,"x_min":6,"x_max":444,"o":"m 6 -217 q 211 -172 132 -217 q 327 -48 290 -126 q 364 133 364 31 l 364 260 q 373 339 364 317 q 410 361 383 361 l 444 361 l 444 526 l 410 526 q 373 548 383 526 q 364 628 364 569 l 364 756 q 327 936 364 858 q 211 1058 290 1014 q 6 1103 132 1103 l 6 956 q 155 906 108 956 q 201 753 201 857 l 201 619 q 227 510 201 553 q 293 447 253 467 l 293 440 q 227 377 253 420 q 201 268 201 335 l 201 135 q 155 -19 201 31 q 6 -68 108 -68 l 6 -217 z "},"~":{"ha":791,"x_min":79,"x_max":711,"o":"m 167 283 l 79 331 q 146 473 103 420 q 257 525 188 525 q 322 515 288 525 q 407 486 356 506 q 485 458 458 466 q 533 450 513 450 q 584 469 560 450 q 624 526 607 489 l 711 471 q 634 339 683 383 q 521 294 585 294 q 464 303 498 294 q 379 333 430 313 q 303 359 328 351 q 256 368 277 368 q 206 349 228 368 q 167 283 184 329 z "},"ã":{"ha":813,"x_min":76,"x_max":701,"o":"m 558 0 l 538 164 l 538 435 q 509 540 538 506 q 411 574 480 574 q 342 562 372 574 q 298 528 313 550 q 282 475 282 506 l 103 475 q 140 600 103 551 q 245 670 176 648 q 411 693 315 693 q 564 665 499 693 q 665 578 629 637 q 701 429 701 520 l 701 0 l 558 0 m 338 -19 q 193 11 251 -19 q 106 90 135 41 q 76 197 76 140 q 110 305 76 261 q 206 370 144 348 q 351 392 267 392 q 455 383 406 392 q 553 361 504 375 l 553 265 q 469 285 515 278 q 385 292 424 292 q 289 270 326 292 q 251 197 251 249 q 282 133 251 160 q 379 106 313 106 q 465 128 430 106 q 519 183 501 150 q 538 250 538 217 l 576 250 q 549 116 576 177 q 469 17 522 54 q 338 -19 416 -19 m 231 780 l 165 819 q 221 950 182 903 q 314 997 260 997 q 356 990 334 997 q 415 963 378 982 q 468 937 451 944 q 503 929 486 929 q 542 945 523 929 q 576 997 562 962 l 646 951 q 614 863 636 901 q 564 802 592 824 q 507 780 535 780 q 457 790 482 780 q 393 819 433 799 q 344 843 360 837 q 314 849 328 849 q 271 835 292 849 q 231 780 251 821 z "},"ñ":{"ha":865,"x_min":129,"x_max":756,"o":"m 592 0 l 592 394 q 556 508 592 469 q 461 546 519 546 q 374 519 412 546 q 315 437 336 492 q 293 301 293 383 l 239 301 q 272 520 239 433 q 364 650 304 607 q 504 693 424 693 q 643 656 588 693 q 727 551 699 619 q 756 394 756 484 l 756 0 l 592 0 m 129 0 l 129 674 l 272 674 l 293 540 l 293 0 l 129 0 m 267 785 l 202 824 q 258 955 219 908 q 351 1002 297 1002 q 393 994 371 1002 q 452 967 415 987 q 505 942 488 949 q 540 934 523 934 q 579 950 560 934 q 613 1002 599 967 l 683 956 q 651 868 673 906 q 601 807 629 829 q 544 785 572 785 q 494 794 519 785 q 430 824 469 804 q 381 848 397 842 q 351 854 365 854 q 308 840 328 854 q 267 785 288 826 z "},"õ":{"ha":786,"x_min":65,"x_max":721,"o":"m 394 -19 q 227 20 302 -19 q 109 139 153 60 q 65 336 65 217 q 109 536 65 457 q 227 654 153 615 q 394 693 302 693 q 559 654 485 693 q 677 536 633 615 q 721 336 721 457 q 677 139 721 217 q 559 20 633 60 q 394 -19 485 -19 m 389 124 q 475 148 438 124 q 535 219 513 172 q 557 336 557 266 q 515 497 557 443 q 400 551 473 551 q 313 527 351 551 q 252 456 274 503 q 231 336 231 408 q 273 177 231 231 q 389 124 316 124 m 218 780 l 153 819 q 209 950 169 903 q 301 997 248 997 q 343 990 322 997 q 403 963 365 982 q 456 937 438 944 q 490 929 474 929 q 530 945 510 929 q 564 997 549 962 l 633 951 q 602 863 624 901 q 551 802 580 824 q 494 780 523 780 q 445 790 469 780 q 381 819 420 799 q 332 843 348 837 q 301 849 316 849 q 259 835 279 849 q 218 780 238 821 z "},"Ã":{"ha":869,"x_min":31,"x_max":838,"o":"m 31 0 l 338 901 l 543 901 l 838 0 l 665 0 l 603 194 l 268 194 l 204 0 l 31 0 m 310 318 l 564 318 l 438 706 l 310 318 m 268 1006 l 203 1046 q 259 1177 219 1130 q 351 1224 298 1224 q 393 1216 372 1224 q 453 1189 415 1208 q 506 1163 488 1171 q 540 1156 524 1156 q 580 1172 560 1156 q 614 1224 599 1188 l 683 1178 q 652 1089 674 1128 q 601 1028 630 1051 q 544 1006 573 1006 q 495 1016 519 1006 q 431 1045 470 1026 q 382 1069 398 1063 q 351 1076 366 1076 q 309 1061 329 1076 q 268 1006 288 1047 z "},"Ñ":{"ha":996,"x_min":126,"x_max":867,"o":"m 126 901 l 306 901 l 715 258 l 703 258 l 703 901 l 867 901 l 867 0 l 700 0 l 264 682 l 290 682 l 290 0 l 126 0 l 126 901 m 323 1006 l 258 1046 q 314 1177 274 1130 q 406 1224 353 1224 q 448 1216 426 1224 q 508 1189 470 1208 q 561 1163 543 1171 q 595 1156 578 1156 q 635 1172 615 1156 q 669 1224 654 1188 l 738 1178 q 707 1089 728 1128 q 656 1028 685 1051 q 599 1006 628 1006 q 550 1016 574 1006 q 485 1045 525 1026 q 437 1069 453 1063 q 406 1076 421 1076 q 364 1061 384 1076 q 323 1006 343 1047 z "},"Õ":{"ha":948,"x_min":65,"x_max":883,"o":"m 474 -19 q 261 33 353 -19 q 117 191 169 86 q 65 451 65 296 q 117 714 65 610 q 261 868 169 817 q 474 919 353 919 q 687 867 594 919 q 831 710 779 815 q 883 451 883 606 q 831 189 883 294 q 687 32 779 84 q 474 -19 594 -19 m 474 129 q 649 213 584 129 q 714 453 714 296 q 649 688 714 604 q 474 772 584 772 q 300 688 365 772 q 235 451 235 603 q 300 212 235 295 q 474 129 365 129 m 301 1006 l 236 1046 q 292 1177 253 1130 q 385 1224 331 1224 q 427 1216 405 1224 q 486 1189 449 1208 q 539 1163 522 1171 q 574 1156 557 1156 q 613 1172 594 1156 q 647 1224 633 1188 l 717 1178 q 685 1089 707 1128 q 635 1028 663 1051 q 578 1006 606 1006 q 528 1016 553 1006 q 464 1045 503 1026 q 415 1069 431 1063 q 385 1076 399 1076 q 342 1061 363 1076 q 301 1006 322 1047 z "},"Æ":{"ha":1226,"x_min":50,"x_max":1119,"o":"m 1119 901 l 1119 760 l 709 760 l 737 785 l 737 457 l 709 519 l 1093 519 l 1093 378 l 709 378 l 737 424 l 737 70 l 709 144 l 1119 144 l 1119 0 l 573 0 l 573 251 l 601 194 l 240 194 l 319 248 l 220 0 l 50 0 l 410 901 l 1119 901 m 601 318 l 573 272 l 572 783 l 601 760 l 484 760 l 549 822 l 331 278 l 285 318 l 601 318 z "},"Ă":{"ha":869,"x_min":31,"x_max":838,"o":"m 31 0 l 338 901 l 543 901 l 838 0 l 665 0 l 603 194 l 268 194 l 204 0 l 31 0 m 310 318 l 564 318 l 438 706 l 310 318 m 443 1033 q 282 1090 341 1033 q 224 1249 224 1148 l 353 1249 q 377 1168 353 1196 q 443 1140 401 1140 q 510 1168 486 1140 q 534 1249 534 1196 l 663 1249 q 604 1090 663 1148 q 443 1033 546 1033 z "},"Ā":{"ha":869,"x_min":31,"x_max":838,"o":"m 31 0 l 338 901 l 543 901 l 838 0 l 665 0 l 603 194 l 268 194 l 204 0 l 31 0 m 310 318 l 564 318 l 438 706 l 310 318 m 203 1172 l 683 1172 l 683 1038 l 203 1038 l 203 1172 z "},"Ą":{"ha":869,"x_min":31,"x_max":918,"o":"m 31 0 l 338 901 l 543 901 l 838 0 l 665 0 l 603 194 l 268 194 l 204 0 l 31 0 m 310 318 l 564 318 l 438 706 l 310 318 m 918 -226 q 826 -262 873 -250 q 734 -275 779 -275 q 611 -242 660 -275 q 563 -147 563 -208 q 598 -49 563 -97 q 703 27 634 -1 l 828 0 q 715 -54 757 -25 q 673 -118 673 -83 q 696 -156 673 -145 q 747 -167 719 -167 q 807 -157 776 -167 q 880 -125 838 -147 l 918 -226 z "},"Å":{"ha":869,"x_min":31,"x_max":838,"o":"m 31 0 l 338 901 l 543 901 l 838 0 l 665 0 l 603 194 l 268 194 l 204 0 l 31 0 m 310 318 l 564 318 l 438 706 l 310 318 m 444 974 q 361 996 399 974 q 301 1056 323 1018 q 278 1139 278 1094 q 301 1222 278 1184 q 360 1282 323 1259 q 444 1304 398 1304 q 526 1282 489 1304 q 586 1222 564 1259 q 609 1139 609 1184 q 586 1056 609 1094 q 526 996 564 1019 q 444 974 489 974 m 444 1083 q 483 1099 467 1083 q 499 1139 499 1115 q 483 1179 499 1163 q 444 1195 467 1195 q 404 1179 420 1195 q 388 1139 388 1163 q 404 1099 388 1115 q 444 1083 420 1083 z "},"Ć":{"ha":880,"x_min":65,"x_max":817,"o":"m 457 -19 q 250 37 338 -19 q 114 199 163 94 q 65 453 65 305 q 116 709 65 606 q 255 866 166 813 q 457 919 343 919 q 703 843 615 919 q 817 644 792 767 l 642 613 q 573 727 620 683 q 457 771 526 771 q 348 736 397 771 q 270 630 299 701 q 242 453 242 559 q 267 281 242 353 q 340 169 292 208 q 457 131 388 131 q 593 177 545 131 q 642 297 642 224 l 817 297 q 773 126 817 197 q 649 18 730 56 q 457 -19 569 -19 m 403 1000 l 325 1064 l 585 1323 l 694 1234 l 403 1000 z "},"Č":{"ha":880,"x_min":65,"x_max":817,"o":"m 457 -19 q 250 37 338 -19 q 114 199 163 94 q 65 453 65 305 q 116 709 65 606 q 255 866 166 813 q 457 919 343 919 q 703 843 615 919 q 817 644 792 767 l 642 613 q 573 727 620 683 q 457 771 526 771 q 348 736 397 771 q 270 630 299 701 q 242 453 242 559 q 267 281 242 353 q 340 169 292 208 q 457 131 388 131 q 593 177 545 131 q 642 297 642 224 l 817 297 q 773 126 817 197 q 649 18 730 56 q 457 -19 569 -19 m 453 1001 l 206 1213 l 303 1290 l 482 1109 l 424 1109 l 605 1290 l 701 1213 l 453 1001 z "},"Ç":{"ha":880,"x_min":65,"x_max":817,"o":"m 457 -19 q 250 37 338 -19 q 114 199 163 94 q 65 453 65 305 q 116 709 65 606 q 255 866 166 813 q 457 919 343 919 q 703 843 615 919 q 817 644 792 767 l 642 613 q 573 727 620 683 q 457 771 526 771 q 348 736 397 771 q 270 630 299 701 q 242 453 242 559 q 267 281 242 353 q 340 169 292 208 q 457 131 388 131 q 593 177 545 131 q 642 297 642 224 l 817 297 q 773 126 817 197 q 649 18 730 56 q 457 -19 569 -19 m 325 -255 l 348 -197 q 432 -223 395 -219 q 490 -214 468 -226 q 514 -179 512 -201 q 500 -145 516 -160 q 457 -118 485 -130 q 390 -98 428 -106 l 444 55 l 516 44 l 467 -94 l 445 -52 q 554 -83 513 -62 q 614 -131 596 -104 q 631 -189 633 -158 q 596 -254 628 -229 q 517 -287 565 -278 q 419 -287 470 -295 q 325 -255 368 -280 z "},"Ċ":{"ha":880,"x_min":65,"x_max":817,"o":"m 457 -19 q 250 37 338 -19 q 114 199 163 94 q 65 453 65 305 q 116 709 65 606 q 255 866 166 813 q 457 919 343 919 q 703 843 615 919 q 817 644 792 767 l 642 613 q 573 727 620 683 q 457 771 526 771 q 348 736 397 771 q 270 630 299 701 q 242 453 242 559 q 267 281 242 353 q 340 169 292 208 q 457 131 388 131 q 593 177 545 131 q 642 297 642 224 l 817 297 q 773 126 817 197 q 649 18 730 56 q 457 -19 569 -19 z "},"Ď":{"ha":953,"x_min":129,"x_max":881,"o":"m 129 901 l 421 901 q 662 846 558 901 q 823 690 765 791 q 881 450 881 588 q 823 212 881 313 q 662 56 765 111 q 421 0 558 0 l 129 0 l 129 901 m 293 753 l 293 147 l 421 147 q 572 187 508 147 q 670 295 635 226 q 704 450 704 363 q 670 606 704 538 q 572 714 635 674 q 421 753 508 753 l 293 753 m 482 1001 l 235 1213 l 331 1290 l 510 1109 l 453 1109 l 633 1290 l 730 1213 l 482 1001 z "},"Đ":{"ha":953,"x_min":31,"x_max":881,"o":"m 31 522 l 470 522 l 470 380 l 31 380 l 31 522 m 129 901 l 421 901 q 662 846 558 901 q 823 690 765 791 q 881 450 881 588 q 823 212 881 313 q 662 56 765 111 q 421 0 558 0 l 129 0 l 129 901 m 293 753 l 293 147 l 421 147 q 572 187 508 147 q 670 295 635 226 q 704 450 704 363 q 670 606 704 538 q 572 714 635 674 q 421 753 508 753 l 293 753 z "},"Δ":{"ha":869,"x_min":31,"x_max":838,"o":"m 31 0 l 338 901 l 543 901 l 838 0 l 665 0 l 438 706 l 204 0 l 31 0 m 122 0 l 122 144 l 727 144 l 727 0 l 122 0 z "},"∕":{"ha":395,"x_min":-202,"x_max":606,"o":"z "},"Ě":{"ha":815,"x_min":128,"x_max":707,"o":"m 128 0 l 128 901 l 707 901 l 707 760 l 292 760 l 292 522 l 682 522 l 682 381 l 292 381 l 292 143 l 707 143 l 707 0 l 128 0 m 413 1001 l 165 1213 l 262 1290 l 441 1109 l 383 1109 l 564 1290 l 660 1213 l 413 1001 z "},"Ė":{"ha":815,"x_min":128,"x_max":707,"o":"m 128 0 l 128 901 l 707 901 l 707 760 l 292 760 l 292 522 l 682 522 l 682 381 l 292 381 l 292 143 l 707 143 l 707 0 l 128 0 z "},"Ē":{"ha":815,"x_min":128,"x_max":707,"o":"m 128 0 l 128 901 l 707 901 l 707 760 l 292 760 l 292 522 l 682 522 l 682 381 l 292 381 l 292 143 l 707 143 l 707 0 l 128 0 m 167 1172 l 647 1172 l 647 1038 l 167 1038 l 167 1172 z "},"Ŋ":{"ha":996,"x_min":126,"x_max":867,"o":"m 639 -349 q 538 -337 584 -349 q 444 -306 492 -325 l 447 -164 q 522 -193 483 -181 q 599 -206 561 -206 q 680 -176 649 -206 q 709 -78 710 -147 l 703 463 l 867 463 l 867 -81 q 807 -287 867 -225 q 639 -349 747 -349 m 126 901 l 306 901 l 715 258 l 703 258 l 703 901 l 867 901 l 867 0 l 809 -167 l 264 682 l 290 682 l 290 0 l 126 0 l 126 901 z "},"Ę":{"ha":815,"x_min":128,"x_max":707,"o":"m 128 0 l 128 901 l 707 901 l 707 760 l 292 760 l 292 522 l 682 522 l 682 381 l 292 381 l 292 143 l 707 143 l 707 0 l 128 0 m 628 -226 q 536 -262 583 -250 q 444 -275 489 -275 q 321 -242 369 -275 q 272 -147 272 -208 q 308 -49 272 -97 q 413 27 344 -1 l 538 0 q 425 -54 467 -25 q 383 -118 383 -83 q 406 -156 383 -145 q 456 -167 428 -167 q 517 -157 486 -167 q 590 -125 548 -147 l 628 -226 z "},"Ð":{"ha":953,"x_min":31,"x_max":881,"o":"m 31 522 l 470 522 l 470 380 l 31 380 l 31 522 m 129 901 l 421 901 q 662 846 558 901 q 823 690 765 791 q 881 450 881 588 q 823 212 881 313 q 662 56 765 111 q 421 0 558 0 l 129 0 l 129 901 m 293 753 l 293 147 l 421 147 q 572 187 508 147 q 670 295 635 226 q 704 450 704 363 q 670 606 704 538 q 572 714 635 674 q 421 753 508 753 l 293 753 z "},"Ğ":{"ha":940,"x_min":65,"x_max":838,"o":"m 458 -19 q 259 39 348 -19 q 118 202 170 97 q 65 446 65 306 q 98 644 65 556 q 188 793 130 731 q 323 887 245 855 q 492 919 401 919 q 704 865 618 919 q 838 692 790 810 l 669 653 q 588 741 634 710 q 483 771 542 771 q 362 732 417 771 q 274 619 307 692 q 242 446 242 547 q 270 281 242 351 q 351 170 299 210 q 472 131 403 131 q 577 157 531 131 q 650 231 623 183 q 676 349 676 280 l 713 349 q 686 153 713 236 q 603 26 659 71 q 458 -19 547 -19 m 700 0 l 676 199 l 676 354 l 474 358 l 474 463 l 833 463 l 833 0 l 700 0 m 470 1033 q 309 1090 368 1033 q 251 1249 251 1148 l 380 1249 q 404 1168 380 1196 q 470 1140 428 1140 q 537 1168 513 1140 q 561 1249 561 1196 l 690 1249 q 631 1090 690 1148 q 470 1033 573 1033 z "},"Ģ":{"ha":940,"x_min":65,"x_max":838,"o":"m 458 -19 q 259 39 348 -19 q 118 202 170 97 q 65 446 65 306 q 98 644 65 556 q 188 793 130 731 q 323 887 245 855 q 492 919 401 919 q 704 865 618 919 q 838 692 790 810 l 669 653 q 588 741 634 710 q 483 771 542 771 q 362 732 417 771 q 274 619 307 692 q 242 446 242 547 q 270 281 242 351 q 351 170 299 210 q 472 131 403 131 q 577 157 531 131 q 650 231 623 183 q 676 349 676 280 l 713 349 q 686 153 713 236 q 603 26 659 71 q 458 -19 547 -19 m 700 0 l 676 199 l 676 354 l 474 358 l 474 463 l 833 463 l 833 0 l 700 0 m 438 -312 l 362 -273 q 422 -235 396 -256 q 457 -186 447 -214 q 413 -165 431 -182 q 398 -122 396 -149 q 422 -76 400 -94 q 476 -58 444 -58 q 537 -85 515 -58 q 556 -153 559 -113 q 523 -242 554 -198 q 438 -312 492 -286 z "},"Ġ":{"ha":940,"x_min":65,"x_max":838,"o":"m 458 -19 q 259 39 348 -19 q 118 202 170 97 q 65 446 65 306 q 98 644 65 556 q 188 793 130 731 q 323 887 245 855 q 492 919 401 919 q 704 865 618 919 q 838 692 790 810 l 669 653 q 588 741 634 710 q 483 771 542 771 q 362 732 417 771 q 274 619 307 692 q 242 446 242 547 q 270 281 242 351 q 351 170 299 210 q 472 131 403 131 q 577 157 531 131 q 650 231 623 183 q 676 349 676 280 l 713 349 q 686 153 713 236 q 603 26 659 71 q 458 -19 547 -19 m 700 0 l 676 199 l 676 354 l 474 358 l 474 463 l 833 463 l 833 0 l 700 0 z "},"ẞ":{"ha":901,"x_min":129,"x_max":832,"o":"m 727 747 q 709 663 727 697 q 668 604 691 628 q 627 558 644 579 q 609 514 609 538 q 632 467 609 488 q 688 426 654 447 q 754 378 721 406 q 809 313 787 351 q 832 216 832 274 q 794 91 832 144 q 696 10 756 39 q 568 -18 636 -18 q 481 -8 528 -18 q 393 22 433 3 l 394 153 q 473 112 436 125 q 545 99 509 99 q 607 113 583 99 q 641 148 631 126 q 651 198 651 170 q 631 273 651 242 q 580 328 610 304 q 519 374 549 351 q 468 423 489 396 q 448 488 448 450 q 467 552 448 525 q 513 602 487 578 q 558 654 538 626 q 577 722 577 682 q 539 802 577 773 q 438 831 500 831 q 327 783 358 831 q 295 630 295 735 l 295 0 l 129 0 l 129 633 q 167 814 129 742 q 275 923 205 887 q 445 960 346 960 q 595 933 532 960 q 693 859 658 907 q 727 747 727 811 z "},"Ħ":{"ha":980,"x_min":129,"x_max":850,"o":"m 129 901 l 293 901 l 293 482 l 686 482 l 686 901 l 850 901 l 850 0 l 686 0 l 686 338 l 293 338 l 293 0 l 129 0 l 129 901 m 213 585 l 213 704 l 776 704 l 776 585 l 213 585 z "},"İ":{"ha":423,"x_min":106,"x_max":333,"o":"m 129 0 l 129 901 l 293 901 l 293 0 l 129 0 z "},"Ī":{"ha":423,"x_min":53,"x_max":369,"o":"m 129 0 l 129 901 l 293 901 l 293 0 l 129 0 m 53 1172 l 370 1172 l 370 1038 l 53 1038 l 53 1172 z "},"Į":{"ha":423,"x_min":27,"x_max":382,"o":"m 129 0 l 129 901 l 293 901 l 293 0 l 129 0 m 382 -226 q 290 -262 337 -250 q 198 -275 243 -275 q 75 -242 124 -275 q 26 -147 26 -208 q 62 -49 26 -97 q 167 27 98 -1 l 292 0 q 179 -54 221 -25 q 137 -118 137 -83 q 160 -156 137 -145 q 210 -167 183 -167 q 271 -157 240 -167 q 344 -125 302 -147 l 382 -226 z "},"Ķ":{"ha":908,"x_min":129,"x_max":900,"o":"m 650 901 l 875 901 l 281 293 l 281 517 l 650 901 m 450 529 l 900 0 l 689 0 l 336 422 l 450 529 m 129 901 l 294 901 l 294 0 l 129 0 l 129 901 m 422 -312 l 346 -273 q 406 -235 380 -256 q 441 -186 431 -214 q 397 -165 415 -182 q 382 -122 380 -149 q 406 -76 384 -94 q 460 -58 428 -58 q 521 -85 499 -58 q 540 -153 543 -113 q 507 -242 538 -198 q 422 -312 476 -286 z "},"Ĺ":{"ha":686,"x_min":129,"x_max":664,"o":"m 293 901 l 293 143 l 664 143 l 664 0 l 129 0 l 129 901 l 293 901 m 317 1000 l 238 1064 l 498 1323 l 608 1234 l 317 1000 z "},"Ľ":{"ha":686,"x_min":119,"x_max":664,"o":"m 293 901 l 293 143 l 664 143 l 664 0 l 129 0 l 129 901 l 293 901 m 367 1001 l 119 1213 l 216 1290 l 395 1109 l 338 1109 l 518 1290 l 615 1213 l 367 1001 z "},"Ļ":{"ha":686,"x_min":129,"x_max":664,"o":"m 293 901 l 293 143 l 664 143 l 664 0 l 129 0 l 129 901 l 293 901 m 310 -312 l 235 -273 q 294 -235 269 -256 q 330 -186 320 -214 q 286 -165 303 -182 q 271 -122 269 -149 q 295 -76 273 -94 q 349 -58 317 -58 q 410 -85 388 -58 q 429 -153 432 -113 q 396 -242 427 -198 q 310 -312 365 -286 z "},"Ł":{"ha":686,"x_min":26,"x_max":664,"o":"m 51 436 l 26 576 l 405 640 l 430 499 l 51 436 m 293 901 l 293 143 l 664 143 l 664 0 l 129 0 l 129 901 l 293 901 z "},"Ń":{"ha":996,"x_min":126,"x_max":867,"o":"m 126 901 l 306 901 l 715 258 l 703 258 l 703 901 l 867 901 l 867 0 l 700 0 l 264 682 l 290 682 l 290 0 l 126 0 l 126 901 m 453 1000 l 374 1064 l 634 1323 l 744 1234 l 453 1000 z "},"Ň":{"ha":996,"x_min":126,"x_max":867,"o":"m 126 901 l 306 901 l 715 258 l 703 258 l 703 901 l 867 901 l 867 0 l 700 0 l 264 682 l 290 682 l 290 0 l 126 0 l 126 901 m 503 1001 l 256 1213 l 352 1290 l 531 1109 l 474 1109 l 654 1290 l 751 1213 l 503 1001 z "},"Ņ":{"ha":996,"x_min":126,"x_max":867,"o":"m 126 901 l 306 901 l 715 258 l 703 258 l 703 901 l 867 901 l 867 0 l 700 0 l 264 682 l 290 682 l 290 0 l 126 0 l 126 901 m 465 -312 l 390 -273 q 449 -235 424 -256 q 485 -186 475 -214 q 441 -165 458 -182 q 426 -122 424 -149 q 450 -76 428 -94 q 503 -58 472 -58 q 565 -85 543 -58 q 584 -153 587 -113 q 551 -242 582 -198 q 465 -312 519 -286 z "},"Œ":{"ha":1244,"x_min":65,"x_max":1136,"o":"m 453 -19 q 253 34 340 -19 q 115 192 165 87 q 65 453 65 297 q 115 714 65 610 q 253 868 165 817 q 452 919 340 919 q 609 892 540 919 q 717 816 678 865 l 622 734 q 545 762 588 751 q 461 772 503 772 q 294 688 354 772 q 235 449 235 603 q 294 213 235 297 q 464 129 354 129 q 547 140 506 129 q 626 170 588 151 l 717 65 q 610 6 678 31 q 453 -19 541 -19 m 615 0 l 615 901 l 1136 901 l 1136 760 l 742 760 l 774 797 l 774 485 l 742 522 l 1111 522 l 1111 381 l 742 381 l 774 417 l 774 106 l 742 143 l 1136 143 l 1136 0 l 615 0 z "},"Ő":{"ha":948,"x_min":65,"x_max":883,"o":"m 474 -19 q 261 33 353 -19 q 117 191 169 86 q 65 451 65 296 q 117 714 65 610 q 261 868 169 817 q 474 919 353 919 q 687 867 594 919 q 831 710 779 815 q 883 451 883 606 q 831 189 883 294 q 687 32 779 84 q 474 -19 594 -19 m 474 129 q 649 213 584 129 q 714 453 714 296 q 649 688 714 604 q 474 772 584 772 q 300 688 365 772 q 235 451 235 603 q 300 212 235 295 q 474 129 365 129 m 601 996 l 519 1010 l 544 1246 l 658 1219 l 601 996 m 414 1006 l 330 1018 l 338 1256 l 455 1236 l 414 1006 z "},"Ō":{"ha":948,"x_min":65,"x_max":883,"o":"m 474 -19 q 261 33 353 -19 q 117 191 169 86 q 65 451 65 296 q 117 714 65 610 q 261 868 169 817 q 474 919 353 919 q 687 867 594 919 q 831 710 779 815 q 883 451 883 606 q 831 189 883 294 q 687 32 779 84 q 474 -19 594 -19 m 474 129 q 649 213 584 129 q 714 453 714 296 q 649 688 714 604 q 474 772 584 772 q 300 688 365 772 q 235 451 235 603 q 300 212 235 295 q 474 129 365 129 m 237 1172 l 717 1172 l 717 1038 l 237 1038 l 237 1172 z "},"Ω":{"ha":948,"x_min":65,"x_max":883,"o":"m 404 32 q 280 58 340 32 q 170 137 219 85 q 94 268 122 190 q 65 451 65 347 q 117 714 65 610 q 261 868 169 817 q 474 919 353 919 q 687 867 594 919 q 831 710 779 815 q 883 451 883 606 q 855 266 883 345 q 778 135 826 188 q 668 58 729 83 q 543 32 608 32 l 543 107 q 621 149 582 107 q 687 268 660 191 q 714 453 714 346 q 649 688 714 604 q 474 772 584 772 q 300 688 365 772 q 235 451 235 603 q 261 268 235 345 q 327 149 288 191 q 404 107 367 107 l 404 32 m 65 -1 l 65 107 l 404 107 l 404 -1 l 65 -1 m 543 -1 l 543 107 l 881 107 l 881 -1 l 543 -1 z "},"Ø":{"ha":948,"x_min":42,"x_max":889,"o":"m 42 0 l 751 902 l 889 902 l 178 0 l 42 0 m 474 -19 q 261 33 353 -19 q 117 191 169 86 q 65 451 65 296 q 117 714 65 610 q 261 868 169 817 q 474 919 353 919 q 687 867 594 919 q 831 710 779 815 q 883 451 883 606 q 831 189 883 294 q 687 32 779 84 q 474 -19 594 -19 m 474 129 q 649 213 584 129 q 713 453 713 296 q 649 688 713 604 q 474 772 584 772 q 300 688 365 772 q 235 451 235 603 q 300 212 235 295 q 474 129 365 129 z "},"Ŕ":{"ha":894,"x_min":129,"x_max":831,"o":"m 129 0 l 129 901 l 463 901 q 711 826 624 901 q 797 625 797 750 q 711 427 797 502 q 463 351 624 351 l 293 351 l 293 0 l 129 0 m 617 0 l 378 422 l 553 422 l 831 0 l 617 0 m 293 461 l 446 461 q 583 502 536 461 q 629 610 629 544 q 587 718 629 677 q 463 760 544 760 l 293 760 l 293 461 m 402 1000 l 324 1064 l 583 1323 l 693 1234 l 402 1000 z "},"Ř":{"ha":894,"x_min":129,"x_max":831,"o":"m 129 0 l 129 901 l 463 901 q 711 826 624 901 q 797 625 797 750 q 711 427 797 502 q 463 351 624 351 l 293 351 l 293 0 l 129 0 m 617 0 l 378 422 l 553 422 l 831 0 l 617 0 m 293 461 l 446 461 q 583 502 536 461 q 629 610 629 544 q 587 718 629 677 q 463 760 544 760 l 293 760 l 293 461 m 452 1001 l 205 1213 l 301 1290 l 481 1109 l 423 1109 l 603 1290 l 700 1213 l 452 1001 z "},"Ŗ":{"ha":894,"x_min":129,"x_max":831,"o":"m 129 0 l 129 901 l 463 901 q 711 826 624 901 q 797 625 797 750 q 711 427 797 502 q 463 351 624 351 l 293 351 l 293 0 l 129 0 m 617 0 l 378 422 l 553 422 l 831 0 l 617 0 m 293 461 l 446 461 q 583 502 536 461 q 629 610 629 544 q 587 718 629 677 q 463 760 544 760 l 293 760 l 293 461 m 415 -312 l 339 -273 q 399 -235 373 -256 q 434 -186 424 -214 q 390 -165 408 -182 q 375 -122 373 -149 q 399 -76 377 -94 q 453 -58 422 -58 q 514 -85 492 -58 q 533 -153 536 -113 q 500 -242 531 -198 q 415 -312 469 -286 z "},"Ś":{"ha":885,"x_min":90,"x_max":794,"o":"m 443 -19 q 270 13 349 -19 q 143 113 192 46 q 90 282 94 179 l 251 282 q 277 197 251 230 q 346 147 303 163 q 442 131 390 131 q 531 144 492 131 q 593 182 570 157 q 615 240 615 206 q 588 311 615 285 q 500 358 560 337 l 322 429 q 163 524 218 470 q 107 674 107 578 q 194 851 107 783 q 436 919 281 919 q 670 849 588 919 q 764 653 753 778 l 603 653 q 554 739 594 706 q 436 771 515 771 q 326 742 367 771 q 286 669 286 713 q 311 610 286 632 q 390 568 337 588 l 588 492 q 741 394 688 453 q 794 246 794 335 q 753 105 794 165 q 634 13 713 46 q 443 -19 556 -19 m 398 1000 l 319 1064 l 579 1323 l 689 1234 l 398 1000 z "},"Š":{"ha":885,"x_min":90,"x_max":794,"o":"m 443 -19 q 270 13 349 -19 q 143 113 192 46 q 90 282 94 179 l 251 282 q 277 197 251 230 q 346 147 303 163 q 442 131 390 131 q 531 144 492 131 q 593 182 570 157 q 615 240 615 206 q 588 311 615 285 q 500 358 560 337 l 322 429 q 163 524 218 470 q 107 674 107 578 q 194 851 107 783 q 436 919 281 919 q 670 849 588 919 q 764 653 753 778 l 603 653 q 554 739 594 706 q 436 771 515 771 q 326 742 367 771 q 286 669 286 713 q 311 610 286 632 q 390 568 337 588 l 588 492 q 741 394 688 453 q 794 246 794 335 q 753 105 794 165 q 634 13 713 46 q 443 -19 556 -19 m 448 1001 l 201 1213 l 297 1290 l 476 1109 l 419 1109 l 599 1290 l 696 1213 l 448 1001 z "},"Ş":{"ha":885,"x_min":90,"x_max":794,"o":"m 443 -19 q 270 13 349 -19 q 143 113 192 46 q 90 282 94 179 l 251 282 q 277 197 251 230 q 346 147 303 163 q 442 131 390 131 q 531 144 492 131 q 593 182 570 157 q 615 240 615 206 q 588 311 615 285 q 500 358 560 337 l 322 429 q 163 524 218 470 q 107 674 107 578 q 194 851 107 783 q 436 919 281 919 q 670 849 588 919 q 764 653 753 778 l 603 653 q 554 739 594 706 q 436 771 515 771 q 326 742 367 771 q 286 669 286 713 q 311 610 286 632 q 390 568 337 588 l 588 492 q 741 394 688 453 q 794 246 794 335 q 753 105 794 165 q 634 13 713 46 q 443 -19 556 -19 m 308 -255 l 331 -197 q 414 -223 378 -219 q 473 -214 451 -226 q 497 -179 494 -201 q 483 -145 499 -160 q 439 -118 467 -130 q 372 -98 411 -106 l 426 55 l 499 44 l 449 -94 l 428 -52 q 537 -83 495 -62 q 597 -131 578 -104 q 613 -189 615 -158 q 579 -254 610 -229 q 500 -287 547 -278 q 402 -287 453 -295 q 308 -255 351 -280 z "},"Ș":{"ha":885,"x_min":90,"x_max":794,"o":"m 443 -19 q 270 13 349 -19 q 143 113 192 46 q 90 282 94 179 l 251 282 q 277 197 251 230 q 346 147 303 163 q 442 131 390 131 q 531 144 492 131 q 593 182 570 157 q 615 240 615 206 q 588 311 615 285 q 500 358 560 337 l 322 429 q 163 524 218 470 q 107 674 107 578 q 194 851 107 783 q 436 919 281 919 q 670 849 588 919 q 764 653 753 778 l 603 653 q 554 739 594 706 q 436 771 515 771 q 326 742 367 771 q 286 669 286 713 q 311 610 286 632 q 390 568 337 588 l 588 492 q 741 394 688 453 q 794 246 794 335 q 753 105 794 165 q 634 13 713 46 q 443 -19 556 -19 m 415 -312 l 339 -273 q 399 -235 373 -256 q 434 -186 424 -214 q 390 -165 408 -182 q 375 -122 373 -149 q 399 -76 377 -94 q 453 -58 422 -58 q 514 -85 492 -58 q 533 -153 536 -113 q 500 -242 531 -198 q 415 -312 469 -286 z "},"Ŧ":{"ha":738,"x_min":8,"x_max":731,"o":"m 8 760 l 8 901 l 731 901 l 731 760 l 415 760 l 451 797 l 451 0 l 288 0 l 288 797 l 324 760 l 8 760 m 114 348 l 114 481 l 595 481 l 595 348 l 114 348 z "},"Ť":{"ha":738,"x_min":8,"x_max":731,"o":"m 8 760 l 8 901 l 731 901 l 731 760 l 415 760 l 451 797 l 451 0 l 288 0 l 288 797 l 324 760 l 8 760 m 374 1001 l 127 1213 l 224 1290 l 403 1109 l 345 1109 l 526 1290 l 622 1213 l 374 1001 z "},"Ţ":{"ha":738,"x_min":8,"x_max":731,"o":"m 8 760 l 8 901 l 731 901 l 731 760 l 415 760 l 451 797 l 451 0 l 288 0 l 288 797 l 324 760 l 8 760 m 190 -249 l 213 -191 q 296 -216 260 -213 q 355 -207 333 -219 q 378 -173 376 -195 q 365 -139 381 -153 q 321 -112 349 -124 q 254 -92 293 -100 l 308 61 l 381 51 l 331 -87 l 310 -46 q 419 -77 377 -56 q 479 -125 460 -98 q 495 -183 497 -152 q 461 -248 492 -223 q 382 -281 429 -272 q 284 -281 335 -289 q 190 -249 233 -274 z "},"Ț":{"ha":738,"x_min":8,"x_max":731,"o":"m 8 760 l 8 901 l 731 901 l 731 760 l 415 760 l 451 797 l 451 0 l 288 0 l 288 797 l 324 760 l 8 760 m 297 -306 l 222 -267 q 281 -228 256 -249 q 317 -180 307 -208 q 273 -159 290 -176 q 258 -116 256 -142 q 282 -70 260 -88 q 335 -51 304 -51 q 397 -79 375 -51 q 416 -147 419 -107 q 383 -236 414 -192 q 297 -306 351 -280 z "},"Þ":{"ha":806,"x_min":125,"x_max":765,"o":"m 125 0 l 125 901 l 290 901 l 290 719 l 253 756 l 443 756 q 680 681 595 756 q 765 468 765 606 q 680 257 765 332 q 443 182 595 182 l 253 182 l 290 219 l 290 0 l 125 0 m 290 288 l 253 325 l 443 325 q 558 365 519 325 q 597 468 597 406 q 558 573 597 532 q 443 614 519 614 l 253 614 l 290 651 l 290 288 z "},"Ű":{"ha":958,"x_min":115,"x_max":846,"o":"m 115 901 l 279 901 l 279 340 q 336 180 279 229 q 481 131 392 131 q 626 180 569 131 q 682 340 682 229 l 682 901 l 846 901 l 846 340 q 802 146 846 226 q 677 23 758 65 q 481 -19 595 -19 q 284 23 366 -19 q 159 146 203 65 q 115 340 115 226 l 115 901 m 603 996 l 522 1010 l 546 1246 l 660 1219 l 603 996 m 416 1006 l 332 1018 l 340 1256 l 457 1236 l 416 1006 z "},"Ū":{"ha":958,"x_min":115,"x_max":846,"o":"m 115 901 l 279 901 l 279 340 q 336 180 279 229 q 481 131 392 131 q 626 180 569 131 q 682 340 682 229 l 682 901 l 846 901 l 846 340 q 802 146 846 226 q 677 23 758 65 q 481 -19 595 -19 q 284 23 366 -19 q 159 146 203 65 q 115 340 115 226 l 115 901 m 240 1172 l 719 1172 l 719 1038 l 240 1038 l 240 1172 z "},"Ų":{"ha":958,"x_min":115,"x_max":846,"o":"m 115 901 l 279 901 l 279 340 q 336 180 279 229 q 481 131 392 131 q 626 180 569 131 q 682 340 682 229 l 682 901 l 846 901 l 846 340 q 802 146 846 226 q 677 23 758 65 q 481 -19 595 -19 q 284 23 366 -19 q 159 146 203 65 q 115 340 115 226 l 115 901 m 690 -226 q 598 -262 645 -250 q 506 -275 551 -275 q 383 -242 432 -275 q 335 -147 335 -208 q 370 -49 335 -97 q 476 27 406 -1 l 601 0 q 487 -54 529 -25 q 445 -118 445 -83 q 468 -156 445 -145 q 519 -167 491 -167 q 580 -157 549 -167 q 652 -125 610 -147 l 690 -226 z "},"Ů":{"ha":958,"x_min":115,"x_max":846,"o":"m 115 901 l 279 901 l 279 340 q 336 180 279 229 q 481 131 392 131 q 626 180 569 131 q 682 340 682 229 l 682 901 l 846 901 l 846 340 q 802 146 846 226 q 677 23 758 65 q 481 -19 595 -19 q 284 23 366 -19 q 159 146 203 65 q 115 340 115 226 l 115 901 m 480 974 q 397 996 435 974 q 337 1056 359 1018 q 315 1139 315 1094 q 337 1222 315 1184 q 397 1282 359 1259 q 480 1304 434 1304 q 563 1282 525 1304 q 623 1222 600 1259 q 645 1139 645 1184 q 623 1056 645 1094 q 563 996 600 1019 q 480 974 525 974 m 480 1083 q 519 1099 503 1083 q 535 1139 535 1115 q 519 1179 535 1163 q 480 1195 503 1195 q 440 1179 456 1195 q 424 1139 424 1163 q 440 1099 424 1115 q 480 1083 456 1083 z "},"Ẃ":{"ha":1315,"x_min":14,"x_max":1300,"o":"m 14 901 l 197 901 l 415 144 l 374 144 l 589 842 l 700 842 l 924 156 l 886 156 l 1115 901 l 1300 901 l 990 0 l 818 0 l 642 532 l 657 532 l 481 0 l 308 0 l 14 901 m 610 1006 l 531 1069 l 791 1328 l 901 1240 l 610 1006 z "},"Ŵ":{"ha":1315,"x_min":14,"x_max":1300,"o":"m 14 901 l 197 901 l 415 144 l 374 144 l 589 842 l 700 842 l 924 156 l 886 156 l 1115 901 l 1300 901 l 990 0 l 818 0 l 642 532 l 657 532 l 481 0 l 308 0 l 14 901 m 503 997 l 407 1073 l 654 1285 l 902 1073 l 806 997 l 625 1159 l 683 1159 l 503 997 z "},"Ẅ":{"ha":1315,"x_min":14,"x_max":1300,"o":"m 14 901 l 197 901 l 415 144 l 374 144 l 589 842 l 700 842 l 924 156 l 886 156 l 1115 901 l 1300 901 l 990 0 l 818 0 l 642 532 l 657 532 l 481 0 l 308 0 l 14 901 m 788 1025 q 719 1051 747 1025 q 690 1117 690 1078 q 719 1184 690 1157 q 788 1210 747 1210 q 858 1184 831 1210 q 886 1117 886 1157 q 858 1051 886 1078 q 788 1025 831 1025 m 521 1025 q 451 1051 478 1025 q 424 1116 424 1078 q 451 1183 424 1157 q 521 1209 478 1209 q 592 1183 564 1209 q 619 1116 619 1157 q 592 1051 619 1078 q 521 1025 564 1025 z "},"Ẁ":{"ha":1315,"x_min":14,"x_max":1300,"o":"m 14 901 l 197 901 l 415 144 l 374 144 l 589 842 l 700 842 l 924 156 l 886 156 l 1115 901 l 1300 901 l 990 0 l 818 0 l 642 532 l 657 532 l 481 0 l 308 0 l 14 901 m 760 1008 l 469 1242 l 578 1331 l 838 1072 l 760 1008 z "},"Ý":{"ha":815,"x_min":10,"x_max":804,"o":"m 10 901 l 204 901 l 419 514 l 388 514 l 611 901 l 804 901 l 483 372 l 483 0 l 319 0 l 319 372 l 10 901 m 363 1000 l 284 1064 l 544 1323 l 653 1234 l 363 1000 z "},"Ŷ":{"ha":815,"x_min":10,"x_max":804,"o":"m 10 901 l 204 901 l 419 514 l 388 514 l 611 901 l 804 901 l 483 372 l 483 0 l 319 0 l 319 372 l 10 901 m 256 991 l 160 1067 l 407 1279 l 655 1067 l 558 991 l 378 1153 l 435 1153 l 256 991 z "},"Ÿ":{"ha":815,"x_min":10,"x_max":804,"o":"m 10 901 l 204 901 l 419 514 l 388 514 l 611 901 l 804 901 l 483 372 l 483 0 l 319 0 l 319 372 l 10 901 m 540 1019 q 472 1046 500 1019 q 443 1112 443 1072 q 472 1178 443 1151 q 540 1205 500 1205 q 611 1178 583 1205 q 639 1112 639 1151 q 611 1046 639 1072 q 540 1019 583 1019 m 274 1019 q 204 1046 231 1019 q 176 1110 176 1072 q 204 1177 176 1151 q 274 1203 231 1203 q 344 1177 317 1203 q 372 1110 372 1151 q 344 1046 372 1072 q 274 1019 317 1019 z "},"Ỳ":{"ha":815,"x_min":10,"x_max":804,"o":"m 10 901 l 204 901 l 419 514 l 388 514 l 611 901 l 804 901 l 483 372 l 483 0 l 319 0 l 319 372 l 10 901 m 513 1002 l 222 1236 l 331 1325 l 591 1066 l 513 1002 z "},"Ź":{"ha":873,"x_min":101,"x_max":783,"o":"m 101 0 l 101 142 l 625 810 l 625 750 l 101 751 l 101 901 l 783 901 l 783 761 l 292 131 l 288 151 l 783 150 l 783 0 l 101 0 m 410 1000 l 332 1064 l 592 1323 l 701 1234 l 410 1000 z "},"Ž":{"ha":873,"x_min":101,"x_max":783,"o":"m 101 0 l 101 142 l 625 810 l 625 750 l 101 751 l 101 901 l 783 901 l 783 761 l 292 131 l 288 151 l 783 150 l 783 0 l 101 0 m 460 1001 l 213 1213 l 310 1290 l 489 1109 l 431 1109 l 612 1290 l 708 1213 l 460 1001 z "},"Ż":{"ha":873,"x_min":101,"x_max":783,"o":"m 101 0 l 101 142 l 625 810 l 625 750 l 101 751 l 101 901 l 783 901 l 783 761 l 292 131 l 288 151 l 783 150 l 783 0 l 101 0 z "},"ă":{"ha":813,"x_min":76,"x_max":701,"o":"m 558 0 l 538 164 l 538 435 q 509 540 538 506 q 411 574 480 574 q 342 562 372 574 q 298 528 313 550 q 282 475 282 506 l 103 475 q 140 600 103 551 q 245 670 176 648 q 411 693 315 693 q 564 665 499 693 q 665 578 629 637 q 701 429 701 520 l 701 0 l 558 0 m 338 -19 q 193 11 251 -19 q 106 90 135 41 q 76 197 76 140 q 110 305 76 261 q 206 370 144 348 q 351 392 267 392 q 455 383 406 392 q 553 361 504 375 l 553 265 q 469 285 515 278 q 385 292 424 292 q 289 270 326 292 q 251 197 251 249 q 282 133 251 160 q 379 106 313 106 q 465 128 430 106 q 519 183 501 150 q 538 250 538 217 l 576 250 q 549 116 576 177 q 469 17 522 54 q 338 -19 416 -19 m 406 806 q 245 864 303 806 q 186 1023 186 922 l 315 1023 q 339 942 315 969 q 406 914 363 914 q 473 942 449 914 q 497 1023 497 969 l 625 1023 q 567 864 625 922 q 406 806 508 806 z "},"́":{"ha":0,"x_min":65,"x_max":435,"o":"m 144 776 l 65 840 l 325 1099 l 435 1010 l 144 776 z "},"æ":{"ha":1197,"x_min":76,"x_max":1137,"o":"m 549 210 l 528 210 l 528 435 q 498 539 528 503 q 403 574 468 574 q 339 562 367 574 q 297 528 312 550 q 282 475 282 506 l 103 475 q 139 600 103 551 q 237 670 176 648 q 372 693 298 693 q 528 659 466 693 q 620 560 590 624 q 651 406 651 496 l 651 309 l 549 210 m 333 -19 q 193 10 251 -19 q 106 88 136 39 q 76 197 76 138 q 109 305 76 261 q 202 370 142 348 q 342 392 263 392 q 444 383 393 392 q 543 361 495 374 l 543 265 q 458 285 506 278 q 378 292 410 292 q 288 270 324 292 q 251 200 251 248 q 280 133 251 160 q 365 106 308 106 q 453 127 417 106 q 509 182 490 149 q 528 250 528 215 l 634 250 q 600 123 634 185 q 499 21 566 61 q 333 -19 433 -19 m 850 -19 q 685 27 758 -19 q 572 156 613 74 q 531 340 531 238 q 572 522 531 442 q 684 648 613 602 q 847 693 756 693 q 982 660 924 693 q 1075 573 1040 628 q 1124 448 1110 517 q 1125 306 1137 379 l 657 306 l 657 394 l 1009 394 l 977 374 q 974 440 979 406 q 954 501 969 473 q 912 545 939 528 q 844 563 885 563 q 760 538 794 563 q 707 469 725 513 q 689 372 689 426 l 689 307 q 706 206 689 250 q 756 138 722 163 q 842 113 790 113 q 921 134 888 113 q 963 201 954 156 l 1129 201 q 1080 86 1119 136 q 981 9 1040 37 q 850 -19 921 -19 z "},"ā":{"ha":813,"x_min":76,"x_max":701,"o":"m 558 0 l 538 164 l 538 435 q 509 540 538 506 q 411 574 480 574 q 342 562 372 574 q 298 528 313 550 q 282 475 282 506 l 103 475 q 140 600 103 551 q 245 670 176 648 q 411 693 315 693 q 564 665 499 693 q 665 578 629 637 q 701 429 701 520 l 701 0 l 558 0 m 338 -19 q 193 11 251 -19 q 106 90 135 41 q 76 197 76 140 q 110 305 76 261 q 206 370 144 348 q 351 392 267 392 q 455 383 406 392 q 553 361 504 375 l 553 265 q 469 285 515 278 q 385 292 424 292 q 289 270 326 292 q 251 197 251 249 q 282 133 251 160 q 379 106 313 106 q 465 128 430 106 q 519 183 501 150 q 538 250 538 217 l 576 250 q 549 116 576 177 q 469 17 522 54 q 338 -19 416 -19 m 166 945 l 646 945 l 646 811 l 166 811 l 166 945 z "},"ą":{"ha":813,"x_min":76,"x_max":791,"o":"m 558 0 l 538 164 l 538 435 q 509 540 538 506 q 411 574 480 574 q 342 562 372 574 q 298 528 313 550 q 282 475 282 506 l 103 475 q 140 600 103 551 q 245 670 176 648 q 411 693 315 693 q 564 665 499 693 q 665 578 629 637 q 701 429 701 520 l 701 0 l 558 0 m 338 -19 q 193 11 251 -19 q 106 90 135 41 q 76 197 76 140 q 110 305 76 261 q 206 370 144 348 q 351 392 267 392 q 455 383 406 392 q 553 361 504 375 l 553 265 q 469 285 515 278 q 385 292 424 292 q 289 270 326 292 q 251 197 251 249 q 282 133 251 160 q 379 106 313 106 q 465 128 430 106 q 519 183 501 150 q 538 250 538 217 l 576 250 q 549 116 576 177 q 469 17 522 54 q 338 -19 416 -19 m 791 -226 q 699 -262 746 -250 q 607 -275 652 -275 q 484 -242 533 -275 q 435 -147 435 -208 q 471 -49 435 -97 q 576 27 507 -1 l 701 0 q 588 -54 630 -25 q 546 -118 546 -83 q 569 -156 546 -145 q 619 -167 592 -167 q 680 -157 649 -167 q 753 -125 711 -147 l 791 -226 z "},"≈":{"ha":791,"x_min":93,"x_max":699,"o":"m 176 356 l 93 401 q 158 538 117 489 q 265 586 199 586 q 325 577 292 586 q 407 549 358 567 q 480 523 453 531 q 525 514 506 514 q 576 532 554 514 q 616 588 598 549 l 699 535 q 626 409 673 452 q 518 367 580 367 q 461 376 491 367 q 381 403 431 385 q 338 419 360 412 q 297 432 316 427 q 262 438 277 438 q 214 418 235 438 q 176 356 192 399 m 176 82 l 93 127 q 158 264 117 215 q 265 313 199 313 q 325 303 292 313 q 407 275 358 294 q 480 249 453 258 q 525 240 506 240 q 576 258 554 240 q 616 314 598 276 l 699 261 q 626 136 673 178 q 518 93 579 93 q 461 102 491 93 q 381 129 431 111 q 338 146 360 138 q 297 159 316 153 q 262 164 277 164 q 214 144 235 164 q 176 82 192 125 z "},"å":{"ha":813,"x_min":76,"x_max":701,"o":"m 558 0 l 538 164 l 538 435 q 509 540 538 506 q 411 574 480 574 q 342 562 372 574 q 298 528 313 550 q 282 475 282 506 l 103 475 q 140 600 103 551 q 245 670 176 648 q 411 693 315 693 q 564 665 499 693 q 665 578 629 637 q 701 429 701 520 l 701 0 l 558 0 m 338 -19 q 193 11 251 -19 q 106 90 135 41 q 76 197 76 140 q 110 305 76 261 q 206 370 144 348 q 351 392 267 392 q 455 383 406 392 q 553 361 504 375 l 553 265 q 469 285 515 278 q 385 292 424 292 q 289 270 326 292 q 251 197 251 249 q 282 133 251 160 q 379 106 313 106 q 465 128 430 106 q 519 183 501 150 q 538 250 538 217 l 576 250 q 549 116 576 177 q 469 17 522 54 q 338 -19 416 -19 m 407 747 q 324 769 362 747 q 264 830 286 792 q 242 913 242 867 q 264 995 242 958 q 324 1055 286 1033 q 407 1078 361 1078 q 490 1055 452 1078 q 550 995 527 1033 q 572 913 572 958 q 550 830 572 867 q 490 770 527 792 q 407 747 452 747 m 407 857 q 447 873 431 857 q 463 913 463 889 q 447 952 463 936 q 407 969 431 969 q 367 952 383 969 q 351 913 351 936 q 367 873 351 889 q 407 857 383 857 z "},"˘":{"ha":569,"x_min":65,"x_max":504,"o":"m 285 806 q 124 864 183 806 q 65 1023 65 922 l 194 1023 q 218 942 194 969 q 285 914 242 914 q 352 942 328 914 q 376 1023 376 969 l 504 1023 q 446 864 504 922 q 285 806 388 806 z "},"̆":{"ha":0,"x_min":65,"x_max":504,"o":"m 285 806 q 124 864 183 806 q 65 1023 65 922 l 194 1023 q 218 942 194 969 q 285 914 242 914 q 352 942 328 914 q 376 1023 376 969 l 504 1023 q 446 864 504 922 q 285 806 388 806 z "},"¦":{"ha":423,"x_min":129,"x_max":293,"o":"m 129 521 l 129 1069 l 293 1069 l 293 521 l 129 521 m 129 -169 l 129 379 l 293 379 l 293 -169 l 129 -169 z "},"•":{"ha":451,"x_min":36,"x_max":457,"o":"z "},"ć":{"ha":735,"x_min":65,"x_max":668,"o":"m 385 -19 q 227 25 300 -19 q 110 149 155 69 q 65 338 65 229 q 110 532 65 452 q 227 652 155 611 q 385 693 300 693 q 501 672 451 693 q 587 615 551 651 q 642 535 622 579 q 668 447 663 492 l 503 443 q 461 517 492 488 q 383 546 431 546 q 309 524 344 546 q 252 456 274 502 q 231 338 231 410 q 251 222 231 268 q 306 152 272 176 q 383 129 341 129 q 474 159 446 129 q 503 240 503 190 l 668 240 q 635 110 668 169 q 540 16 603 51 q 385 -19 476 -19 m 340 774 l 261 838 l 521 1097 l 631 1008 l 340 774 z "},"ˇ":{"ha":626,"x_min":65,"x_max":560,"o":"m 313 775 l 65 987 l 162 1063 l 341 883 l 283 883 l 464 1063 l 560 987 l 313 775 z "},"̌":{"ha":0,"x_min":65,"x_max":560,"o":"m 313 775 l 65 987 l 162 1063 l 341 883 l 283 883 l 464 1063 l 560 987 l 313 775 z "},"č":{"ha":735,"x_min":65,"x_max":668,"o":"m 385 -19 q 227 25 300 -19 q 110 149 155 69 q 65 338 65 229 q 110 532 65 452 q 227 652 155 611 q 385 693 300 693 q 501 672 451 693 q 587 615 551 651 q 642 535 622 579 q 668 447 663 492 l 503 443 q 461 517 492 488 q 383 546 431 546 q 309 524 344 546 q 252 456 274 502 q 231 338 231 410 q 251 222 231 268 q 306 152 272 176 q 383 129 341 129 q 474 159 446 129 q 503 240 503 190 l 668 240 q 635 110 668 169 q 540 16 603 51 q 385 -19 476 -19 m 390 775 l 142 987 l 239 1063 l 418 883 l 360 883 l 541 1063 l 638 987 l 390 775 z "},"ç":{"ha":735,"x_min":65,"x_max":668,"o":"m 385 -19 q 227 25 300 -19 q 110 149 155 69 q 65 338 65 229 q 110 532 65 452 q 227 652 155 611 q 385 693 300 693 q 501 672 451 693 q 587 615 551 651 q 642 535 622 579 q 668 447 663 492 l 503 443 q 461 517 492 488 q 383 546 431 546 q 309 524 344 546 q 252 456 274 502 q 231 338 231 410 q 251 222 231 268 q 306 152 272 176 q 383 129 341 129 q 474 159 446 129 q 503 240 503 190 l 668 240 q 635 110 668 169 q 540 16 603 51 q 385 -19 476 -19 m 243 -253 l 266 -196 q 350 -221 313 -218 q 408 -212 386 -224 q 432 -178 430 -200 q 418 -143 434 -158 q 375 -117 403 -128 q 308 -97 347 -105 l 362 56 l 434 46 l 385 -92 l 363 -51 q 472 -82 431 -61 q 532 -130 514 -103 q 549 -187 551 -157 q 514 -252 546 -228 q 435 -285 483 -277 q 337 -286 388 -294 q 243 -253 286 -278 z "},"ċ":{"ha":735,"x_min":65,"x_max":668,"o":"m 385 -19 q 227 25 300 -19 q 110 149 155 69 q 65 338 65 229 q 110 532 65 452 q 227 652 155 611 q 385 693 300 693 q 501 672 451 693 q 587 615 551 651 q 642 535 622 579 q 668 447 663 492 l 503 443 q 461 517 492 488 q 383 546 431 546 q 309 524 344 546 q 252 456 274 502 q 231 338 231 410 q 251 222 231 268 q 306 152 272 176 q 383 129 341 129 q 474 159 446 129 q 503 240 503 190 l 668 240 q 635 110 668 169 q 540 16 603 51 q 385 -19 476 -19 z "},"¸":{"ha":436,"x_min":65,"x_max":373,"o":"m 65 -255 l 88 -197 q 172 -223 135 -219 q 230 -214 208 -226 q 254 -179 252 -201 q 241 -145 256 -160 q 197 -118 225 -130 q 130 -98 169 -106 l 184 55 l 256 44 l 207 -94 l 185 -52 q 294 -83 253 -62 q 355 -131 336 -104 q 371 -189 373 -158 q 336 -254 368 -229 q 258 -287 305 -278 q 159 -287 210 -295 q 65 -255 108 -280 z "},"̧":{"ha":0,"x_min":65,"x_max":373,"o":"m 65 -255 l 88 -197 q 172 -223 135 -219 q 230 -214 208 -226 q 254 -179 252 -201 q 241 -145 256 -160 q 197 -118 225 -130 q 130 -98 169 -106 l 184 55 l 256 44 l 207 -94 l 185 -52 q 294 -83 253 -62 q 355 -131 336 -104 q 371 -189 373 -158 q 336 -254 368 -229 q 258 -287 305 -278 q 159 -287 210 -295 q 65 -255 108 -280 z "},"¢":{"ha":734,"x_min":65,"x_max":668,"o":"m 314 -150 l 314 29 l 449 29 l 449 -150 l 314 -150 m 314 653 l 314 815 l 449 815 l 449 653 l 314 653 m 385 -19 q 227 25 300 -19 q 110 149 155 69 q 65 338 65 229 q 110 532 65 452 q 227 652 155 611 q 385 693 300 693 q 501 672 451 693 q 587 615 551 651 q 642 535 622 579 q 668 447 663 492 l 503 443 q 461 517 492 488 q 383 546 431 546 q 309 524 344 546 q 252 456 274 502 q 231 338 231 410 q 251 222 231 268 q 306 152 272 176 q 383 129 341 129 q 474 159 446 129 q 503 240 503 190 l 668 240 q 635 110 668 169 q 540 16 603 51 q 385 -19 476 -19 z "},"̂":{"ha":0,"x_min":65,"x_max":560,"o":"m 162 770 l 65 847 l 313 1058 l 560 847 l 464 770 l 283 933 l 341 933 l 162 770 z "},"̦":{"ha":0,"x_min":65,"x_max":263,"o":"m 141 -312 l 65 -273 q 125 -235 99 -256 q 160 -186 151 -214 q 117 -165 134 -182 q 101 -122 99 -149 q 126 -76 103 -94 q 179 -58 148 -58 q 241 -85 219 -58 q 260 -153 263 -113 q 226 -242 258 -198 q 141 -312 195 -286 z "},"̒":{"ha":0,"x_min":63,"x_max":260,"o":"m 185 972 l 260 933 q 201 895 226 916 q 165 847 175 874 q 209 826 192 842 q 224 783 226 809 q 200 736 222 755 q 147 718 178 718 q 85 746 107 718 q 66 814 63 774 q 99 902 68 858 q 185 972 131 947 z "},"©":{"ha":987,"x_min":33,"x_max":953,"o":"m 494 -8 q 315 27 399 -8 q 168 126 232 63 q 69 273 105 190 q 33 451 33 356 q 69 630 33 547 q 168 777 105 713 q 315 876 232 840 q 494 911 399 911 q 672 876 588 911 q 819 777 756 840 q 918 630 882 713 q 953 451 953 547 q 918 273 953 356 q 819 126 882 190 q 672 27 756 63 q 494 -8 588 -8 m 494 74 q 641 103 572 74 q 761 184 709 133 q 842 305 813 236 q 872 451 872 374 q 842 598 872 530 q 761 719 813 667 q 641 800 709 771 q 494 829 572 829 q 347 800 416 829 q 226 719 278 771 q 145 598 174 667 q 115 451 115 530 q 145 305 115 374 q 226 184 174 236 q 347 103 278 133 q 494 74 416 74 m 492 167 q 367 201 420 167 q 284 300 313 235 q 254 453 254 364 q 285 609 254 546 q 369 704 316 672 q 492 736 423 736 q 641 690 588 736 q 710 569 694 644 l 604 550 q 563 620 591 594 q 492 647 534 647 q 426 625 456 647 q 378 561 396 604 q 360 453 360 518 q 376 349 360 392 q 421 281 392 305 q 492 258 450 258 q 575 286 545 258 q 604 358 604 315 l 710 358 q 651 217 710 267 q 492 167 593 167 z "},"¤":{"ha":833,"x_min":85,"x_max":749,"o":"m 417 150 q 269 190 335 150 q 162 297 202 230 q 122 444 122 363 q 162 592 122 526 q 269 699 202 659 q 417 739 335 739 q 565 699 498 739 q 670 592 631 659 q 710 444 710 526 q 670 297 710 363 q 565 190 631 230 q 417 150 498 150 m 417 296 q 491 316 458 296 q 545 370 525 336 q 565 444 565 403 q 545 520 565 486 q 491 573 525 553 q 417 593 458 593 q 342 573 376 593 q 288 520 308 553 q 268 444 268 486 q 288 370 268 403 q 342 316 308 336 q 417 296 376 296 m 589 547 l 519 617 l 679 776 l 749 708 l 589 547 m 236 556 l 85 707 l 153 776 l 304 625 l 236 556 m 597 333 l 749 182 l 681 113 l 529 264 l 597 333 m 236 333 l 304 264 l 153 113 l 85 182 l 236 333 z "},"†":{"ha":727,"x_min":63,"x_max":664,"o":"m 283 -175 l 265 901 l 463 901 l 442 -175 l 283 -175 m 63 535 l 63 648 l 363 659 l 664 648 l 664 535 l 363 522 l 63 535 z "},"‡":{"ha":727,"x_min":63,"x_max":664,"o":"m 283 -175 l 265 901 l 463 901 l 442 -175 l 283 -175 m 63 535 l 63 648 l 363 659 l 664 648 l 664 535 l 363 522 l 63 535 m 63 283 l 63 396 l 363 408 l 664 396 l 664 283 l 363 270 l 63 283 z "},"ď":{"ha":990,"x_min":71,"x_max":952,"o":"m 844 714 l 765 753 q 823 790 799 769 q 855 840 847 811 q 809 860 828 844 q 791 903 791 876 q 811 949 791 930 q 865 968 832 968 q 928 940 904 968 q 952 872 952 911 q 924 783 952 826 q 844 714 895 740 m 378 -19 q 223 25 293 -19 q 112 151 153 70 q 71 340 71 232 q 111 527 71 447 q 218 650 151 606 q 367 693 285 693 q 497 657 442 693 q 581 551 551 622 q 610 379 610 481 l 558 379 q 537 469 558 432 q 480 526 515 506 q 404 546 445 546 q 317 520 355 546 q 258 448 279 494 q 236 340 236 402 q 258 229 236 276 q 317 156 279 182 q 403 129 355 129 q 477 150 442 129 q 536 210 513 172 q 558 299 558 248 l 610 299 q 578 122 610 192 q 494 16 547 51 q 378 -19 441 -19 m 589 0 l 558 167 l 558 953 l 724 953 l 724 0 l 589 0 z "},"đ":{"ha":853,"x_min":71,"x_max":824,"o":"m 378 -19 q 223 25 293 -19 q 112 151 153 70 q 71 340 71 232 q 111 527 71 447 q 218 650 151 606 q 367 693 285 693 q 497 657 442 693 q 581 551 551 622 q 610 379 610 481 l 558 379 q 537 469 558 432 q 480 526 515 506 q 404 546 445 546 q 317 520 355 546 q 258 448 279 494 q 236 340 236 402 q 258 229 236 276 q 317 156 279 182 q 403 129 355 129 q 477 150 442 129 q 536 210 513 172 q 558 299 558 248 l 610 299 q 578 122 610 192 q 494 16 547 51 q 378 -19 441 -19 m 589 0 l 558 167 l 558 953 l 724 953 l 724 0 l 589 0 m 418 756 l 418 864 l 824 864 l 824 756 l 418 756 z "},"°":{"ha":540,"x_min":61,"x_max":478,"o":"m 270 674 q 165 702 213 674 q 89 778 117 730 q 61 883 61 826 q 89 988 61 941 q 165 1063 117 1035 q 270 1091 213 1091 q 375 1063 328 1091 q 450 988 422 1035 q 478 883 478 941 q 450 778 478 826 q 375 702 422 730 q 270 674 328 674 m 270 783 q 340 812 311 783 q 369 883 369 842 q 340 953 369 924 q 270 983 311 983 q 199 953 228 983 q 169 883 169 924 q 199 812 169 842 q 270 783 228 783 z "},"̈":{"ha":0,"x_min":65,"x_max":528,"o":"m 429 793 q 360 819 389 793 q 332 885 332 846 q 360 952 332 925 q 429 978 389 978 q 500 952 472 978 q 528 885 528 925 q 500 819 528 846 q 429 793 472 793 m 163 793 q 93 819 120 793 q 65 884 65 846 q 93 951 65 925 q 163 977 120 977 q 233 951 206 977 q 261 884 261 925 q 233 819 261 846 q 163 793 206 793 z "},"÷":{"ha":723,"x_min":92,"x_max":631,"o":"m 92 308 l 92 453 l 631 453 l 631 308 l 92 308 m 360 54 q 292 80 319 54 q 265 144 265 106 q 292 209 265 183 q 360 235 319 235 q 429 209 401 235 q 457 144 457 183 q 429 80 457 106 q 360 54 401 54 m 360 522 q 292 548 319 522 q 265 613 265 573 q 292 676 265 650 q 360 703 319 703 q 429 676 401 703 q 457 613 457 650 q 429 548 457 573 q 360 522 401 522 z "},"˙":{"ha":351,"x_min":66,"x_max":292,"o":"z "},"̇":{"ha":0,"x_min":66,"x_max":292,"o":"m 66 907 q 97 985 66 954 q 178 1016 129 1016 q 260 985 227 1016 q 292 907 292 954 q 260 831 292 862 q 178 801 227 801 q 97 832 129 801 q 66 907 66 862 z "},"ě":{"ha":736,"x_min":65,"x_max":675,"o":"m 381 -19 q 223 25 294 -19 q 108 150 151 69 q 65 338 65 230 q 108 528 65 449 q 222 651 151 608 q 381 693 294 693 q 520 661 461 693 q 614 573 578 628 q 663 449 650 518 q 664 306 675 379 l 196 306 l 196 394 l 548 394 l 516 374 q 513 440 518 406 q 493 501 508 473 q 452 545 478 528 q 383 563 425 563 q 299 538 333 563 q 246 469 264 513 q 228 372 228 426 l 228 307 q 245 206 228 250 q 295 138 262 163 q 381 113 329 113 q 461 135 428 113 q 503 201 494 157 l 668 201 q 619 86 658 136 q 519 9 581 37 q 381 -19 458 -19 m 374 775 l 126 987 l 223 1063 l 402 883 l 344 883 l 525 1063 l 622 987 l 374 775 z "},"ė":{"ha":736,"x_min":65,"x_max":675,"o":"m 381 -19 q 223 25 294 -19 q 108 150 151 69 q 65 338 65 230 q 108 528 65 449 q 222 651 151 608 q 381 693 294 693 q 520 661 461 693 q 614 573 578 628 q 663 449 650 518 q 664 306 675 379 l 196 306 l 196 394 l 548 394 l 516 374 q 513 440 518 406 q 493 501 508 473 q 452 545 478 528 q 383 563 425 563 q 299 538 333 563 q 246 469 264 513 q 228 372 228 426 l 228 307 q 245 206 228 250 q 295 138 262 163 q 381 113 329 113 q 461 135 428 113 q 503 201 494 157 l 668 201 q 619 86 658 136 q 519 9 581 37 q 381 -19 458 -19 m 264 907 q 295 984 264 953 q 376 1016 327 1016 q 457 984 425 1016 q 490 907 490 953 q 457 831 490 861 q 376 800 425 800 q 295 831 327 800 q 264 907 264 862 z "},"₈":{"ha":595,"x_min":68,"x_max":528,"o":"m 298 -19 q 131 26 193 -19 q 68 139 68 71 q 113 229 68 197 q 224 261 158 261 q 257 258 242 261 q 292 249 272 255 l 292 226 q 205 203 239 226 q 170 149 170 180 q 207 91 170 112 q 298 71 244 71 q 394 88 363 71 q 426 131 426 105 q 410 167 426 152 q 368 192 395 181 l 213 251 q 156 282 185 263 q 107 330 126 301 q 87 398 87 358 q 142 506 87 465 q 298 546 197 546 q 405 526 357 546 q 481 471 453 506 q 508 390 508 436 q 470 308 508 344 q 363 272 432 272 q 334 275 347 272 q 303 283 320 278 l 303 312 q 375 332 344 312 q 406 383 406 351 q 376 436 406 417 q 298 456 346 456 q 220 439 251 456 q 189 394 189 421 q 203 360 189 373 q 244 336 217 347 l 403 274 q 495 220 463 251 q 528 136 528 190 q 468 25 528 69 q 298 -19 408 -19 z "},"⁸":{"ha":595,"x_min":68,"x_max":528,"o":"m 297 354 q 176 374 227 354 q 96 431 125 395 q 68 512 68 467 q 89 577 68 550 q 145 619 109 605 q 225 634 180 634 q 257 631 242 634 q 292 623 272 628 l 292 599 q 229 588 257 599 q 186 560 202 578 q 170 522 170 543 q 187 480 170 497 q 233 453 204 463 q 297 444 262 444 q 394 461 363 444 q 425 504 425 478 q 410 540 425 525 q 368 565 395 555 l 213 625 q 156 655 185 636 q 107 703 127 674 q 86 771 86 732 q 111 850 86 816 q 183 901 136 883 q 297 919 230 919 q 404 899 357 919 q 480 844 452 879 q 508 764 508 809 q 491 705 508 732 q 441 662 474 679 q 363 646 409 646 q 333 648 347 646 q 302 656 320 651 l 302 685 q 354 694 330 685 q 392 719 377 703 q 406 757 406 735 q 392 795 406 779 q 354 821 378 812 q 297 830 330 830 q 242 821 267 830 q 203 799 217 813 q 189 767 189 785 q 203 733 189 746 q 244 709 217 720 l 404 647 q 495 594 463 624 q 527 509 527 564 q 500 429 527 464 q 422 374 473 394 q 297 354 371 354 z "},"…":{"ha":915,"x_min":33,"x_max":881,"o":"m 33 96 q 65 175 33 143 q 147 207 97 207 q 231 175 197 207 q 264 96 264 143 q 231 18 264 49 q 147 -12 197 -12 q 65 19 97 -12 q 33 96 33 50 m 349 96 q 381 175 349 143 q 463 207 413 207 q 546 175 513 207 q 579 96 579 143 q 546 18 579 49 q 463 -12 513 -12 q 381 19 413 -12 q 349 96 349 50 m 650 96 q 682 175 650 143 q 764 207 714 207 q 847 175 814 207 q 881 96 881 143 q 847 18 881 49 q 764 -12 814 -12 q 682 19 714 -12 q 650 96 650 50 z "},"ē":{"ha":736,"x_min":65,"x_max":675,"o":"m 381 -19 q 223 25 294 -19 q 108 150 151 69 q 65 338 65 230 q 108 528 65 449 q 222 651 151 608 q 381 693 294 693 q 520 661 461 693 q 614 573 578 628 q 663 449 650 518 q 664 306 675 379 l 196 306 l 196 394 l 548 394 l 516 374 q 513 440 518 406 q 493 501 508 473 q 452 545 478 528 q 383 563 425 563 q 299 538 333 563 q 246 469 264 513 q 228 372 228 426 l 228 307 q 245 206 228 250 q 295 138 262 163 q 381 113 329 113 q 461 135 428 113 q 503 201 494 157 l 668 201 q 619 86 658 136 q 519 9 581 37 q 381 -19 458 -19 m 128 945 l 608 945 l 608 811 l 128 811 l 128 945 z "},"∅":{"ha":833,"x_min":71,"x_max":763,"o":"m 417 90 q 267 131 335 90 q 158 239 199 171 q 118 389 118 307 q 158 540 118 472 q 267 648 199 608 q 417 688 335 688 q 568 648 500 688 q 676 540 635 608 q 716 389 716 472 q 676 239 716 307 q 568 131 635 171 q 417 90 500 90 m 417 190 q 517 217 472 190 q 589 289 562 244 q 616 389 616 334 q 589 489 616 444 q 517 560 562 533 q 417 588 472 588 q 317 560 363 588 q 245 489 272 533 q 218 389 218 444 q 245 289 218 334 q 317 217 272 244 q 417 190 363 190 m 703 735 l 763 674 l 131 42 l 71 103 l 703 735 z "},"ŋ":{"ha":887,"x_min":129,"x_max":756,"o":"m 528 -349 q 428 -337 474 -349 q 334 -306 382 -325 l 337 -164 q 411 -193 372 -181 q 488 -206 450 -206 q 566 -176 539 -206 q 592 -78 592 -147 l 592 353 l 756 353 l 756 -81 q 696 -287 756 -225 q 528 -349 636 -349 m 592 0 l 592 394 q 556 508 592 469 q 461 546 519 546 q 374 519 412 546 q 315 437 336 492 q 293 301 293 383 l 239 301 q 272 520 239 433 q 364 650 304 607 q 504 693 424 693 q 643 656 588 693 q 727 551 699 619 q 756 394 756 484 l 756 0 l 592 0 m 129 0 l 129 674 l 272 674 l 293 540 l 293 0 l 129 0 z "},"ę":{"ha":736,"x_min":65,"x_max":675,"o":"m 381 -19 q 223 25 294 -19 q 108 150 151 69 q 65 338 65 230 q 108 528 65 449 q 222 651 151 608 q 381 693 294 693 q 520 661 461 693 q 614 573 578 628 q 663 449 650 518 q 664 306 675 379 l 196 306 l 196 394 l 548 394 l 516 374 q 513 440 518 406 q 493 501 508 473 q 452 545 478 528 q 383 563 425 563 q 299 538 333 563 q 246 469 264 513 q 228 372 228 426 l 228 307 q 245 206 228 250 q 295 138 262 163 q 381 113 329 113 q 461 135 428 113 q 503 201 494 157 l 668 201 q 619 86 658 136 q 519 9 581 37 q 381 -19 458 -19 m 549 -226 q 457 -262 504 -250 q 365 -275 410 -275 q 242 -242 291 -275 q 194 -147 194 -208 q 230 -49 194 -97 q 335 27 265 -1 l 460 0 q 346 -54 388 -25 q 304 -118 304 -83 q 327 -156 304 -145 q 378 -167 350 -167 q 439 -157 408 -167 q 511 -125 469 -147 l 549 -226 z "},"ð":{"ha":788,"x_min":71,"x_max":732,"o":"m 382 -19 q 227 25 298 -19 q 114 151 156 70 q 71 342 71 233 q 111 527 71 448 q 217 649 151 606 q 363 693 284 693 q 502 648 443 693 q 593 528 561 603 q 626 358 626 452 l 574 358 q 548 464 574 422 q 483 526 522 506 q 403 546 444 546 q 317 520 354 546 q 258 448 279 494 q 236 339 236 401 q 258 229 236 276 q 317 156 279 182 q 404 129 355 129 q 493 158 457 129 q 550 236 530 188 q 573 344 570 285 q 565 545 576 449 q 518 729 553 641 q 420 899 483 817 q 256 1058 356 981 l 394 1151 q 549 979 485 1068 q 654 799 614 890 q 713 618 694 708 q 732 445 732 528 q 703 246 732 333 q 625 101 674 160 q 513 11 576 42 q 382 -19 450 -19 m 291 772 l 244 872 l 676 1088 l 723 988 l 291 772 z "},"€":{"ha":880,"x_min":28,"x_max":840,"o":"m 482 -19 q 277 37 365 -19 q 141 199 190 94 q 93 453 93 305 q 143 709 93 606 q 282 866 194 813 q 482 919 369 919 q 727 843 638 919 q 840 644 815 767 l 665 613 q 597 727 644 683 q 482 771 550 771 q 375 736 424 771 q 298 630 327 701 q 269 453 269 559 q 294 281 269 353 q 367 169 319 208 q 482 131 415 131 q 617 177 568 131 q 665 297 665 224 l 840 297 q 797 126 840 197 q 673 18 753 56 q 482 -19 593 -19 m 28 326 l 28 419 l 521 419 l 521 326 l 28 326 m 28 479 l 28 572 l 521 572 l 521 479 l 28 479 z "},"¡":{"ha":407,"x_min":94,"x_max":325,"o":"m 138 601 l 119 -15 l 297 -15 l 278 601 l 138 601 m 209 918 q 126 887 158 918 q 94 808 94 856 q 126 731 94 763 q 209 699 158 699 q 292 731 258 699 q 325 808 325 763 q 292 887 325 856 q 209 918 258 918 z "},"ﬁ":{"ha":967,"x_min":68,"x_max":837,"o":"m 168 0 l 168 756 q 197 874 168 828 q 272 942 225 920 q 374 964 319 964 q 444 959 408 964 q 514 947 480 954 l 482 821 q 446 831 465 827 q 410 835 427 835 q 373 827 390 835 q 344 802 356 820 q 333 753 333 784 l 333 0 l 168 0 m 68 565 l 68 674 l 457 674 l 457 565 l 68 565 m 735 797 q 661 823 688 797 q 634 893 634 848 q 661 963 634 937 q 735 989 688 989 q 810 963 783 989 q 837 893 837 937 q 810 823 837 848 q 735 797 783 797 m 653 0 l 653 676 l 817 676 l 817 0 l 653 0 z "},"⅝":{"ha":1529,"x_min":79,"x_max":1463,"o":"m 280 397 q 176 418 222 397 q 106 477 131 438 q 79 571 81 516 l 179 571 q 208 508 179 529 q 280 488 237 488 q 355 517 326 488 q 383 590 383 547 q 272 674 383 674 l 106 674 l 131 952 l 456 952 l 456 862 l 210 862 l 230 890 l 214 728 l 206 738 q 253 744 226 742 q 301 747 281 747 q 435 706 385 747 q 485 590 485 666 q 459 492 485 536 q 388 423 433 449 q 280 397 342 397 m 1233 -19 q 1066 26 1128 -19 q 1003 139 1003 71 q 1048 229 1003 197 q 1160 261 1093 261 q 1192 258 1177 261 q 1227 250 1207 256 l 1227 226 q 1140 203 1174 226 q 1105 149 1105 181 q 1142 92 1105 113 q 1233 71 1180 71 q 1329 88 1298 71 q 1360 131 1360 105 q 1345 167 1360 152 q 1303 192 1330 182 l 1148 252 q 1091 282 1120 263 q 1041 330 1061 301 q 1022 398 1022 358 q 1077 506 1022 466 q 1233 547 1132 547 q 1340 526 1292 547 q 1415 471 1388 506 q 1443 390 1443 436 q 1405 308 1443 344 q 1298 273 1367 273 q 1268 276 1282 273 q 1238 283 1255 278 l 1238 312 q 1310 332 1279 312 q 1342 384 1342 351 q 1311 437 1342 417 q 1233 457 1281 457 q 1155 439 1187 457 q 1124 394 1124 421 q 1138 360 1124 374 q 1179 336 1152 347 l 1339 274 q 1431 221 1399 251 q 1463 137 1463 190 q 1402 25 1463 69 q 1233 -19 1342 -19 z "},"₅":{"ha":541,"x_min":79,"x_max":485,"o":"m 281 -19 q 177 1 222 -19 q 106 60 132 22 q 79 154 81 99 l 180 154 q 209 92 180 113 q 281 71 238 71 q 355 100 326 71 q 383 173 383 130 q 272 256 383 256 l 106 256 l 131 535 l 457 535 l 457 444 l 211 444 l 230 473 l 215 312 l 206 321 q 253 327 226 325 q 301 330 281 330 q 435 289 385 330 q 485 173 485 249 q 460 76 485 119 q 388 6 434 32 q 281 -19 342 -19 z "},"⁵":{"ha":541,"x_min":79,"x_max":485,"o":"m 280 347 q 177 367 222 347 q 107 426 132 387 q 80 521 81 465 l 180 521 q 209 458 180 479 q 280 437 238 437 q 355 466 326 437 q 384 539 384 496 q 272 623 384 623 l 106 623 l 132 901 l 457 901 l 457 811 l 211 811 l 230 839 l 214 678 l 206 687 q 254 694 226 692 q 301 696 281 696 q 435 656 385 696 q 485 539 485 615 q 460 441 485 485 q 388 372 434 398 q 280 347 342 347 z "},"ﬂ":{"ha":933,"x_min":68,"x_max":803,"o":"m 168 0 l 168 756 q 197 874 168 828 q 272 942 225 920 q 374 964 319 964 q 444 959 408 964 q 514 947 480 954 l 482 821 q 446 831 465 827 q 410 835 427 835 q 373 827 390 835 q 344 802 356 820 q 333 753 333 784 l 333 0 l 168 0 m 68 565 l 68 674 l 457 674 l 457 565 l 68 565 m 640 0 l 640 953 l 803 953 l 803 0 l 640 0 z "},"ƒ":{"ha":504,"x_min":-106,"x_max":508,"o":"m 15 565 l 22 674 l 411 674 l 404 565 l 15 565 m -106 -298 l -65 -172 q -30 -181 -48 -177 q 6 -185 -12 -185 q 44 -177 26 -185 q 74 -152 62 -170 q 89 -103 86 -134 l 149 756 q 185 874 153 828 q 266 942 217 920 q 369 964 315 964 q 438 959 402 964 q 508 947 474 954 l 467 821 q 432 831 450 827 q 396 835 413 835 q 358 827 376 835 q 328 802 340 820 q 314 753 316 784 l 254 -106 q 217 -225 249 -178 q 136 -293 185 -271 q 33 -315 88 -315 q -36 -310 0 -315 q -106 -298 -72 -305 z "},"₄":{"ha":518,"x_min":31,"x_max":498,"o":"m 308 549 l 403 549 l 403 205 l 498 205 l 498 120 l 403 120 l 403 0 l 306 0 l 306 120 l 31 120 l 31 195 l 308 549 m 311 402 l 147 195 l 311 195 l 311 402 z "},"⁴":{"ha":518,"x_min":31,"x_max":498,"o":"m 309 911 l 404 911 l 404 567 l 499 567 l 499 483 l 404 483 l 404 363 l 306 363 l 306 483 l 31 483 l 31 557 l 309 911 m 311 765 l 148 557 l 311 557 l 311 765 z "},"⁄":{"ha":395,"x_min":-202,"x_max":606,"o":"m -163 9 l 110 1110 l 239 1169 l -37 68 l -163 9 z "},"ğ":{"ha":808,"x_min":21,"x_max":781,"o":"m 389 -349 q 191 -317 273 -349 q 65 -233 108 -285 q 21 -121 21 -181 q 73 -10 21 -49 q 204 29 125 29 l 324 -15 q 219 -41 256 -15 q 182 -112 182 -67 q 237 -189 182 -160 q 389 -218 292 -218 q 510 -197 459 -218 q 590 -143 562 -176 q 618 -72 618 -110 q 601 -31 618 -47 q 550 -15 585 -15 l 324 -15 q 200 7 256 -15 q 111 66 144 28 q 78 149 78 103 q 101 222 78 191 q 166 269 125 253 q 257 286 206 286 l 299 232 q 260 224 278 232 q 230 201 242 216 q 218 163 218 185 q 242 117 218 135 q 324 100 265 100 l 550 100 q 719 60 658 100 q 781 -61 781 21 q 733 -200 781 -134 q 597 -307 685 -265 q 389 -349 509 -349 m 397 208 q 251 239 317 208 q 145 323 185 269 q 106 450 106 377 q 145 579 106 524 q 251 664 185 634 q 397 693 317 693 q 541 664 475 693 q 647 579 607 634 q 688 450 688 524 q 647 323 688 377 q 541 239 607 269 q 397 208 475 208 m 399 322 q 494 359 463 322 q 526 450 526 396 q 494 544 526 508 q 397 579 462 579 q 301 544 335 579 q 268 450 268 508 q 302 359 268 396 q 399 322 335 322 m 636 585 l 561 628 q 589 734 561 688 q 664 804 617 779 q 768 829 711 829 l 760 672 q 668 651 699 672 q 636 585 636 630 m 404 806 q 243 864 302 806 q 185 1023 185 922 l 314 1023 q 338 942 314 969 q 404 914 362 914 q 471 942 447 914 q 495 1023 495 969 l 624 1023 q 565 864 624 922 q 404 806 507 806 z "},"ģ":{"ha":808,"x_min":21,"x_max":781,"o":"m 389 -349 q 191 -317 273 -349 q 65 -233 108 -285 q 21 -121 21 -181 q 73 -10 21 -49 q 204 29 125 29 l 324 -15 q 219 -41 256 -15 q 182 -112 182 -67 q 237 -189 182 -160 q 389 -218 292 -218 q 510 -197 459 -218 q 590 -143 562 -176 q 618 -72 618 -110 q 601 -31 618 -47 q 550 -15 585 -15 l 324 -15 q 200 7 256 -15 q 111 66 144 28 q 78 149 78 103 q 101 222 78 191 q 166 269 125 253 q 257 286 206 286 l 299 232 q 260 224 278 232 q 230 201 242 216 q 218 163 218 185 q 242 117 218 135 q 324 100 265 100 l 550 100 q 719 60 658 100 q 781 -61 781 21 q 733 -200 781 -134 q 597 -307 685 -265 q 389 -349 509 -349 m 397 208 q 251 239 317 208 q 145 323 185 269 q 106 450 106 377 q 145 579 106 524 q 251 664 185 634 q 397 693 317 693 q 541 664 475 693 q 647 579 607 634 q 688 450 688 524 q 647 323 688 377 q 541 239 607 269 q 397 208 475 208 m 399 322 q 494 359 463 322 q 526 450 526 396 q 494 544 526 508 q 397 579 462 579 q 301 544 335 579 q 268 450 268 508 q 302 359 268 396 q 399 322 335 322 m 636 585 l 561 628 q 589 734 561 688 q 664 804 617 779 q 768 829 711 829 l 760 672 q 668 651 699 672 q 636 585 636 630 m 417 972 l 492 933 q 433 895 458 916 q 397 847 407 874 q 441 826 424 842 q 456 783 458 809 q 432 736 454 755 q 378 718 410 718 q 317 746 339 718 q 298 814 295 774 q 331 902 300 858 q 417 972 363 947 z "},"ġ":{"ha":808,"x_min":21,"x_max":781,"o":"m 389 -349 q 191 -317 273 -349 q 65 -233 108 -285 q 21 -121 21 -181 q 73 -10 21 -49 q 204 29 125 29 l 324 -15 q 219 -41 256 -15 q 182 -112 182 -67 q 237 -189 182 -160 q 389 -218 292 -218 q 510 -197 459 -218 q 590 -143 562 -176 q 618 -72 618 -110 q 601 -31 618 -47 q 550 -15 585 -15 l 324 -15 q 200 7 256 -15 q 111 66 144 28 q 78 149 78 103 q 101 222 78 191 q 166 269 125 253 q 257 286 206 286 l 299 232 q 260 224 278 232 q 230 201 242 216 q 218 163 218 185 q 242 117 218 135 q 324 100 265 100 l 550 100 q 719 60 658 100 q 781 -61 781 21 q 733 -200 781 -134 q 597 -307 685 -265 q 389 -349 509 -349 m 397 208 q 251 239 317 208 q 145 323 185 269 q 106 450 106 377 q 145 579 106 524 q 251 664 185 634 q 397 693 317 693 q 541 664 475 693 q 647 579 607 634 q 688 450 688 524 q 647 323 688 377 q 541 239 607 269 q 397 208 475 208 m 399 322 q 494 359 463 322 q 526 450 526 396 q 494 544 526 508 q 397 579 462 579 q 301 544 335 579 q 268 450 268 508 q 302 359 268 396 q 399 322 335 322 m 636 585 l 561 628 q 589 734 561 688 q 664 804 617 779 q 768 829 711 829 l 760 672 q 668 651 699 672 q 636 585 636 630 m 300 907 q 331 984 300 953 q 412 1016 363 1016 q 494 984 461 1016 q 526 907 526 953 q 494 831 526 861 q 412 800 461 800 q 331 831 363 800 q 300 907 300 862 z "},"ß":{"ha":901,"x_min":129,"x_max":832,"o":"m 727 747 q 709 663 727 697 q 668 604 691 628 q 627 558 644 579 q 609 514 609 538 q 632 467 609 488 q 688 426 654 447 q 754 378 721 406 q 809 313 787 351 q 832 216 832 274 q 794 91 832 144 q 696 10 756 39 q 568 -18 636 -18 q 481 -8 528 -18 q 393 22 433 3 l 394 153 q 473 112 436 125 q 545 99 509 99 q 607 113 583 99 q 641 148 631 126 q 651 198 651 170 q 631 273 651 242 q 580 328 610 304 q 519 374 549 351 q 468 423 489 396 q 448 488 448 450 q 467 552 448 525 q 513 602 487 578 q 558 654 538 626 q 577 722 577 682 q 539 802 577 773 q 438 831 500 831 q 327 783 358 831 q 295 630 295 735 l 295 0 l 129 0 l 129 633 q 167 814 129 742 q 275 923 205 887 q 445 960 346 960 q 595 933 532 960 q 693 859 658 907 q 727 747 727 811 z "},"̀":{"ha":0,"x_min":65,"x_max":434,"o":"m 356 776 l 65 1010 l 174 1099 l 434 840 l 356 776 z "},"≥":{"ha":703,"x_min":99,"x_max":601,"o":"m 132 199 l 99 331 l 510 463 l 510 404 l 99 538 l 132 669 l 599 494 l 599 372 l 132 199 m 118 0 l 118 124 l 601 124 l 601 0 l 118 0 z "},"«":{"ha":865,"x_min":65,"x_max":799,"o":"m 219 353 l 463 591 l 353 674 l 65 375 l 353 75 l 463 158 l 219 397 l 219 353 m 556 353 l 800 591 l 690 674 l 402 375 l 690 75 l 800 158 l 556 397 l 556 353 z "},"»":{"ha":865,"x_min":65,"x_max":799,"o":"m 646 353 l 401 591 l 512 674 l 799 375 l 512 75 l 401 158 l 646 397 l 646 353 m 310 353 l 65 591 l 176 674 l 463 375 l 176 75 l 65 158 l 310 397 l 310 353 z "},"‹":{"ha":528,"x_min":65,"x_max":463,"o":"m 219 353 l 463 591 l 353 674 l 65 375 l 353 75 l 463 158 l 219 397 l 219 353 z "},"›":{"ha":528,"x_min":65,"x_max":463,"o":"m 176 75 l 65 158 l 309 397 l 309 353 l 65 591 l 176 674 l 463 375 l 176 75 z "},"ħ":{"ha":865,"x_min":44,"x_max":756,"o":"m 592 0 l 592 394 q 556 508 592 469 q 461 546 519 546 q 374 519 412 546 q 315 437 336 492 q 293 301 293 383 l 239 301 q 272 520 239 433 q 364 650 304 607 q 504 693 424 693 q 643 656 588 693 q 727 551 699 619 q 756 394 756 484 l 756 0 l 592 0 m 129 0 l 129 953 l 293 953 l 293 0 l 129 0 m 44 744 l 44 851 l 408 851 l 408 744 l 44 744 z "},"˝":{"ha":459,"x_min":65,"x_max":394,"o":"m 337 769 l 255 784 l 279 1019 l 394 992 l 337 769 m 149 780 l 65 792 l 74 1029 l 190 1010 l 149 780 z "},"̋":{"ha":0,"x_min":65,"x_max":394,"o":"m 337 769 l 255 784 l 279 1019 l 394 992 l 337 769 m 149 780 l 65 792 l 74 1029 l 190 1010 l 149 780 z "},"ı":{"ha":456,"x_min":143,"x_max":307,"o":"m 143 0 l 143 676 l 307 676 l 307 0 l 143 0 z "},"ī":{"ha":456,"x_min":66,"x_max":383,"o":"m 143 0 l 143 676 l 307 676 l 307 0 l 143 0 m 66 945 l 383 945 l 383 811 l 66 811 l 66 945 z "},"∞":{"ha":939,"x_min":31,"x_max":908,"o":"m 254 133 q 151 156 202 133 q 65 227 99 179 q 31 351 31 276 q 65 475 31 426 q 151 546 99 523 q 254 569 202 569 q 337 554 294 569 q 419 505 380 540 q 488 408 458 469 l 450 408 q 519 505 480 469 q 602 554 558 540 q 684 569 645 569 q 788 546 737 569 q 874 475 840 523 q 908 351 908 426 q 874 227 908 276 q 788 156 840 179 q 684 133 737 133 q 602 147 645 133 q 519 197 558 162 q 451 293 481 232 l 488 293 q 419 197 459 232 q 337 147 380 162 q 254 133 294 133 m 281 240 q 375 274 329 240 q 456 381 420 308 l 456 322 q 375 428 420 395 q 281 462 329 462 q 225 451 253 462 q 178 416 197 440 q 158 351 158 392 q 178 286 158 310 q 225 251 197 261 q 281 240 253 240 m 658 240 q 713 251 685 240 q 761 286 742 261 q 780 351 780 310 q 761 416 780 392 q 713 451 742 440 q 658 462 685 462 q 564 428 609 462 q 482 322 518 395 l 482 381 q 564 274 518 308 q 658 240 609 240 z "},"∫":{"ha":675,"x_min":31,"x_max":644,"o":"m 31 -298 l 72 -172 q 107 -181 89 -177 q 142 -185 125 -185 q 180 -177 163 -185 q 210 -152 198 -170 q 225 -103 223 -134 l 285 756 q 322 874 290 828 q 402 942 353 920 q 506 964 451 964 q 575 959 539 964 q 644 947 610 954 l 603 821 q 568 831 587 827 q 532 835 550 835 q 495 827 513 835 q 465 802 477 820 q 450 753 452 784 l 390 -106 q 353 -225 385 -178 q 273 -293 322 -271 q 169 -315 224 -315 q 101 -310 137 -315 q 31 -298 65 -305 z "},"į":{"ha":456,"x_min":40,"x_max":396,"o":"m 143 0 l 143 676 l 307 676 l 307 0 l 143 0 m 120 907 q 152 984 120 953 q 232 1016 183 1016 q 314 984 281 1016 q 346 907 346 953 q 314 831 346 861 q 232 800 281 800 q 152 831 183 800 q 120 907 120 862 m 396 -226 q 304 -262 351 -250 q 212 -275 257 -275 q 89 -242 138 -275 q 40 -147 40 -208 q 76 -49 40 -97 q 181 27 112 -1 l 306 0 q 193 -54 235 -25 q 151 -118 151 -83 q 174 -156 151 -145 q 224 -167 197 -167 q 285 -157 254 -167 q 358 -125 316 -147 l 396 -226 z "},"ȷ":{"ha":465,"x_min":-106,"x_max":317,"o":"m 89 -349 q -11 -337 35 -349 q -106 -306 -58 -325 l -103 -164 q -28 -193 -67 -181 q 49 -206 11 -206 q 126 -176 99 -206 q 153 -78 153 -147 l 153 676 l 317 676 l 317 -81 q 257 -287 317 -225 q 89 -349 197 -349 z "},"ķ":{"ha":822,"x_min":129,"x_max":799,"o":"m 129 0 l 129 953 l 293 953 l 293 0 l 129 0 m 271 418 l 560 674 l 782 674 l 271 249 l 271 418 m 599 0 l 297 429 l 453 467 l 799 0 l 599 0 m 378 -312 l 303 -273 q 363 -235 337 -256 q 398 -186 388 -214 q 354 -165 372 -182 q 339 -122 337 -149 q 363 -76 341 -94 q 417 -58 385 -58 q 478 -85 456 -58 q 497 -153 500 -113 q 464 -242 495 -198 q 378 -312 433 -286 z "},"ĺ":{"ha":423,"x_min":88,"x_max":457,"o":"m 129 0 l 129 953 l 293 953 l 293 0 l 129 0 m 167 1070 l 88 1134 l 348 1393 l 458 1304 l 167 1070 z "},"ľ":{"ha":423,"x_min":-31,"x_max":465,"o":"m 129 0 l 129 953 l 293 953 l 293 0 l 129 0 m 217 1072 l -31 1283 l 66 1360 l 245 1179 l 188 1179 l 368 1360 l 465 1283 l 217 1072 z "},"ļ":{"ha":423,"x_min":103,"x_max":300,"o":"m 129 0 l 129 953 l 293 953 l 293 0 l 129 0 m 178 -312 l 103 -273 q 163 -235 137 -256 q 198 -186 188 -214 q 154 -165 172 -182 q 139 -122 137 -149 q 163 -76 141 -94 q 217 -58 185 -58 q 278 -85 256 -58 q 297 -153 300 -113 q 264 -242 295 -198 q 178 -312 233 -286 z "},"≤":{"ha":703,"x_min":101,"x_max":604,"o":"m 572 199 l 104 372 l 104 494 l 572 669 l 604 538 l 193 404 l 193 463 l 604 331 l 572 199 m 101 0 l 101 124 l 585 124 l 585 0 l 101 0 z "},"¬":{"ha":833,"x_min":152,"x_max":645,"o":"m 152 469 l 645 469 l 645 206 l 537 206 l 537 381 l 570 345 l 152 345 l 152 469 z "},"◊":{"ha":813,"x_min":65,"x_max":749,"o":"m 65 451 l 342 901 l 474 901 l 749 451 l 474 0 l 342 0 l 65 451 m 227 419 l 227 482 l 428 143 l 388 143 l 587 482 l 587 419 l 388 758 l 428 758 l 227 419 z "},"ł":{"ha":423,"x_min":22,"x_max":421,"o":"m 42 501 l 22 605 l 400 668 l 421 564 l 42 501 m 129 0 l 129 953 l 293 953 l 293 0 l 129 0 z "},"¯":{"ha":611,"x_min":65,"x_max":546,"o":"m 66 945 l 546 945 l 546 811 l 66 811 l 66 945 z "},"̄":{"ha":0,"x_min":181,"x_max":660,"o":"m 181 945 l 660 945 l 660 811 l 181 811 l 181 945 z "},"µ":{"ha":871,"x_min":115,"x_max":742,"o":"z "},"μ":{"ha":871,"x_min":115,"x_max":742,"o":"m 578 676 l 742 676 l 742 0 l 578 0 l 578 676 m 115 676 l 279 676 l 279 263 q 312 164 279 197 q 401 131 344 131 q 490 156 450 131 q 554 231 530 181 q 578 354 578 281 l 622 354 q 590 149 622 231 q 502 28 558 68 q 372 -12 446 -12 q 242 13 300 -12 q 149 96 183 39 q 115 246 115 153 l 115 676 m 115 -276 l 115 676 l 279 676 l 279 -276 l 115 -276 z "},"×":{"ha":756,"x_min":82,"x_max":675,"o":"m 197 63 l 82 179 l 263 360 l 82 539 l 197 656 l 378 475 l 558 656 l 675 539 l 493 360 l 675 179 l 558 63 l 378 243 l 197 63 z "},"ń":{"ha":865,"x_min":129,"x_max":756,"o":"m 592 0 l 592 394 q 556 508 592 469 q 461 546 519 546 q 374 519 412 546 q 315 437 336 492 q 293 301 293 383 l 239 301 q 272 520 239 433 q 364 650 304 607 q 504 693 424 693 q 643 656 588 693 q 727 551 699 619 q 756 394 756 484 l 756 0 l 592 0 m 129 0 l 129 674 l 272 674 l 293 540 l 293 0 l 129 0 m 398 778 l 319 842 l 579 1101 l 689 1013 l 398 778 z "},"ň":{"ha":865,"x_min":129,"x_max":756,"o":"m 592 0 l 592 394 q 556 508 592 469 q 461 546 519 546 q 374 519 412 546 q 315 437 336 492 q 293 301 293 383 l 239 301 q 272 520 239 433 q 364 650 304 607 q 504 693 424 693 q 643 656 588 693 q 727 551 699 619 q 756 394 756 484 l 756 0 l 592 0 m 129 0 l 129 674 l 272 674 l 293 540 l 293 0 l 129 0 m 448 780 l 201 992 l 297 1068 l 476 888 l 419 888 l 599 1068 l 696 992 l 448 780 z "},"ņ":{"ha":865,"x_min":129,"x_max":756,"o":"m 592 0 l 592 394 q 556 508 592 469 q 461 546 519 546 q 374 519 412 546 q 315 437 336 492 q 293 301 293 383 l 239 301 q 272 520 239 433 q 364 650 304 607 q 504 693 424 693 q 643 656 588 693 q 727 551 699 619 q 756 394 756 484 l 756 0 l 592 0 m 129 0 l 129 674 l 272 674 l 293 540 l 293 0 l 129 0 m 400 -312 l 324 -273 q 384 -235 358 -256 q 419 -186 410 -214 q 376 -165 393 -182 q 360 -122 358 -149 q 385 -76 363 -94 q 438 -58 407 -58 q 500 -85 478 -58 q 519 -153 522 -113 q 485 -242 517 -198 q 400 -312 454 -286 z "},"₉":{"ha":565,"x_min":74,"x_max":500,"o":"m 277 -19 q 177 2 222 -19 q 106 63 132 24 q 79 153 79 101 l 182 153 q 210 93 184 115 q 274 71 235 71 q 372 128 343 71 q 401 281 401 186 q 401 305 401 293 q 398 330 400 317 q 344 232 386 261 q 246 202 301 202 q 122 250 170 202 q 74 374 74 298 q 128 499 74 451 q 269 546 183 546 q 386 512 334 546 q 469 416 438 478 q 500 272 500 355 q 444 60 500 139 q 277 -19 389 -19 m 269 283 q 336 307 308 283 q 365 369 365 331 q 336 432 365 409 q 269 456 308 456 q 203 432 231 456 q 175 369 175 409 q 203 306 175 328 q 269 283 231 283 z "},"⁹":{"ha":565,"x_min":74,"x_max":500,"o":"m 278 354 q 177 376 222 354 q 106 436 132 397 q 79 526 79 475 l 182 526 q 210 466 184 488 q 274 444 235 444 q 348 470 320 444 q 389 543 376 496 q 401 654 401 591 q 401 678 401 666 q 398 703 400 690 q 368 629 390 657 q 314 588 346 601 q 246 575 283 575 q 157 597 195 575 q 96 658 118 619 q 74 747 74 697 q 98 838 74 799 q 167 898 123 876 q 269 919 212 919 q 360 900 318 919 q 433 844 402 880 q 482 757 465 807 q 500 646 500 707 q 476 491 500 556 q 401 389 451 425 q 278 354 352 354 m 270 656 q 317 667 296 656 q 352 697 339 678 q 365 742 365 717 q 336 805 365 782 q 269 829 308 829 q 203 805 230 829 q 176 742 176 782 q 203 679 176 702 q 270 656 231 656 z "},"≠":{"ha":703,"x_min":110,"x_max":593,"o":"m 110 275 l 593 275 l 593 133 l 110 133 l 110 275 m 110 567 l 593 567 l 593 425 l 110 425 l 110 567 m 190 44 l 411 671 l 517 671 l 297 44 l 190 44 z "},"œ":{"ha":1176,"x_min":65,"x_max":1115,"o":"m 379 -19 q 220 20 291 -19 q 107 139 149 60 q 66 336 66 217 q 107 536 66 457 q 220 654 149 615 q 379 693 291 693 q 536 654 466 693 q 648 536 607 615 q 690 336 690 457 q 648 139 690 217 q 536 20 607 60 q 379 -19 466 -19 m 374 124 q 456 148 420 124 q 513 219 492 172 q 534 336 534 266 q 494 497 534 443 q 384 551 454 551 q 301 527 337 551 q 244 456 265 503 q 223 336 223 408 q 264 177 223 231 q 374 124 304 124 m 834 -19 q 684 25 752 -19 q 575 150 616 69 q 534 338 534 230 q 574 528 534 449 q 683 651 615 608 q 834 693 751 693 q 967 661 911 693 q 1057 573 1022 628 q 1102 449 1091 518 q 1104 306 1114 379 l 658 306 l 658 394 l 993 394 l 963 374 q 960 440 965 406 q 941 501 955 473 q 902 545 927 528 q 837 563 876 563 q 756 538 789 563 q 706 469 723 513 q 688 372 688 426 l 688 307 q 705 206 688 250 q 753 138 721 163 q 834 113 785 113 q 911 135 880 113 q 950 201 942 157 l 1108 201 q 1061 86 1098 136 q 966 9 1024 37 q 834 -19 908 -19 z "},"˛":{"ha":486,"x_min":65,"x_max":421,"o":"m 421 -254 q 329 -291 376 -278 q 237 -303 282 -303 q 114 -270 163 -303 q 65 -175 65 -237 q 101 -77 65 -125 q 206 -1 137 -30 l 331 -28 q 218 -82 260 -53 q 176 -147 176 -111 q 199 -184 176 -174 q 249 -195 222 -195 q 310 -185 279 -195 q 383 -153 341 -176 l 421 -254 z "},"̨":{"ha":0,"x_min":65,"x_max":421,"o":"m 421 -254 q 329 -291 376 -278 q 237 -303 282 -303 q 114 -270 163 -303 q 65 -175 65 -237 q 101 -77 65 -125 q 206 -1 137 -30 l 331 -28 q 218 -82 260 -53 q 176 -147 176 -111 q 199 -184 176 -174 q 249 -195 222 -195 q 310 -185 279 -195 q 383 -153 341 -176 l 421 -254 z "},"ő":{"ha":786,"x_min":65,"x_max":721,"o":"m 394 -19 q 227 20 302 -19 q 109 139 153 60 q 65 336 65 217 q 109 536 65 457 q 227 654 153 615 q 394 693 302 693 q 559 654 485 693 q 677 536 633 615 q 721 336 721 457 q 677 139 721 217 q 559 20 633 60 q 394 -19 485 -19 m 389 124 q 475 148 438 124 q 535 219 513 172 q 557 336 557 266 q 515 497 557 443 q 400 551 473 551 q 313 527 351 551 q 252 456 274 503 q 231 336 231 408 q 273 177 231 231 q 389 124 316 124 m 518 769 l 436 784 l 460 1019 l 575 992 l 518 769 m 331 780 l 247 792 l 255 1029 l 372 1010 l 331 780 z "},"ō":{"ha":786,"x_min":65,"x_max":721,"o":"m 394 -19 q 227 20 302 -19 q 109 139 153 60 q 65 336 65 217 q 109 536 65 457 q 227 654 153 615 q 394 693 302 693 q 559 654 485 693 q 677 536 633 615 q 721 336 721 457 q 677 139 721 217 q 559 20 633 60 q 394 -19 485 -19 m 389 124 q 475 148 438 124 q 535 219 513 172 q 557 336 557 266 q 515 497 557 443 q 400 551 473 551 q 313 527 351 551 q 252 456 274 503 q 231 336 231 408 q 273 177 231 231 q 389 124 316 124 m 153 945 l 633 945 l 633 811 l 153 811 l 153 945 z "},"⅛":{"ha":1363,"x_min":58,"x_max":1295,"o":"m 169 963 l 243 963 l 243 417 l 144 417 l 144 845 q 101 830 122 835 q 58 824 80 824 l 58 919 q 114 932 87 922 q 169 963 141 942 m 210 9 l 483 1110 l 612 1169 l 336 68 l 210 9 m 1065 -19 q 898 26 960 -19 q 836 139 836 71 q 881 229 836 197 q 992 261 926 261 q 1025 258 1010 261 q 1060 250 1040 256 l 1060 226 q 972 203 1007 226 q 938 149 938 181 q 975 92 938 113 q 1065 71 1013 71 q 1162 88 1131 71 q 1193 131 1193 105 q 1178 167 1193 152 q 1135 192 1163 182 l 981 252 q 923 282 953 263 q 874 330 894 301 q 854 398 854 358 q 909 506 854 466 q 1065 547 965 547 q 1173 526 1125 547 q 1248 471 1220 506 q 1276 390 1276 436 q 1238 308 1276 344 q 1131 273 1199 273 q 1101 276 1115 273 q 1070 283 1088 278 l 1070 312 q 1143 332 1112 312 q 1174 384 1174 351 q 1144 437 1174 417 q 1065 457 1113 457 q 988 439 1019 457 q 956 394 956 421 q 970 360 956 374 q 1012 336 985 347 l 1172 274 q 1263 221 1231 251 q 1295 137 1295 190 q 1235 25 1295 69 q 1065 -19 1174 -19 z "},"½":{"ha":1337,"x_min":58,"x_max":1264,"o":"m 169 963 l 243 963 l 243 417 l 144 417 l 144 845 q 101 830 122 835 q 58 824 80 824 l 58 919 q 114 932 87 922 q 169 963 141 942 m 210 9 l 483 1110 l 612 1169 l 336 68 l 210 9 m 851 0 l 851 93 q 882 200 851 161 q 976 262 913 238 l 1086 305 q 1140 340 1123 319 q 1158 394 1158 362 q 1135 447 1158 425 q 1070 468 1112 468 q 1001 448 1028 468 q 970 388 974 427 l 861 388 q 890 481 862 444 q 964 536 917 517 q 1068 554 1010 554 q 1167 534 1123 554 q 1238 476 1212 513 q 1264 390 1264 439 q 1230 286 1264 326 q 1124 217 1195 245 l 1012 174 q 965 147 979 162 q 950 106 950 131 l 950 90 l 1260 90 l 1260 0 l 851 0 z "},"₁":{"ha":373,"x_min":58,"x_max":243,"o":"m 169 547 l 243 547 l 243 0 l 144 0 l 144 428 q 101 413 122 419 q 58 407 80 408 l 58 502 q 114 515 87 505 q 169 547 141 526 z "},"¼":{"ha":1287,"x_min":58,"x_max":1267,"o":"m 169 963 l 243 963 l 243 417 l 144 417 l 144 845 q 101 830 122 835 q 58 824 80 824 l 58 919 q 114 932 87 922 q 169 963 141 942 m 210 9 l 483 1110 l 612 1169 l 336 68 l 210 9 m 1077 549 l 1172 549 l 1172 205 l 1267 205 l 1267 120 l 1172 120 l 1172 0 l 1074 0 l 1074 120 l 799 120 l 799 195 l 1077 549 m 1078 402 l 916 195 l 1078 195 l 1078 402 z "},"¹":{"ha":373,"x_min":58,"x_max":243,"o":"m 169 907 l 243 907 l 243 360 l 144 360 l 144 789 q 101 773 122 779 q 58 768 79 768 l 58 862 q 113 876 87 865 q 169 907 140 886 z "},"ª":{"ha":813,"x_min":76,"x_max":701,"o":"m 558 0 l 538 164 l 538 435 q 509 540 538 506 q 411 574 480 574 q 342 562 372 574 q 298 528 313 550 q 282 475 282 506 l 103 475 q 140 600 103 551 q 245 670 176 648 q 411 693 315 693 q 564 665 499 693 q 665 578 629 637 q 701 429 701 520 l 701 0 l 558 0 m 338 -19 q 193 11 251 -19 q 106 90 135 41 q 76 197 76 140 q 110 305 76 261 q 206 370 144 348 q 351 392 267 392 q 455 383 406 392 q 553 361 504 375 l 553 265 q 469 285 515 278 q 385 292 424 292 q 289 270 326 292 q 251 197 251 249 q 282 133 251 160 q 379 106 313 106 q 465 128 430 106 q 519 183 501 150 q 538 250 538 217 l 576 250 q 549 116 576 177 q 469 17 522 54 q 338 -19 416 -19 z "},"º":{"ha":786,"x_min":65,"x_max":721,"o":"m 394 -19 q 227 20 302 -19 q 109 139 153 60 q 65 336 65 217 q 109 536 65 457 q 227 654 153 615 q 394 693 302 693 q 559 654 485 693 q 677 536 633 615 q 721 336 721 457 q 677 139 721 217 q 559 20 633 60 q 394 -19 485 -19 m 389 124 q 475 148 438 124 q 535 219 513 172 q 557 336 557 266 q 515 497 557 443 q 400 551 473 551 q 313 527 351 551 q 252 456 274 503 q 231 336 231 408 q 273 177 231 231 q 389 124 316 124 z "},"ø":{"ha":786,"x_min":65,"x_max":792,"o":"m 394 -19 q 227 20 302 -19 q 109 139 153 60 q 65 336 65 217 q 109 536 65 457 q 227 654 153 615 q 394 693 302 693 q 559 654 485 693 q 677 536 633 615 q 721 336 721 457 q 677 139 721 217 q 559 20 633 60 q 394 -19 485 -19 m 389 124 q 475 148 438 124 q 535 219 513 172 q 557 336 557 266 q 515 497 557 443 q 400 551 473 551 q 313 527 351 551 q 252 456 274 503 q 231 336 231 408 q 273 177 231 231 q 389 124 316 124 m 93 15 l 418 774 l 571 810 l 243 50 l 93 15 z "},"¶":{"ha":833,"x_min":50,"x_max":709,"o":"m 373 328 q 135 403 220 328 q 50 615 50 478 q 135 827 50 752 q 373 901 220 901 l 686 901 l 686 754 l 461 754 l 461 328 l 373 328 m 377 -175 l 377 901 l 499 901 l 499 -175 l 377 -175 m 588 -175 l 588 901 l 709 901 l 709 -175 l 588 -175 z "},"∂":{"ha":781,"x_min":71,"x_max":732,"o":"m 382 -19 q 227 25 298 -19 q 114 151 156 70 q 71 342 71 233 q 111 527 71 448 q 217 649 151 606 q 363 693 284 693 q 502 648 443 693 q 593 528 561 603 q 626 358 626 452 l 574 358 q 548 464 574 422 q 483 526 522 506 q 403 546 444 546 q 317 520 354 546 q 258 448 279 494 q 236 339 236 401 q 258 229 236 276 q 317 156 279 182 q 404 129 355 129 q 493 158 457 129 q 550 236 530 188 q 573 344 570 285 q 565 545 576 449 q 518 729 553 641 q 420 899 483 817 q 256 1058 356 981 l 394 1151 q 549 979 485 1068 q 654 799 614 890 q 713 618 694 708 q 732 445 732 528 q 703 246 732 333 q 625 101 674 160 q 513 11 576 42 q 382 -19 450 -19 z "},"·":{"ha":299,"x_min":33,"x_max":264,"o":"m 33 369 q 65 449 33 417 q 147 481 97 481 q 231 449 197 481 q 264 369 264 417 q 231 292 264 323 q 147 261 197 261 q 65 292 97 261 q 33 369 33 324 z "},"‰":{"ha":1737,"x_min":65,"x_max":1672,"o":"m 935 -19 q 773 50 835 -19 q 710 263 710 120 q 773 477 710 407 q 935 547 835 547 q 1098 477 1035 547 q 1160 263 1160 407 q 1098 50 1160 120 q 935 -19 1035 -19 m 935 71 q 1026 120 994 71 q 1058 263 1058 170 q 1026 407 1058 357 q 935 457 994 457 q 844 407 876 457 q 811 263 811 357 q 844 120 811 170 q 935 71 876 71 m 1447 -19 q 1284 50 1347 -19 q 1222 263 1222 120 q 1284 477 1222 407 q 1447 547 1347 547 q 1609 477 1547 547 q 1672 263 1672 407 q 1609 50 1672 120 q 1447 -19 1547 -19 m 1447 71 q 1538 120 1506 71 q 1570 263 1570 170 q 1538 407 1570 357 q 1447 457 1506 457 q 1356 407 1388 457 q 1323 263 1323 357 q 1356 120 1323 170 q 1447 71 1388 71 m 252 9 l 526 1110 l 654 1169 l 379 68 l 252 9 z "},"π":{"ha":873,"x_min":31,"x_max":852,"o":"m 761 -5 q 629 30 683 -5 q 547 130 575 65 q 519 285 519 195 l 519 675 l 683 675 l 683 285 q 719 176 683 210 q 805 142 754 142 l 761 -5 m 187 0 l 187 674 l 351 674 l 351 0 l 187 0 m 31 532 l 31 676 l 852 676 l 852 532 l 31 532 z "},"±":{"ha":703,"x_min":94,"x_max":608,"o":"m 288 763 l 415 763 l 415 550 l 608 550 l 608 444 l 415 444 l 415 233 l 288 233 l 288 444 l 94 444 l 94 550 l 288 550 l 288 763 m 106 124 l 599 124 l 599 0 l 106 0 l 106 124 z "},"∏":{"ha":911,"x_min":129,"x_max":781,"o":"m 129 -329 l 129 901 l 781 901 l 781 -329 l 618 -329 l 618 801 l 659 758 l 251 758 l 292 801 l 292 -329 l 129 -329 z "},"¿":{"ha":718,"x_min":33,"x_max":674,"o":"m 464 629 l 464 574 q 450 474 464 513 q 405 409 435 435 q 325 357 375 382 q 257 316 281 335 q 223 276 233 297 q 214 229 214 256 q 249 157 214 185 q 346 128 285 128 q 458 160 419 128 q 503 246 497 192 l 674 246 q 584 52 666 125 q 353 -21 503 -21 q 183 13 254 -21 q 72 103 111 46 q 33 231 33 160 q 70 353 33 303 q 183 442 106 403 q 254 485 228 465 q 290 529 279 505 q 300 589 300 553 l 300 629 l 464 629 m 378 918 q 460 887 428 918 q 492 810 492 856 q 460 732 492 763 q 378 700 428 700 q 294 732 328 700 q 261 810 261 763 q 294 887 261 856 q 378 918 328 918 z "},"„":{"ha":717,"x_min":50,"x_max":659,"o":"m 500 -189 l 379 -128 q 460 -75 425 -105 q 507 -7 496 -45 q 441 25 469 1 q 414 89 414 49 q 446 159 414 131 q 526 188 478 188 q 623 144 588 188 q 658 42 658 101 q 616 -89 658 -25 q 500 -189 574 -152 m 171 -189 l 50 -128 q 131 -75 96 -105 q 178 -7 167 -45 q 112 25 140 1 q 85 89 85 49 q 117 159 85 131 q 197 188 149 188 q 294 144 259 188 q 329 42 329 101 q 287 -89 329 -25 q 171 -189 244 -152 z "},"“":{"ha":682,"x_min":50,"x_max":624,"o":"m 476 526 q 407 547 437 526 q 361 602 377 568 q 344 676 344 636 q 390 806 344 744 q 510 906 436 868 l 624 842 q 543 790 578 820 q 494 721 508 760 q 561 691 534 715 q 589 628 589 667 q 557 556 589 586 q 476 526 526 526 m 182 526 q 113 547 142 526 q 66 602 83 568 q 50 676 50 636 q 96 806 50 744 q 215 906 142 868 l 329 842 q 249 790 283 820 q 200 721 214 760 q 267 691 240 715 q 294 628 294 667 q 263 556 294 586 q 182 526 231 526 z "},"”":{"ha":674,"x_min":50,"x_max":615,"o":"m 451 526 l 338 590 q 419 642 383 613 q 467 711 454 672 q 399 742 426 717 q 372 806 372 767 q 405 877 372 849 q 486 906 438 906 q 556 885 527 906 q 600 830 585 864 q 615 756 615 796 q 570 626 615 687 q 451 526 524 565 m 164 526 l 50 590 q 131 642 96 613 q 179 711 167 672 q 111 742 138 717 q 85 806 85 767 q 118 877 85 849 q 199 906 151 906 q 268 885 240 906 q 313 830 297 864 q 328 756 328 796 q 282 626 328 687 q 164 526 237 565 z "},"‚":{"ha":388,"x_min":50,"x_max":329,"o":"m 171 -189 l 50 -128 q 131 -75 96 -105 q 178 -7 167 -45 q 112 25 140 1 q 85 89 85 49 q 117 159 85 131 q 197 188 149 188 q 294 144 259 188 q 329 42 329 101 q 287 -89 329 -25 q 171 -189 244 -152 z "},"ŕ":{"ha":545,"x_min":129,"x_max":578,"o":"m 129 0 l 129 676 l 293 676 l 293 0 l 129 0 m 253 296 q 283 515 253 428 q 363 644 313 602 q 475 686 413 686 q 507 684 492 686 q 536 678 522 682 l 533 514 q 494 521 515 518 q 457 524 474 524 q 366 498 403 524 q 311 421 330 472 q 293 296 293 370 l 253 296 m 288 774 l 210 838 l 469 1097 l 579 1008 l 288 774 z "},"√":{"ha":854,"x_min":7,"x_max":847,"o":"m 318 1 l 165 335 l 223 269 l 50 208 l 7 303 l 284 423 l 431 103 l 360 103 l 711 1169 l 847 1169 l 448 1 l 318 1 z "},"ř":{"ha":545,"x_min":91,"x_max":586,"o":"m 129 0 l 129 676 l 293 676 l 293 0 l 129 0 m 253 296 q 283 515 253 428 q 363 644 313 602 q 475 686 413 686 q 507 684 492 686 q 536 678 522 682 l 533 514 q 494 521 515 518 q 457 524 474 524 q 366 498 403 524 q 311 421 330 472 q 293 296 293 370 l 253 296 m 338 775 l 91 987 l 188 1063 l 367 883 l 309 883 l 490 1063 l 586 987 l 338 775 z "},"ŗ":{"ha":545,"x_min":129,"x_max":536,"o":"m 129 0 l 129 676 l 293 676 l 293 0 l 129 0 m 253 296 q 283 515 253 428 q 363 644 313 602 q 475 686 413 686 q 507 684 492 686 q 536 678 522 682 l 533 514 q 494 521 515 518 q 457 524 474 524 q 366 498 403 524 q 311 421 330 472 q 293 296 293 370 l 253 296 m 323 -309 l 247 -270 q 307 -232 281 -253 q 342 -183 333 -211 q 299 -162 316 -179 q 283 -119 281 -146 q 308 -73 285 -92 q 361 -55 330 -55 q 423 -83 401 -55 q 442 -151 444 -110 q 408 -239 440 -195 q 323 -309 377 -283 z "},"®":{"ha":987,"x_min":33,"x_max":953,"o":"m 494 -8 q 315 27 399 -8 q 168 126 232 63 q 69 273 105 190 q 33 451 33 356 q 69 630 33 547 q 168 777 105 713 q 315 876 232 840 q 494 911 399 911 q 672 876 588 911 q 819 777 756 840 q 918 630 882 713 q 953 451 953 547 q 918 273 953 356 q 819 126 882 190 q 672 27 756 63 q 494 -8 588 -8 m 494 74 q 641 103 572 74 q 761 184 709 133 q 842 305 813 236 q 872 451 872 374 q 842 598 872 530 q 761 719 813 667 q 641 800 709 771 q 494 829 572 829 q 347 800 416 829 q 226 719 278 771 q 145 598 174 667 q 115 451 115 530 q 145 305 115 374 q 226 184 174 236 q 347 103 278 133 q 494 74 416 74 m 595 202 l 458 442 l 558 442 l 716 202 l 595 202 m 317 202 l 317 715 l 507 715 q 648 672 599 715 q 697 558 697 629 q 648 446 697 489 q 507 403 599 403 l 410 403 l 410 202 l 317 202 m 410 465 l 497 465 q 575 489 549 465 q 601 549 601 513 q 577 612 601 588 q 507 635 553 635 l 410 635 l 410 465 z "},"˚":{"ha":461,"x_min":65,"x_max":396,"o":"m 231 905 q 148 927 185 905 q 88 987 110 949 q 65 1070 65 1025 q 88 1153 65 1115 q 147 1213 110 1190 q 231 1235 185 1235 q 313 1213 276 1235 q 373 1153 351 1190 q 396 1070 396 1115 q 373 988 396 1025 q 313 927 351 950 q 231 905 276 905 m 231 1015 q 270 1031 254 1015 q 286 1070 286 1047 q 270 1110 286 1094 q 231 1126 254 1126 q 191 1110 207 1126 q 175 1070 175 1094 q 191 1031 175 1047 q 231 1015 207 1015 z "},"̊":{"ha":0,"x_min":65,"x_max":396,"o":"m 231 905 q 148 927 185 905 q 88 987 110 949 q 65 1070 65 1025 q 88 1153 65 1115 q 147 1213 110 1190 q 231 1235 185 1235 q 313 1213 276 1235 q 373 1153 351 1190 q 396 1070 396 1115 q 373 988 396 1025 q 313 927 351 950 q 231 905 276 905 m 231 1015 q 270 1031 254 1015 q 286 1070 286 1047 q 270 1110 286 1094 q 231 1126 254 1126 q 191 1110 207 1126 q 175 1070 175 1094 q 191 1031 175 1047 q 231 1015 207 1015 z "},"₨":{"ha":839,"x_min":115,"x_max":758,"o":"m 115 810 l 115 901 l 758 901 l 758 810 l 115 810 m 115 586 l 115 679 l 758 679 l 758 586 l 115 586 m 115 435 l 250 435 l 700 0 l 471 0 l 115 342 l 115 435 m 169 435 l 211 435 q 387 489 332 435 q 442 622 442 542 q 387 756 442 703 q 211 810 332 810 l 169 810 l 169 875 l 211 875 q 436 843 346 875 q 573 754 527 811 q 618 622 618 697 q 578 479 618 542 q 449 378 538 415 q 211 342 359 342 l 169 342 l 169 435 z "},"ś":{"ha":733,"x_min":68,"x_max":664,"o":"m 381 -19 q 214 7 283 -19 q 106 84 144 34 q 68 206 69 135 l 219 206 q 259 133 222 156 q 361 110 297 110 q 424 120 397 110 q 467 149 451 131 q 482 189 482 167 q 461 234 482 217 q 396 264 441 250 l 249 317 q 127 392 169 345 q 85 503 85 438 q 162 641 85 588 q 369 693 240 693 q 569 636 499 693 q 642 493 640 580 l 488 493 q 456 546 484 526 q 369 565 427 565 q 288 544 317 565 q 258 494 258 523 q 340 422 258 447 l 500 363 q 621 294 578 336 q 664 189 664 253 q 628 88 664 135 q 528 10 592 40 q 381 -19 465 -19 m 322 774 l 243 838 l 503 1097 l 613 1008 l 322 774 z "},"š":{"ha":733,"x_min":68,"x_max":664,"o":"m 381 -19 q 214 7 283 -19 q 106 84 144 34 q 68 206 69 135 l 219 206 q 259 133 222 156 q 361 110 297 110 q 424 120 397 110 q 467 149 451 131 q 482 189 482 167 q 461 234 482 217 q 396 264 441 250 l 249 317 q 127 392 169 345 q 85 503 85 438 q 162 641 85 588 q 369 693 240 693 q 569 636 499 693 q 642 493 640 580 l 488 493 q 456 546 484 526 q 369 565 427 565 q 288 544 317 565 q 258 494 258 523 q 340 422 258 447 l 500 363 q 621 294 578 336 q 664 189 664 253 q 628 88 664 135 q 528 10 592 40 q 381 -19 465 -19 m 372 775 l 124 987 l 221 1063 l 400 883 l 342 883 l 523 1063 l 619 987 l 372 775 z "},"ş":{"ha":733,"x_min":68,"x_max":664,"o":"m 381 -19 q 214 7 283 -19 q 106 84 144 34 q 68 206 69 135 l 219 206 q 259 133 222 156 q 361 110 297 110 q 424 120 397 110 q 467 149 451 131 q 482 189 482 167 q 461 234 482 217 q 396 264 441 250 l 249 317 q 127 392 169 345 q 85 503 85 438 q 162 641 85 588 q 369 693 240 693 q 569 636 499 693 q 642 493 640 580 l 488 493 q 456 546 484 526 q 369 565 427 565 q 288 544 317 565 q 258 494 258 523 q 340 422 258 447 l 500 363 q 621 294 578 336 q 664 189 664 253 q 628 88 664 135 q 528 10 592 40 q 381 -19 465 -19 m 231 -254 l 253 -197 q 337 -222 301 -219 q 395 -213 374 -225 q 419 -178 417 -201 q 406 -144 422 -159 q 362 -117 390 -129 q 295 -97 334 -106 l 349 56 l 422 45 l 372 -93 l 351 -51 q 460 -83 418 -62 q 520 -131 501 -103 q 536 -188 538 -158 q 502 -253 533 -228 q 423 -286 470 -278 q 325 -287 376 -294 q 231 -254 274 -279 z "},"ș":{"ha":733,"x_min":68,"x_max":664,"o":"m 381 -19 q 214 7 283 -19 q 106 84 144 34 q 68 206 69 135 l 219 206 q 259 133 222 156 q 361 110 297 110 q 424 120 397 110 q 467 149 451 131 q 482 189 482 167 q 461 234 482 217 q 396 264 441 250 l 249 317 q 127 392 169 345 q 85 503 85 438 q 162 641 85 588 q 369 693 240 693 q 569 636 499 693 q 642 493 640 580 l 488 493 q 456 546 484 526 q 369 565 427 565 q 288 544 317 565 q 258 494 258 523 q 340 422 258 447 l 500 363 q 621 294 578 336 q 664 189 664 253 q 628 88 664 135 q 528 10 592 40 q 381 -19 465 -19 m 338 -311 l 262 -272 q 322 -234 296 -255 q 357 -185 347 -213 q 313 -165 331 -181 q 298 -122 296 -148 q 322 -75 300 -94 q 376 -57 344 -57 q 437 -85 415 -57 q 456 -153 459 -112 q 423 -241 454 -197 q 338 -311 392 -285 z "},"§":{"ha":833,"x_min":93,"x_max":740,"o":"m 437 328 q 500 338 473 328 q 543 367 528 349 q 558 408 558 385 q 537 452 558 435 q 472 482 515 468 l 325 535 q 204 608 247 561 q 161 719 161 656 q 238 859 161 806 q 442 911 315 911 q 646 854 577 911 q 717 710 715 797 l 563 710 q 531 764 561 744 q 449 783 501 783 q 364 762 393 783 q 335 711 335 740 q 416 640 335 666 l 576 581 q 697 512 654 553 q 740 410 740 470 q 704 306 740 354 q 604 228 668 258 q 456 199 540 199 l 437 328 m 395 513 q 314 490 343 513 q 284 438 284 468 q 366 366 284 392 l 526 307 q 646 238 603 280 q 689 135 689 197 q 655 32 689 81 q 554 -46 620 -16 q 393 -76 488 -76 q 239 -49 307 -76 q 132 28 171 -22 q 94 150 93 79 l 245 150 q 284 77 246 100 q 380 54 323 54 q 474 77 441 54 q 508 134 508 100 q 486 177 508 161 q 421 208 465 194 l 274 260 q 152 335 194 288 q 110 447 110 383 q 188 588 110 538 q 395 638 265 638 l 395 513 z "},"⅞":{"ha":1428,"x_min":33,"x_max":1362,"o":"m 50 417 l 299 864 l 33 864 l 33 960 l 415 960 l 415 865 l 183 417 l 50 417 m 277 9 l 550 1110 l 679 1169 l 403 68 l 277 9 m 1132 -19 q 965 26 1027 -19 q 903 139 903 71 q 948 229 903 197 q 1059 261 992 261 q 1091 258 1076 261 q 1126 250 1106 256 l 1126 226 q 1039 203 1074 226 q 1004 149 1004 181 q 1042 92 1004 113 q 1132 71 1079 71 q 1228 88 1197 71 q 1260 131 1260 105 q 1244 167 1260 152 q 1202 192 1229 182 l 1047 252 q 990 282 1019 263 q 941 330 960 301 q 921 398 921 358 q 976 506 921 466 q 1132 547 1031 547 q 1239 526 1192 547 q 1315 471 1287 506 q 1342 390 1342 436 q 1304 308 1342 344 q 1197 273 1266 273 q 1168 276 1181 273 q 1137 283 1154 278 l 1137 312 q 1210 332 1178 312 q 1241 384 1241 351 q 1210 437 1241 417 q 1132 457 1180 457 q 1055 439 1086 457 q 1023 394 1023 421 q 1037 360 1023 374 q 1078 336 1051 347 l 1238 274 q 1330 221 1298 251 q 1362 137 1362 190 q 1301 25 1362 69 q 1132 -19 1241 -19 z "},"₇":{"ha":440,"x_min":33,"x_max":415,"o":"m 50 0 l 299 447 l 33 447 l 33 543 l 415 543 l 415 449 l 183 0 l 50 0 z "},"⁷":{"ha":440,"x_min":33,"x_max":415,"o":"m 50 358 l 299 806 l 33 806 l 33 901 l 415 901 l 415 807 l 183 358 l 50 358 z "},"₆":{"ha":561,"x_min":65,"x_max":493,"o":"m 295 -19 q 176 16 228 -19 q 94 113 124 51 q 65 254 65 175 q 130 470 65 394 q 301 546 194 546 q 433 502 381 546 q 487 386 484 458 l 382 386 q 358 438 377 419 q 304 456 340 456 q 202 400 240 456 q 165 246 165 343 q 165 218 165 233 q 167 190 166 203 q 197 271 174 242 q 252 313 219 301 q 320 325 285 325 q 445 276 397 325 q 493 153 493 228 q 438 28 493 76 q 295 -19 383 -19 m 295 71 q 363 94 335 71 q 391 157 391 118 q 363 221 391 198 q 295 244 335 244 q 230 220 257 244 q 202 157 202 196 q 230 94 202 118 q 295 71 257 71 z "},"⁶":{"ha":561,"x_min":65,"x_max":493,"o":"m 296 354 q 176 389 228 354 q 95 486 124 425 q 66 627 66 548 q 95 786 66 720 q 177 885 124 851 q 301 919 230 919 q 396 899 355 919 q 461 843 438 879 q 487 759 485 807 l 382 759 q 359 811 377 792 q 304 830 340 830 q 202 773 240 830 q 164 619 164 716 q 165 592 164 606 q 168 564 166 577 q 197 644 174 615 q 252 686 220 674 q 320 698 285 698 q 410 676 371 698 q 471 615 449 654 q 493 526 493 576 q 468 436 493 474 q 399 375 443 397 q 296 354 354 354 m 296 444 q 363 468 335 444 q 391 530 391 491 q 363 594 391 571 q 296 617 335 617 q 249 606 270 617 q 215 576 228 595 q 202 530 202 556 q 229 468 202 491 q 296 444 257 444 z "},"­":{"ha":833,"x_min":64,"x_max":454,"o":"m 64 347 l 64 490 l 454 490 l 454 347 l 64 347 z "},"∑":{"ha":783,"x_min":65,"x_max":717,"o":"m 397 286 l 65 758 l 65 901 l 717 901 l 717 758 l 114 758 l 209 801 l 575 286 l 397 286 m 397 286 l 575 286 l 209 -229 l 114 -187 l 717 -187 l 717 -329 l 65 -329 l 65 -187 l 397 286 z "},"ŧ":{"ha":548,"x_min":44,"x_max":510,"o":"m 357 -19 q 248 3 297 -19 q 168 71 198 25 q 139 188 139 117 l 139 853 l 303 853 l 303 193 q 382 110 303 110 q 431 115 406 110 q 486 132 455 121 l 510 17 q 434 -9 471 1 q 357 -19 397 -19 m 44 565 l 44 674 l 486 674 l 486 565 l 44 565 m 50 363 l 50 485 l 454 485 l 454 363 l 50 363 z "},"ť":{"ha":548,"x_min":29,"x_max":524,"o":"m 357 -19 q 248 3 297 -19 q 168 71 198 25 q 139 188 139 117 l 139 853 l 303 853 l 303 193 q 382 110 303 110 q 431 115 406 110 q 486 132 455 121 l 510 17 q 434 -9 471 1 q 357 -19 397 -19 m 44 565 l 44 674 l 486 674 l 486 565 l 44 565 m 276 909 l 29 1121 l 126 1197 l 305 1017 l 247 1017 l 428 1197 l 524 1121 l 276 909 z "},"ţ":{"ha":548,"x_min":44,"x_max":510,"o":"m 357 -19 q 248 3 297 -19 q 168 71 198 25 q 139 188 139 117 l 139 853 l 303 853 l 303 193 q 382 110 303 110 q 431 115 406 110 q 486 132 455 121 l 510 17 q 434 -9 471 1 q 357 -19 397 -19 m 44 565 l 44 674 l 486 674 l 486 565 l 44 565 m 170 -251 l 193 -193 q 277 -218 240 -215 q 335 -209 313 -222 q 359 -175 357 -197 q 345 -141 361 -156 q 302 -114 330 -126 q 235 -94 274 -102 l 289 59 l 361 49 l 312 -90 l 290 -48 q 399 -79 358 -58 q 459 -127 441 -100 q 476 -185 478 -154 q 441 -250 473 -225 q 363 -283 410 -274 q 264 -283 315 -291 q 170 -251 213 -276 z "},"ț":{"ha":548,"x_min":44,"x_max":510,"o":"m 357 -19 q 248 3 297 -19 q 168 71 198 25 q 139 188 139 117 l 139 853 l 303 853 l 303 193 q 382 110 303 110 q 431 115 406 110 q 486 132 455 121 l 510 17 q 434 -9 471 1 q 357 -19 397 -19 m 44 565 l 44 674 l 486 674 l 486 565 l 44 565 m 278 -308 l 202 -269 q 262 -231 236 -251 q 297 -182 288 -210 q 253 -161 271 -178 q 238 -118 236 -144 q 263 -72 240 -90 q 316 -53 285 -53 q 377 -81 356 -53 q 397 -149 399 -109 q 363 -238 394 -194 q 278 -308 332 -282 z "},"þ":{"ha":833,"x_min":129,"x_max":782,"o":"m 467 -19 q 340 13 392 -19 q 261 109 288 44 q 233 272 233 174 l 293 272 q 314 195 293 227 q 369 146 335 163 q 443 129 403 129 q 524 152 484 129 q 590 220 564 174 q 617 338 617 267 q 594 449 617 402 q 534 521 572 496 q 446 546 495 546 q 369 527 404 546 q 314 473 335 508 q 293 386 293 437 l 233 386 q 266 560 233 492 q 353 660 299 628 q 474 693 408 693 q 624 651 553 693 q 738 529 694 608 q 782 338 782 449 q 738 145 782 225 q 621 23 693 65 q 467 -19 549 -19 m 129 -329 l 129 901 l 293 901 l 293 -329 l 129 -329 z "},"⅜":{"ha":1563,"x_min":63,"x_max":1495,"o":"m 287 397 q 178 418 229 397 q 95 480 127 439 q 63 579 63 520 l 166 579 q 202 512 169 537 q 287 488 235 488 q 367 511 338 488 q 396 570 396 535 q 369 626 396 606 q 286 646 342 646 l 214 646 l 214 724 l 275 724 q 350 744 323 724 q 377 800 377 765 q 354 852 377 831 q 283 874 331 874 q 215 858 245 874 q 177 804 185 842 l 74 804 q 139 925 83 887 q 279 963 196 963 q 426 921 368 963 q 483 811 483 878 q 460 739 483 770 q 394 694 438 708 q 473 643 443 676 q 502 561 502 610 q 443 443 502 489 q 287 397 384 397 m 410 9 l 683 1110 l 812 1169 l 536 68 l 410 9 m 1265 -19 q 1098 26 1160 -19 q 1036 139 1036 71 q 1081 229 1036 197 q 1192 261 1126 261 q 1225 258 1210 261 q 1260 250 1240 256 l 1260 226 q 1172 203 1207 226 q 1138 149 1138 181 q 1175 92 1138 113 q 1265 71 1213 71 q 1362 88 1331 71 q 1393 131 1393 105 q 1378 167 1393 152 q 1335 192 1363 182 l 1181 252 q 1123 282 1153 263 q 1074 330 1094 301 q 1054 398 1054 358 q 1109 506 1054 466 q 1265 547 1165 547 q 1373 526 1325 547 q 1448 471 1420 506 q 1476 390 1476 436 q 1438 308 1476 344 q 1331 273 1399 273 q 1301 276 1315 273 q 1270 283 1288 278 l 1270 312 q 1343 332 1312 312 q 1374 384 1374 351 q 1344 437 1374 417 q 1265 457 1313 457 q 1188 439 1219 457 q 1156 394 1156 421 q 1170 360 1156 374 q 1212 336 1185 347 l 1372 274 q 1463 221 1431 251 q 1495 137 1495 190 q 1435 25 1495 69 q 1265 -19 1374 -19 z "},"₃":{"ha":573,"x_min":63,"x_max":502,"o":"m 287 -19 q 178 1 229 -19 q 95 63 127 22 q 63 163 63 103 l 166 163 q 202 95 169 120 q 287 71 235 71 q 367 94 338 71 q 396 153 396 118 q 369 209 396 189 q 286 228 342 228 l 214 228 l 214 306 l 275 306 q 350 327 323 306 q 377 383 377 348 q 354 435 377 415 q 283 456 331 456 q 215 441 245 456 q 177 387 185 426 l 74 387 q 139 508 83 470 q 279 546 196 546 q 426 504 368 546 q 483 394 483 462 q 460 322 483 353 q 394 276 438 292 q 473 227 443 260 q 502 144 502 194 q 443 26 502 72 q 287 -19 384 -19 z "},"¾":{"ha":1486,"x_min":63,"x_max":1467,"o":"m 287 397 q 178 418 229 397 q 95 480 127 439 q 63 579 63 520 l 166 579 q 202 512 169 537 q 287 488 235 488 q 367 511 338 488 q 396 570 396 535 q 369 626 396 606 q 286 646 342 646 l 214 646 l 214 724 l 275 724 q 350 744 323 724 q 377 800 377 765 q 354 852 377 831 q 283 874 331 874 q 215 858 245 874 q 177 804 185 842 l 74 804 q 139 925 83 887 q 279 963 196 963 q 426 921 368 963 q 483 811 483 878 q 460 739 483 770 q 394 694 438 708 q 473 643 443 676 q 502 561 502 610 q 443 443 502 489 q 287 397 384 397 m 410 9 l 683 1110 l 812 1169 l 536 68 l 410 9 m 1277 549 l 1372 549 l 1372 205 l 1467 205 l 1467 120 l 1372 120 l 1372 0 l 1274 0 l 1274 120 l 999 120 l 999 195 l 1277 549 m 1278 402 l 1116 195 l 1278 195 l 1278 402 z "},"³":{"ha":574,"x_min":63,"x_max":503,"o":"m 287 354 q 204 365 244 354 q 132 400 163 377 q 81 457 100 423 q 63 536 63 491 l 166 536 q 184 487 168 508 q 226 455 199 466 q 287 444 252 444 q 367 467 338 444 q 396 527 396 491 q 384 567 396 550 q 348 593 372 584 q 286 602 324 602 l 214 602 l 214 680 l 275 680 q 350 700 323 680 q 377 756 377 721 q 354 809 377 787 q 284 830 330 830 q 216 814 245 830 q 177 760 186 799 l 74 760 q 107 851 79 816 q 179 903 135 886 q 279 919 224 919 q 384 900 338 919 q 457 847 430 881 q 484 768 484 812 q 461 696 484 726 q 394 650 438 665 q 473 600 443 633 q 503 518 503 567 q 476 432 503 469 q 400 374 449 395 q 287 354 352 354 z "},"̃":{"ha":0,"x_min":32,"x_max":513,"o":"m 97 783 l 32 823 q 88 954 49 907 q 181 1001 127 1001 q 223 993 201 1001 q 282 966 244 985 q 335 940 317 948 q 369 933 353 933 q 409 949 390 933 q 443 1001 428 965 l 513 955 q 481 866 503 905 q 431 806 459 828 q 374 783 402 783 q 324 793 349 783 q 260 822 299 803 q 211 847 227 840 q 181 853 195 853 q 138 839 158 853 q 97 783 117 824 z "},"™":{"ha":977,"x_min":4,"x_max":911,"o":"m 4 1056 l 4 1126 l 366 1126 l 366 1056 l 208 1056 l 226 1074 l 226 676 l 144 676 l 144 1074 l 163 1056 l 4 1056 m 433 1126 l 551 1126 l 678 851 l 671 851 l 798 1126 l 911 1126 l 911 676 l 828 676 l 828 1032 l 841 1032 l 701 725 l 647 725 l 508 1031 l 515 1031 l 515 676 l 433 676 l 433 1126 z "},"₂":{"ha":569,"x_min":83,"x_max":496,"o":"m 83 0 l 83 93 q 115 200 83 161 q 208 262 146 238 l 319 305 q 373 340 355 319 q 390 393 390 362 q 367 447 390 425 q 302 468 344 468 q 234 448 261 468 q 202 388 206 427 l 93 388 q 122 481 94 444 q 196 536 149 517 q 301 554 242 554 q 400 533 356 554 q 470 476 444 513 q 496 389 496 439 q 461 286 496 326 q 356 217 427 245 l 244 174 q 197 147 212 162 q 182 106 182 131 l 182 90 l 492 90 l 492 0 l 83 0 z "},"²":{"ha":569,"x_min":83,"x_max":496,"o":"m 84 365 l 84 458 q 97 536 84 504 q 139 589 111 567 q 207 627 166 611 l 319 670 q 372 706 355 684 q 390 759 390 727 q 367 811 390 790 q 302 833 344 833 q 234 813 261 833 q 202 754 207 792 l 93 754 q 122 846 94 809 q 196 901 149 883 q 300 919 242 919 q 399 898 355 919 q 470 841 444 878 q 496 754 496 804 q 481 681 496 713 q 435 625 465 649 q 356 583 404 601 l 244 539 q 197 511 212 527 q 182 472 182 496 l 182 456 l 493 456 l 493 365 l 84 365 z "},"ű":{"ha":871,"x_min":115,"x_max":742,"o":"m 578 676 l 742 676 l 742 0 l 578 0 l 578 676 m 115 676 l 279 676 l 279 263 q 312 164 279 197 q 401 131 344 131 q 490 156 450 131 q 554 231 530 181 q 578 354 578 281 l 622 354 q 590 149 622 231 q 502 28 558 68 q 372 -12 446 -12 q 242 13 300 -12 q 149 96 183 39 q 115 246 115 153 l 115 676 m 571 769 l 489 784 l 513 1019 l 628 992 l 571 769 m 383 780 l 299 792 l 308 1029 l 424 1010 l 383 780 z "},"ū":{"ha":871,"x_min":115,"x_max":742,"o":"m 578 676 l 742 676 l 742 0 l 578 0 l 578 676 m 115 676 l 279 676 l 279 263 q 312 164 279 197 q 401 131 344 131 q 490 156 450 131 q 554 231 530 181 q 578 354 578 281 l 622 354 q 590 149 622 231 q 502 28 558 68 q 372 -12 446 -12 q 242 13 300 -12 q 149 96 183 39 q 115 246 115 153 l 115 676 m 207 945 l 687 945 l 687 811 l 207 811 l 207 945 z "},"ų":{"ha":871,"x_min":115,"x_max":831,"o":"m 578 676 l 742 676 l 742 0 l 578 0 l 578 676 m 115 676 l 279 676 l 279 263 q 312 164 279 197 q 401 131 344 131 q 490 156 450 131 q 554 231 530 181 q 578 354 578 281 l 622 354 q 590 149 622 231 q 502 28 558 68 q 372 -12 446 -12 q 242 13 300 -12 q 149 96 183 39 q 115 246 115 153 l 115 676 m 831 -226 q 739 -262 786 -250 q 647 -275 692 -275 q 524 -242 573 -275 q 476 -147 476 -208 q 511 -49 476 -97 q 617 27 547 -1 l 742 0 q 628 -54 670 -25 q 586 -118 586 -83 q 609 -156 586 -145 q 660 -167 632 -167 q 720 -157 690 -167 q 793 -125 751 -147 l 831 -226 z "},"ů":{"ha":871,"x_min":115,"x_max":742,"o":"m 578 676 l 742 676 l 742 0 l 578 0 l 578 676 m 115 676 l 279 676 l 279 263 q 312 164 279 197 q 401 131 344 131 q 490 156 450 131 q 554 231 530 181 q 578 354 578 281 l 622 354 q 590 149 622 231 q 502 28 558 68 q 372 -12 446 -12 q 242 13 300 -12 q 149 96 183 39 q 115 246 115 153 l 115 676 m 447 747 q 364 769 402 747 q 304 830 326 792 q 282 913 282 867 q 304 995 282 958 q 364 1055 326 1033 q 447 1078 401 1078 q 530 1055 492 1078 q 590 995 567 1033 q 613 913 613 958 q 590 830 613 867 q 530 770 567 792 q 447 747 492 747 m 447 857 q 487 873 471 857 q 503 913 503 889 q 487 952 503 936 q 447 969 471 969 q 408 952 424 969 q 392 913 392 936 q 408 873 392 889 q 447 857 424 857 z "},"ẃ":{"ha":1053,"x_min":17,"x_max":1033,"o":"m 17 674 l 188 674 l 333 163 l 317 163 l 454 638 l 603 638 l 740 161 l 724 161 l 869 674 l 1033 674 l 811 0 l 650 0 l 513 447 l 538 447 l 403 0 l 240 0 l 17 674 m 481 774 l 403 838 l 663 1097 l 772 1008 l 481 774 z "},"ŵ":{"ha":1053,"x_min":17,"x_max":1033,"o":"m 17 674 l 188 674 l 333 163 l 317 163 l 454 638 l 603 638 l 740 161 l 724 161 l 869 674 l 1033 674 l 811 0 l 650 0 l 513 447 l 538 447 l 403 0 l 240 0 l 17 674 m 375 765 l 278 841 l 526 1053 l 774 841 l 677 765 l 497 927 l 554 927 l 375 765 z "},"ẅ":{"ha":1053,"x_min":17,"x_max":1033,"o":"m 17 674 l 188 674 l 333 163 l 317 163 l 454 638 l 603 638 l 740 161 l 724 161 l 869 674 l 1033 674 l 811 0 l 650 0 l 513 447 l 538 447 l 403 0 l 240 0 l 17 674 m 658 793 q 590 819 618 793 q 561 885 561 846 q 590 952 561 925 q 658 978 618 978 q 729 952 701 978 q 757 885 757 925 q 729 819 757 846 q 658 793 701 793 m 392 793 q 322 819 349 793 q 294 884 294 846 q 322 951 294 925 q 392 977 349 977 q 463 951 435 977 q 490 884 490 925 q 463 819 490 846 q 392 793 435 793 z "},"ẁ":{"ha":1053,"x_min":17,"x_max":1033,"o":"m 17 674 l 188 674 l 333 163 l 317 163 l 454 638 l 603 638 l 740 161 l 724 161 l 869 674 l 1033 674 l 811 0 l 650 0 l 513 447 l 538 447 l 403 0 l 240 0 l 17 674 m 631 776 l 340 1010 l 449 1099 l 709 840 l 631 776 z "},"ý":{"ha":699,"x_min":0,"x_max":683,"o":"m 26 674 l 213 674 l 392 143 l 363 143 l 517 674 l 683 674 l 425 -122 q 327 -295 385 -242 q 186 -349 269 -349 q 93 -338 138 -349 q 0 -304 47 -327 l 0 -160 q 74 -194 38 -183 q 146 -206 110 -206 q 203 -188 178 -206 q 246 -139 228 -170 q 276 -65 264 -107 l 297 0 l 26 674 m 305 774 l 226 838 l 486 1097 l 596 1008 l 305 774 z "},"ŷ":{"ha":699,"x_min":0,"x_max":683,"o":"m 26 674 l 213 674 l 392 143 l 363 143 l 517 674 l 683 674 l 425 -122 q 327 -295 385 -242 q 186 -349 269 -349 q 93 -338 138 -349 q 0 -304 47 -327 l 0 -160 q 74 -194 38 -183 q 146 -206 110 -206 q 203 -188 178 -206 q 246 -139 228 -170 q 276 -65 264 -107 l 297 0 l 26 674 m 199 765 l 102 841 l 349 1053 l 597 841 l 501 765 l 320 927 l 378 927 l 199 765 z "},"ÿ":{"ha":699,"x_min":0,"x_max":683,"o":"m 26 674 l 213 674 l 392 143 l 363 143 l 517 674 l 683 674 l 425 -122 q 327 -295 385 -242 q 186 -349 269 -349 q 93 -338 138 -349 q 0 -304 47 -327 l 0 -160 q 74 -194 38 -183 q 146 -206 110 -206 q 203 -188 178 -206 q 246 -139 228 -170 q 276 -65 264 -107 l 297 0 l 26 674 m 483 793 q 414 819 442 793 q 385 885 385 846 q 414 952 385 925 q 483 978 442 978 q 553 952 526 978 q 581 885 581 925 q 553 819 581 846 q 483 793 526 793 m 216 793 q 146 819 174 793 q 119 884 119 846 q 146 951 119 925 q 216 977 174 977 q 287 951 259 977 q 315 884 315 925 q 287 819 315 846 q 216 793 259 793 z "},"¥":{"ha":815,"x_min":10,"x_max":804,"o":"m 319 0 l 319 372 l 10 901 l 204 901 l 419 514 l 388 514 l 611 901 l 804 901 l 483 372 l 483 0 l 319 0 m 161 118 l 161 210 l 646 210 l 646 118 l 161 118 m 161 267 l 161 358 l 646 358 l 646 267 l 161 267 z "},"ỳ":{"ha":699,"x_min":0,"x_max":683,"o":"m 26 674 l 213 674 l 392 143 l 363 143 l 517 674 l 683 674 l 425 -122 q 327 -295 385 -242 q 186 -349 269 -349 q 93 -338 138 -349 q 0 -304 47 -327 l 0 -160 q 74 -194 38 -183 q 146 -206 110 -206 q 203 -188 178 -206 q 246 -139 228 -170 q 276 -65 264 -107 l 297 0 l 26 674 m 455 776 l 165 1010 l 274 1099 l 533 840 l 455 776 z "},"ź":{"ha":688,"x_min":79,"x_max":610,"o":"m 79 0 l 79 133 l 429 542 l 79 542 l 79 674 l 610 674 l 610 542 l 271 133 l 610 133 l 610 0 l 79 0 m 299 774 l 221 838 l 481 1097 l 590 1008 l 299 774 z "},"ž":{"ha":688,"x_min":79,"x_max":610,"o":"m 79 0 l 79 133 l 429 542 l 79 542 l 79 674 l 610 674 l 610 542 l 271 133 l 610 133 l 610 0 l 79 0 m 349 775 l 102 987 l 199 1063 l 378 883 l 320 883 l 501 1063 l 597 987 l 349 775 z "},"ż":{"ha":688,"x_min":79,"x_max":610,"o":"m 79 0 l 79 133 l 429 542 l 79 542 l 79 674 l 610 674 l 610 542 l 271 133 l 610 133 l 610 0 l 79 0 m 240 907 q 271 984 240 953 q 351 1016 302 1016 q 433 984 400 1016 q 466 907 466 953 q 433 831 466 861 q 351 800 400 800 q 271 831 302 800 q 240 907 240 862 z "},"₀":{"ha":598,"x_min":65,"x_max":533,"o":"m 299 -19 q 130 53 195 -19 q 65 274 65 126 q 130 495 65 423 q 299 567 195 567 q 468 495 402 567 q 533 274 533 423 q 468 53 533 126 q 299 -19 402 -19 m 299 74 q 394 126 360 74 q 428 274 428 177 q 394 423 428 372 q 299 474 360 474 q 205 423 238 474 q 171 274 171 372 q 205 126 171 177 q 299 74 238 74 z "},"⁰":{"ha":598,"x_min":65,"x_max":533,"o":"m 299 333 q 177 365 230 333 q 95 462 125 397 q 65 626 65 527 q 95 791 65 726 q 177 888 125 856 q 299 920 230 920 q 421 888 368 920 q 503 791 474 856 q 533 626 533 726 q 503 462 533 527 q 421 365 474 397 q 299 333 368 333 m 299 427 q 394 478 360 427 q 427 626 427 530 q 394 775 427 723 q 299 827 360 827 q 205 775 238 827 q 171 626 171 723 q 205 478 171 530 q 299 427 238 427 z "}}}
